<?xml version="1.0" encoding="UTF-8" standalone="no"?>
<svg
   xmlns:dc="http://purl.org/dc/elements/1.1/"
   xmlns:cc="http://creativecommons.org/ns#"
   xmlns:rdf="http://www.w3.org/1999/02/22-rdf-syntax-ns#"
   xmlns:svg="http://www.w3.org/2000/svg"
   xmlns="http://www.w3.org/2000/svg"
   xmlns:sodipodi="http://sodipodi.sourceforge.net/DTD/sodipodi-0.dtd"
   xmlns:inkscape="http://www.inkscape.org/namespaces/inkscape"
   height="1000"
   width="1000"
   sodipodi:docname="ansuz.svg"
   version="1.1"
   id="svg1621"
   viewBox="0 0 1000 1000"
   inkscape:version="1.0.1 (3bc2e813f5, 2020-09-07)">
  <sodipodi:namedview
     id="base"
     pagecolor="#ffffff"
     bordercolor="#666666"
     borderopacity="1.0"
     inkscape:pageopacity="0.0"
     inkscape:pageshadow="2"
     inkscape:zoom="0.125"
     inkscape:cx="339.07825"
     inkscape:cy="698.23258"
     inkscape:document-units="px"
     inkscape:current-layer="layer1"
     showgrid="false"
     showguides="true"
     inkscape:window-width="851"
     inkscape:window-height="1438"
     inkscape:window-x="1707"
     inkscape:window-y="0"
     inkscape:window-maximized="1"
     showborder="true"
     inkscape:showpageshadow="false"
     inkscape:document-rotation="0"
     inkscape:snap-bbox="true"
     inkscape:bbox-paths="true"
     inkscape:bbox-nodes="true"
     inkscape:snap-bbox-midpoints="true"
     inkscape:snap-bbox-edge-midpoints="true">
    <sodipodi:guide
       id="guide_baseline"
       inkscape:label="baseline"
       position="0,253"
       orientation="0,1" />
    <sodipodi:guide
       id="guide_ascender"
       inkscape:label="ascender"
       position="0,945"
       orientation="0,1" />
    <sodipodi:guide
       id="guide_caps"
       inkscape:label="caps"
       position="0,896"
       orientation="0,1" />
    <sodipodi:guide
       id="guide_xheight"
       inkscape:label="xheight"
       position="0,729"
       orientation="0,1" />
    <sodipodi:guide
       id="guide_descender"
       inkscape:label="descender"
       position="0,28"
       orientation="0,1" />
  </sodipodi:namedview>
  <defs
     id="defs4">
    <rect
       x="3274.7769"
       y="1324.0826"
       width="2332.5872"
       height="352.08273"
       id="rect882" />
    <rect
       x="3274.7769"
       y="1324.0826"
       width="2332.5872"
       height="352.08273"
       id="rect1554" />
    <rect
       x="-3.4305727"
       y="1447.3522"
       width="10815.264"
       height="562.93915"
       id="rect864" />
    <rect
       x="-3.4305727"
       y="1447.3522"
       width="10815.264"
       height="562.93915"
       id="rect1557" />
  </defs>
  <metadata
     id="metadata7">
    <rdf:RDF>
      <cc:Work
         rdf:about="">
        <dc:format>image/svg+xml</dc:format>
        <dc:type
           rdf:resource="http://purl.org/dc/dcmitype/StillImage" />
        <dc:title />
      </cc:Work>
    </rdf:RDF>
  </metadata>
  <g
     id="layer1"
     inkscape:groupmode="layer"
     inkscape:label="Layer 1">
    <text
       xml:space="preserve"
       id="text862"
       style="font-style:normal;font-weight:normal;font-size:40px;line-height:1.25;font-family:sans-serif;letter-spacing:0px;word-spacing:0px;white-space:pre;shape-inside:url(#rect864);opacity:0.995;fill:#000000;fill-opacity:1;stroke:none;"
       transform="translate(1187.1808,3.7676)" />
    <text
       xml:space="preserve"
       id="text880"
       style="font-style:normal;font-weight:normal;font-size:40px;line-height:1.25;font-family:sans-serif;letter-spacing:0px;word-spacing:0px;white-space:pre;shape-inside:url(#rect882);opacity:0.995;fill:#000000;fill-opacity:1;stroke:none;"
       transform="translate(1187.1808,3.7676)" />
    <path
       id="path2172"
       style="opacity:1;fill:#000000;fill-opacity:1;stroke:none;stroke-width:35;stroke-linecap:square;stroke-miterlimit:4;stroke-dasharray:none;paint-order:markers stroke fill"
       d="m 277.44472,104.00788 a 23.643654,23.665464 0 0 0 -0.8156,0.02 23.643654,23.643654 0 0 0 -0.055,0 23.643654,23.665464 0 0 0 -0.3515,0.019 23.643654,23.665464 0 0 0 -0.4078,0.027 23.643654,23.665464 0 0 0 -0.3534,0.029 23.643654,23.643654 0 0 0 -0.2641,0.025 23.643654,23.665464 0 0 0 -0.1613,0.018 23.643654,23.643654 0 0 0 -0.033,0 23.643654,23.665464 0 0 0 -0.3185,0.037 23.643654,23.643654 0 0 0 -0.4039,0.055 23.643654,23.643654 0 0 0 -0.3651,0.055 23.643654,23.665464 0 0 0 -0.047,0.01 23.643654,23.643654 0 0 0 -0.7107,0.1243 23.643654,23.665464 0 0 0 -0.4817,0.097 23.643654,23.643654 0 0 0 -0.3981,0.09 23.643654,23.643654 0 0 0 -0.086,0.02 23.643654,23.665464 0 0 0 -0.3107,0.076 23.643654,23.643654 0 0 0 -0.2972,0.076 23.643654,23.665464 0 0 0 -0.099,0.025 23.643654,23.643654 0 0 0 -0.084,0.023 23.643654,23.665464 0 0 0 -0.3166,0.088 23.643654,23.643654 0 0 0 -0.3826,0.1146 23.643654,23.643654 0 0 0 -0.7768,0.2505 23.643654,23.643654 0 0 0 -0.3845,0.136 23.643654,23.643654 0 0 0 -0.082,0.029 23.643654,23.665464 0 0 0 -0.2991,0.1126 23.643654,23.643654 0 0 0 -0.3806,0.1495 23.643654,23.643654 0 0 0 -0.3767,0.1554 23.643654,23.643654 0 0 0 -0.7458,0.3302 23.643654,23.643654 0 0 0 -0.367,0.1748 23.643654,23.643654 0 0 0 -0.3651,0.1805 23.643654,23.643654 0 0 0 -1.0778,0.5807 23.643654,23.643654 0 0 0 -4.91909,3.748 23.643654,23.643654 0 0 0 -0.047,0.049 23.643654,23.643654 0 0 0 -6.7058,13.5087 23.643654,23.643654 0 0 0 -0.053,0.4059 23.643654,23.643654 0 0 0 -0.083,0.8118 23.643654,23.643654 0 0 0 -0.027,0.367 23.643654,23.665464 0 0 0 -0.01,0.079 23.643654,23.643654 0 0 0 -0.022,0.3671 23.643654,23.643654 0 0 0 -0.017,0.3942 23.643654,23.665464 0 0 0 0,0.027 23.643654,23.643654 0 0 0 -0.01,0.3301 23.643654,23.665464 0 0 0 0,0.2097 23.643654,23.643654 0 0 0 0,0.047 23.643654,23.665464 0 0 0 0,0.1923 v 112.1395 76.7774 73.6548 70.6348 73.6528 76.7774 112.1395 a 23.643654,23.665464 0 0 0 23.64399,23.6653 23.643654,23.665464 0 0 0 0.068,0 23.643654,23.665464 0 0 0 23.576,-23.6653 v -112.1398 -76.7775 -73.6527 -70.6349 -73.6546 -76.7774 -55.0813 l 108.7488,108.7507 a 23.643654,23.643654 0 0 0 16.6838,6.9232 v 0 a 23.643654,23.643654 0 0 0 16.7499,-6.9232 23.643654,23.643654 0 0 0 0.051,-0.051 23.643654,23.643654 0 0 0 -0.051,-33.389 l -149.1042,-149.1096 a 23.643654,23.643654 0 0 0 -2.9305,-2.4858 23.643654,23.643654 0 0 0 -0.3341,-0.2349 23.643654,23.643654 0 0 0 -1.0234,-0.6701 23.643654,23.643654 0 0 0 -0.3476,-0.2117 23.643654,23.643654 0 0 0 -1.0681,-0.598 23.643654,23.643654 0 0 0 -0.7263,-0.3671 23.643654,23.643654 0 0 0 -0.369,-0.1747 23.643654,23.643654 0 0 0 -0.7458,-0.3283 23.643654,23.643654 0 0 0 -0.3767,-0.1554 23.643654,23.643654 0 0 0 -0.3729,-0.1475 23.643654,23.643654 0 0 0 -0.01,0 23.643654,23.665464 0 0 0 -0.1865,-0.07 23.643654,23.643654 0 0 0 -0.196,-0.072 23.643654,23.665464 0 0 0 -0.01,0 23.643654,23.643654 0 0 0 -0.736,-0.2525 23.643654,23.643654 0 0 0 -0.025,-0.01 23.643654,23.665464 0 0 0 -0.1884,-0.061 23.643654,23.643654 0 0 0 -0.076,-0.023 23.643654,23.665464 0 0 0 -0.2505,-0.076 23.643654,23.665464 0 0 0 -0.064,-0.02 23.643654,23.643654 0 0 0 -0.202,-0.059 23.643654,23.665464 0 0 0 -0.027,-0.01 23.643654,23.643654 0 0 0 -0.3068,-0.086 23.643654,23.643654 0 0 0 -0.059,-0.016 23.643654,23.665464 0 0 0 -0.066,-0.018 23.643654,23.643654 0 0 0 -0.3283,-0.083 23.643654,23.643654 0 0 0 -0.3883,-0.093 23.643654,23.643654 0 0 0 -0.01,0 23.643654,23.665464 0 0 0 -0.01,0 23.643654,23.643654 0 0 0 -0.3748,-0.082 23.643654,23.643654 0 0 0 -0.016,0 23.643654,23.665464 0 0 0 -0.1962,-0.041 23.643654,23.643654 0 0 0 -0.082,-0.016 23.643654,23.665464 0 0 0 -0.2447,-0.049 23.643654,23.665464 0 0 0 -0.074,-0.014 23.643654,23.643654 0 0 0 -0.2039,-0.037 23.643654,23.665464 0 0 0 -0.047,-0.01 23.643654,23.643654 0 0 0 -0.303,-0.051 23.643654,23.643654 0 0 0 -0.053,-0.01 23.643654,23.665464 0 0 0 -0.049,-0.01 23.643654,23.643654 0 0 0 -0.3106,-0.047 23.643654,23.643654 0 0 0 -0.045,-0.01 23.643654,23.665464 0 0 0 -0.1981,-0.027 23.643654,23.643654 0 0 0 -0.055,-0.01 23.643654,23.665464 0 0 0 -0.2486,-0.031 23.643654,23.643654 0 0 0 -0.3088,-0.033 23.643654,23.643654 0 0 0 -0.2893,-0.029 23.643654,23.665464 0 0 0 -0.2856,-0.025 23.643654,23.665464 0 0 0 -0.029,0 23.643654,23.643654 0 0 0 -0.2078,-0.016 23.643654,23.665464 0 0 0 -0.066,0 23.643654,23.643654 0 0 0 -0.3399,-0.022 23.643654,23.643654 0 0 0 -0.3496,-0.018 23.643654,23.643654 0 0 0 -0.2349,-0.01 23.643654,23.665464 0 0 0 -0.024,0 23.643654,23.643654 0 0 0 -0.012,0 23.643654,23.665464 0 0 0 -0.3923,-0.01 23.643654,23.643654 0 0 0 -0.4079,0 z m 149.166,298.0969 a 23.643654,23.643618 0 0 0 -23.5761,23.644 23.643654,23.643618 0 0 0 23.644,23.644 23.643654,23.643618 0 0 0 0.068,0 23.643654,23.643618 0 0 0 23.576,-23.644 23.643654,23.643618 0 0 0 -23.644,-23.644 23.643654,23.643618 0 0 0 -0.068,0 z" />
  </g>
</svg>
