<?xml version="1.0" encoding="UTF-8" standalone="no"?>
<svg
   xmlns:dc="http://purl.org/dc/elements/1.1/"
   xmlns:cc="http://creativecommons.org/ns#"
   xmlns:rdf="http://www.w3.org/1999/02/22-rdf-syntax-ns#"
   xmlns:svg="http://www.w3.org/2000/svg"
   xmlns="http://www.w3.org/2000/svg"
   xmlns:sodipodi="http://sodipodi.sourceforge.net/DTD/sodipodi-0.dtd"
   xmlns:inkscape="http://www.inkscape.org/namespaces/inkscape"
   height="1000"
   width="1000"
   sodipodi:docname="berkanan.svg"
   version="1.1"
   id="svg1621"
   viewBox="0 0 1000 1000"
   inkscape:version="1.0.1 (3bc2e813f5, 2020-09-07)">
  <sodipodi:namedview
     id="base"
     pagecolor="#ffffff"
     bordercolor="#666666"
     borderopacity="1.0"
     inkscape:pageopacity="0.0"
     inkscape:pageshadow="2"
     inkscape:zoom="0.25"
     inkscape:cx="1176.1227"
     inkscape:cy="945.87999"
     inkscape:document-units="px"
     inkscape:current-layer="layer1"
     showgrid="false"
     showguides="true"
     inkscape:window-width="1278"
     inkscape:window-height="1438"
     inkscape:window-x="1280"
     inkscape:window-y="0"
     inkscape:window-maximized="1"
     showborder="true"
     inkscape:showpageshadow="false"
     inkscape:document-rotation="0"
     inkscape:snap-bbox="true"
     inkscape:bbox-paths="true"
     inkscape:bbox-nodes="true"
     inkscape:snap-bbox-midpoints="true"
     inkscape:snap-bbox-edge-midpoints="true">
    <sodipodi:guide
       id="guide_baseline"
       inkscape:label="baseline"
       position="0,253"
       orientation="0,1" />
    <sodipodi:guide
       id="guide_ascender"
       inkscape:label="ascender"
       position="0,945"
       orientation="0,1" />
    <sodipodi:guide
       id="guide_caps"
       inkscape:label="caps"
       position="0,896"
       orientation="0,1" />
    <sodipodi:guide
       id="guide_xheight"
       inkscape:label="xheight"
       position="0,729"
       orientation="0,1" />
    <sodipodi:guide
       id="guide_descender"
       inkscape:label="descender"
       position="0,28"
       orientation="0,1" />
  </sodipodi:namedview>
  <defs
     id="defs4">
    <rect
       x="3274.7769"
       y="1324.0826"
       width="2332.5872"
       height="352.08273"
       id="rect882" />
    <rect
       x="3274.7769"
       y="1324.0826"
       width="2332.5872"
       height="352.08273"
       id="rect1554" />
    <rect
       x="-3.4305727"
       y="1447.3522"
       width="10815.264"
       height="562.93915"
       id="rect864" />
    <rect
       x="-3.4305727"
       y="1447.3522"
       width="10815.264"
       height="562.93915"
       id="rect1557" />
  </defs>
  <metadata
     id="metadata7">
    <rdf:RDF>
      <cc:Work
         rdf:about="">
        <dc:format>image/svg+xml</dc:format>
        <dc:type
           rdf:resource="http://purl.org/dc/dcmitype/StillImage" />
        <dc:title />
      </cc:Work>
    </rdf:RDF>
  </metadata>
  <g
     id="layer1"
     inkscape:groupmode="layer"
     inkscape:label="Layer 1">
    <path
       id="path1759"
       style="opacity:1;fill:#000000;fill-opacity:1;stroke:none;stroke-width:35.0001;stroke-linecap:square;stroke-miterlimit:4;stroke-dasharray:none;paint-order:markers stroke fill"
       d="m 266.89785,104.0012 a 23.643668,23.643632 0 0 0 -23.5741,23.3993 23.643668,23.643668 0 0 0 0,0.5398 v 111.7395 76.7075 73.5867 70.5689 73.5847 76.7075 112.0367 a 23.643668,23.643632 0 0 0 23.644,23.644 23.643668,23.643632 0 0 0 0.068,0 23.643668,23.643632 0 0 0 23.5761,-23.644 v -112.0367 -76.7075 -51.207 l 108.8459,108.846 a 23.643668,23.643668 0 0 0 16.6839,6.9232 v 0 a 23.643668,23.643668 0 0 0 16.7498,-6.9232 23.643668,23.643668 0 0 0 0.051,-0.051 23.643668,23.643668 0 0 0 -0.051,-33.3891 L 300.45195,425.8891 432.79435,293.5468 a 23.643668,23.643668 0 0 0 0.051,-0.051 23.643668,23.643668 0 0 0 0.2622,-0.2679 23.643668,23.643668 0 0 0 0.023,-0.023 23.643668,23.643668 0 0 0 -0.2349,-33.0977 23.643668,23.643668 0 0 0 -0.051,-0.051 23.643668,23.643668 0 0 0 -1.3323,-1.2313 L 284.74125,112.0554 A 23.643668,23.643632 0 0 0 266.96605,104 a 23.643668,23.643632 0 0 0 -0.068,0 z m 23.712,80.7974 92.0281,92.028 -92.0281,92.03 v -52.4693 -76.7075 z m 50.9389,441.161 a 23.643668,23.643632 0 0 0 -23.5741,23.642 23.643668,23.643632 0 0 0 23.6421,23.644 23.643668,23.643632 0 0 0 0.07,0 23.643668,23.643632 0 0 0 23.5741,-23.644 23.643668,23.643632 0 0 0 -23.6421,-23.642 23.643668,23.643632 0 0 0 -0.07,0 z" />
    <text
       xml:space="preserve"
       id="text862"
       style="font-style:normal;font-weight:normal;font-size:40px;line-height:1.25;font-family:sans-serif;letter-spacing:0px;word-spacing:0px;white-space:pre;shape-inside:url(#rect864);opacity:0.995;fill:#000000;fill-opacity:1;stroke:none;"
       transform="translate(1187.1808,3.7676)" />
    <text
       xml:space="preserve"
       id="text880"
       style="font-style:normal;font-weight:normal;font-size:40px;line-height:1.25;font-family:sans-serif;letter-spacing:0px;word-spacing:0px;white-space:pre;shape-inside:url(#rect882);opacity:0.995;fill:#000000;fill-opacity:1;stroke:none;"
       transform="translate(1187.1808,3.7676)" />
  </g>
</svg>
