<?xml version="1.0" encoding="UTF-8" standalone="no"?>
<svg
   xmlns:dc="http://purl.org/dc/elements/1.1/"
   xmlns:cc="http://creativecommons.org/ns#"
   xmlns:rdf="http://www.w3.org/1999/02/22-rdf-syntax-ns#"
   xmlns:svg="http://www.w3.org/2000/svg"
   xmlns="http://www.w3.org/2000/svg"
   xmlns:sodipodi="http://sodipodi.sourceforge.net/DTD/sodipodi-0.dtd"
   xmlns:inkscape="http://www.inkscape.org/namespaces/inkscape"
   height="1000"
   width="1000"
   sodipodi:docname="dagaz.svg"
   version="1.1"
   id="svg1621"
   viewBox="0 0 1000 1000"
   inkscape:version="1.0.1 (3bc2e813f5, 2020-09-07)">
  <sodipodi:namedview
     id="base"
     pagecolor="#ffffff"
     bordercolor="#666666"
     borderopacity="1.0"
     inkscape:pageopacity="0.0"
     inkscape:pageshadow="2"
     inkscape:zoom="0.0625"
     inkscape:cx="5516.3734"
     inkscape:cy="-1279.8259"
     inkscape:document-units="px"
     inkscape:current-layer="layer1"
     showgrid="false"
     showguides="true"
     inkscape:window-width="1278"
     inkscape:window-height="1438"
     inkscape:window-x="1280"
     inkscape:window-y="0"
     inkscape:window-maximized="1"
     showborder="true"
     inkscape:showpageshadow="false"
     inkscape:document-rotation="0"
     inkscape:snap-bbox="true"
     inkscape:bbox-paths="true"
     inkscape:bbox-nodes="true"
     inkscape:snap-bbox-midpoints="true"
     inkscape:snap-bbox-edge-midpoints="true">
    <sodipodi:guide
       id="guide_baseline"
       inkscape:label="baseline"
       position="0,253"
       orientation="0,1" />
    <sodipodi:guide
       id="guide_ascender"
       inkscape:label="ascender"
       position="0,945"
       orientation="0,1" />
    <sodipodi:guide
       id="guide_caps"
       inkscape:label="caps"
       position="0,896"
       orientation="0,1" />
    <sodipodi:guide
       id="guide_xheight"
       inkscape:label="xheight"
       position="0,729"
       orientation="0,1" />
    <sodipodi:guide
       id="guide_descender"
       inkscape:label="descender"
       position="0,28"
       orientation="0,1" />
  </sodipodi:namedview>
  <defs
     id="defs4">
    <rect
       x="3274.7769"
       y="1324.0826"
       width="2332.5872"
       height="352.08273"
       id="rect882" />
    <rect
       x="3274.7769"
       y="1324.0826"
       width="2332.5872"
       height="352.08273"
       id="rect1554" />
    <rect
       x="-3.4305727"
       y="1447.3522"
       width="10815.264"
       height="562.93915"
       id="rect864" />
    <rect
       x="-3.4305727"
       y="1447.3522"
       width="10815.264"
       height="562.93915"
       id="rect1557" />
  </defs>
  <metadata
     id="metadata7">
    <rdf:RDF>
      <cc:Work
         rdf:about="">
        <dc:format>image/svg+xml</dc:format>
        <dc:type
           rdf:resource="http://purl.org/dc/dcmitype/StillImage" />
        <dc:title />
      </cc:Work>
    </rdf:RDF>
  </metadata>
  <g
     id="layer1"
     inkscape:groupmode="layer"
     inkscape:label="Layer 1">
    <text
       xml:space="preserve"
       id="text862"
       style="font-style:normal;font-weight:normal;font-size:40px;line-height:1.25;font-family:sans-serif;letter-spacing:0px;word-spacing:0px;white-space:pre;shape-inside:url(#rect864);opacity:0.995;fill:#000000;fill-opacity:1;stroke:none;"
       transform="translate(1187.1808,3.7676)" />
    <text
       xml:space="preserve"
       id="text880"
       style="font-style:normal;font-weight:normal;font-size:40px;line-height:1.25;font-family:sans-serif;letter-spacing:0px;word-spacing:0px;white-space:pre;shape-inside:url(#rect882);opacity:0.995;fill:#000000;fill-opacity:1;stroke:none;"
       transform="translate(1187.1808,3.7676)" />
    <path
       id="path1399"
       style="opacity:1;fill:#000000;fill-opacity:1;stroke:none;stroke-width:40;stroke-linecap:square;stroke-linejoin:miter;stroke-miterlimit:4;stroke-dasharray:none;stroke-opacity:1;paint-order:markers stroke fill"
       d="m 223.57001,104.54005 v 0 a 23.643668,23.643632 0 0 0 -1.738,0.0696 23.643632,23.643668 45 0 0 -0.08,0.01 23.643668,23.643632 0 0 0 -0.328,0.0288 23.643632,23.643668 45 0 0 -0.176,0.0159 23.643668,23.643632 0 0 0 -0.06,0 23.643632,23.643668 45 0 0 -0.369,0.0427 23.643668,23.643632 0 0 0 -1.312,0.19618 23.643632,23.643668 45 0 0 -0.13,0.0209 23.643668,23.643632 0 0 0 -0.3,0.0567 23.643632,23.643668 45 0 0 -0.197,0.0408 23.643668,23.643632 0 0 0 -0.133,0.0288 23.643632,23.643668 45 0 0 -0.354,0.0736 23.643668,23.643632 0 0 0 -0.08,0.0219 23.643632,23.643668 45 0 0 -0.397,0.0955 23.643668,23.643632 0 0 0 -0.05,0.0119 23.643632,23.643668 45 0 0 -0.332,0.0875 23.643668,23.643632 0 0 0 -0.324,0.0915 23.643632,23.643668 45 0 0 -0.164,0.0448 23.643668,23.643632 0 0 0 -0.138,0.0408 23.643632,23.643668 45 0 0 -0.344,0.10291 23.643668,23.643632 0 0 0 -0.07,0.0219 23.643632,23.643668 45 0 0 -0.771,0.2622 23.643668,23.643632 0 0 0 -0.08,0.0249 23.643632,23.643668 45 0 0 -0.35,0.13005 23.643668,23.643632 0 0 0 -0.795,0.3146 23.643632,23.643668 45 0 0 -0.173,0.0736 23.643668,23.643632 0 0 0 -0.06,0.0249 23.643632,23.643668 45 0 0 -0.324,0.14378 23.643668,23.643632 0 0 0 -0.306,0.1398 23.643632,23.643668 45 0 0 -0.119,0.0547 23.643668,23.643632 0 0 0 -0.07,0.0308 23.643632,23.643668 45 0 0 -0.334,0.16505 23.643668,23.643632 0 0 0 -0.516,0.2622 23.643632,23.643668 45 0 0 -0.326,0.17868 23.643668,23.643632 0 0 0 -3.626,2.44491 23.643632,23.643668 45 0 0 -0.286,0.23694 23.643668,23.643632 0 0 0 -0.438,0.38063 23.643632,23.643668 45 0 0 -0.275,0.24857 23.643668,23.643632 0 0 0 -0.08,0.0696 23.643632,23.643668 45 0 0 -0.27,0.25444 23.643668,23.643632 0 0 0 -0.303,0.29521 23.643632,23.643668 45 0 0 -0.04,0.0368 23.643668,23.643632 0 0 0 -0.07,0.0736 23.643632,23.643668 45 0 0 -0.03,0.0229 23.643632,23.643668 45 0 0 -0.973,1.04084 23.643668,23.643632 0 0 0 -0.287,0.33409 23.643632,23.643668 45 0 0 -0.02,0.0268 23.643668,23.643632 0 0 0 -0.28,0.33786 23.643632,23.643668 45 0 0 -1.162,1.54784 23.643668,23.643632 0 0 0 -0.242,0.367 23.643632,23.643668 45 0 0 -0.459,0.72048 23.643668,23.643632 0 0 0 -0.05,0.0815 23.643632,23.643668 45 0 0 -0.02,0.0328 23.643668,23.643632 0 0 0 -0.225,0.38261 23.643632,23.643668 45 0 0 -0.02,0.0249 23.643668,23.643632 0 0 0 -0.214,0.38251 23.643632,23.643668 45 0 0 -0.132,0.24668 23.643668,23.643632 0 0 0 -0.1,0.17282 23.643632,23.643668 45 0 0 -0.02,0.0328 23.643668,23.643632 0 0 0 0,0.01 23.643632,23.643668 45 0 0 -0.418,0.84288 23.643668,23.643632 0 0 0 -0.184,0.39812 23.643632,23.643668 45 0 0 -0.158,0.36312 23.643668,23.643632 0 0 0 -0.04,0.0994 23.643668,23.643632 0 0 0 -0.169,0.40976 23.643632,23.643668 45 0 0 -0.157,0.40587 23.643668,23.643632 0 0 0 -0.02,0.0368 23.643632,23.643668 45 0 0 0,0.0308 23.643668,23.643632 0 0 0 -0.15,0.41174 23.643632,23.643668 45 0 0 -0.136,0.38838 23.643668,23.643632 0 0 0 -0.03,0.0756 23.643632,23.643668 45 0 0 -0.07,0.21745 23.643668,23.643632 0 0 0 -0.08,0.24281 23.643632,23.643668 45 0 0 0,0.0139 23.643668,23.643632 0 0 0 -0.128,0.42139 23.643632,23.643668 45 0 0 -0.01,0.0348 23.643668,23.643632 0 0 0 -0.116,0.42139 23.643632,23.643668 45 0 0 -0.09,0.33797 23.643668,23.643632 0 0 0 -0.03,0.12429 23.643632,23.643668 45 0 0 -0.01,0.0348 23.643668,23.643632 0 0 0 -0.102,0.43302 23.643632,23.643668 45 0 0 0,0.0268 23.643668,23.643632 0 0 0 -0.09,0.43114 23.643632,23.643668 45 0 0 -0.05,0.26995 23.643668,23.643632 0 0 0 -0.04,0.19618 23.643632,23.643668 45 0 0 0,0.0348 23.643668,23.643632 0 0 0 -0.08,0.43302 23.643632,23.643668 45 0 0 0,0.0368 23.643668,23.643632 0 0 0 -0.07,0.44675 23.643632,23.643668 45 0 0 0,0.0229 23.643668,23.643632 0 0 0 -0.06,0.43501 23.643632,23.643668 45 0 0 -0.03,0.29322 23.643668,23.643632 0 0 0 -0.02,0.17868 23.643632,23.643668 45 0 0 0,0.0348 23.643668,23.643632 0 0 0 -0.04,0.43888 23.643632,23.643668 45 0 0 0,0.0368 23.643668,23.643632 0 0 0 -0.03,0.4369 23.643632,23.643668 45 0 0 -0.01,0.20006 23.643668,23.643632 0 0 0 -0.02,0.48164 23.643632,23.643668 45 0 0 -0.01,0.70885 23.643668,23.643632 0 0 0 0,0.0348 23.643632,23.643668 45 0 0 0,0.0328 v 112.00156 76.70754 73.5867 70.56886 73.58481 76.70743 112.00167 0.0348 a 23.643668,23.643632 0 0 0 0,0.0348 23.643668,23.643632 45 0 0 0.01,0.70884 23.643668,23.643632 45 0 0 0,0.17093 23.643668,23.643632 0 0 0 0.01,0.30873 23.643668,23.643632 45 0 0 0.02,0.16704 23.643668,23.643632 0 0 0 0,0.0348 23.643668,23.643632 45 0 0 0.03,0.45053 23.643668,23.643632 0 0 0 0,0.0229 23.643668,23.643632 45 0 0 0.04,0.43889 23.643668,23.643632 0 0 0 0.02,0.21368 23.643668,23.643632 45 0 0 0.03,0.25822 23.643668,23.643632 0 0 0 0,0.0348 23.643668,23.643632 45 0 0 0.02,0.12041 23.643668,23.643632 0 0 0 0.108,0.77298 23.643668,23.643632 45 0 0 0,0.0159 23.643668,23.643632 0 0 0 0,0.0328 23.643668,23.643632 45 0 0 0.08,0.43302 23.643668,23.643632 0 0 0 0,0.0328 23.643668,23.643632 45 0 0 0.08,0.43312 23.643668,23.643632 0 0 0 0.08,0.37475 23.643668,23.643632 45 0 0 0.03,0.11852 23.643668,23.643632 0 0 0 0.01,0.0607 23.643668,23.643632 45 0 0 0.09,0.39613 23.643668,23.643632 0 0 0 0,0.0119 23.643668,23.643632 45 0 0 0.111,0.42726 23.643668,23.643632 0 0 0 0.02,0.0348 23.643668,23.643632 45 0 0 0.118,0.42338 23.643668,23.643632 0 0 0 0.08,0.27771 23.643668,23.643632 45 0 0 0.05,0.17857 23.643668,23.643632 0 0 0 0.01,0.0328 23.643668,23.643632 45 0 0 0.14,0.43501 23.643668,23.643632 0 0 0 0,0.0159 23.643668,23.643632 45 0 0 0.146,0.41761 23.643668,23.643632 0 0 0 0.09,0.25245 23.643668,23.643632 45 0 0 0.07,0.19608 23.643668,23.643632 0 0 0 0,0.0308 23.643668,23.643632 45 0 0 0.162,0.40986 23.643668,23.643632 0 0 0 0.173,0.42139 23.643668,23.643632 45 0 0 0.01,0.0229 23.643668,23.643632 0 0 0 0,0.0268 23.643668,23.643632 45 0 0 0.176,0.40389 23.643668,23.643632 0 0 0 0.08,0.17679 23.643668,23.643632 45 0 0 0.136,0.28547 23.643668,23.643632 45 0 0 0.192,0.39812 23.643668,23.643632 0 0 0 0.02,0.0288 23.643668,23.643632 45 0 0 0.199,0.39226 23.643668,23.643632 0 0 0 0.11,0.20582 23.643668,23.643632 45 0 0 0.113,0.21368 23.643668,23.643632 0 0 0 0.02,0.0308 23.643668,23.643632 45 0 0 0.23,0.40777 23.643668,23.643632 0 0 0 0,0.01 23.643668,23.643632 45 0 0 0.225,0.37873 23.643668,23.643632 0 0 0 0.206,0.33598 23.643668,23.643632 45 0 0 0.06,0.0895 23.643668,23.643632 0 0 0 0.02,0.0348 23.643668,23.643632 45 0 0 0.243,0.37088 23.643668,23.643632 45 0 0 0.244,0.3671 23.643668,23.643632 0 0 0 0.214,0.30485 23.643668,23.643632 45 0 0 0.08,0.10679 23.643668,23.643632 0 0 0 0,0.01 23.643668,23.643632 45 0 0 0.26,0.35537 23.643668,23.643632 0 0 0 0.198,0.2622 23.643668,23.643632 45 0 0 0.09,0.11653 23.643668,23.643632 0 0 0 0.02,0.0249 23.643668,23.643632 45 0 0 0.278,0.35149 23.643668,23.643632 0 0 0 0.118,0.14179 23.643668,23.643632 45 0 0 0.182,0.21944 23.643668,23.643632 0 0 0 0.02,0.0229 23.643668,23.643632 45 0 0 0.291,0.33598 23.643668,23.643632 0 0 0 0.181,0.20194 23.643668,23.643632 45 0 0 0.137,0.15154 23.643668,23.643632 0 0 0 0.02,0.0229 23.643668,23.643632 45 0 0 0.3,0.32236 23.643668,23.643632 0 0 0 0.285,0.29322 23.643668,23.643632 45 0 0 0.05,0.0467 23.643668,23.643632 0 0 0 0.02,0.0229 23.643668,23.643632 45 0 0 0.02,0.0268 23.643668,23.643632 45 0 0 0.05,0.0447 23.643668,23.643632 45 0 0 0.04,0.0348 23.643668,23.643632 0 0 0 0.303,0.2971 23.643668,23.643632 0 0 0 0.294,0.27583 23.643668,23.643632 45 0 0 0.05,0.0487 23.643668,23.643632 0 0 0 0.28,0.25245 23.643668,23.643632 45 0 0 0.344,0.29909 23.643668,23.643632 0 0 0 0.02,0.0219 23.643668,23.643632 45 0 0 0.07,0.0567 23.643668,23.643632 0 0 0 0.29,0.23883 23.643668,23.643632 45 0 0 0.198,0.16118 23.643668,23.643632 0 0 0 0.171,0.13791 23.643668,23.643632 45 0 0 0.08,0.0607 23.643668,23.643632 0 0 0 0.303,0.23495 23.643668,23.643632 45 0 0 0.08,0.0567 23.643668,23.643632 0 0 0 0.302,0.22143 23.643668,23.643632 45 0 0 0.257,0.18256 23.643668,23.643632 0 0 0 0.132,0.0915 23.643668,23.643632 45 0 0 0.08,0.0567 23.643668,23.643632 0 0 0 0.311,0.2097 23.643668,23.643632 45 0 0 0.295,0.19419 23.643668,23.643632 0 0 0 0.167,0.1049 23.643668,23.643632 45 0 0 0.02,0.0139 23.643668,23.643632 0 0 0 0.318,0.19806 23.643668,23.643632 45 0 0 0.41,0.24271 23.643668,23.643632 45 0 0 0.314,0.17679 23.643668,23.643632 0 0 0 0.154,0.0875 23.643668,23.643632 45 0 0 0.03,0.0179 23.643668,23.643632 0 0 0 0.33,0.17669 23.643668,23.643632 45 0 0 0.332,0.1748 23.643668,23.643632 0 0 0 0.13,0.0616 23.643668,23.643632 45 0 0 0.229,0.11455 23.643668,23.643632 0 0 0 0.222,0.1049 23.643668,23.643632 45 0 0 0.07,0.0348 23.643668,23.643632 0 0 0 0.392,0.17669 23.643668,23.643632 0 0 0 0.393,0.17092 23.643668,23.643632 45 0 0 0.147,0.0636 23.643668,23.643632 0 0 0 0.303,0.12429 23.643668,23.643632 45 0 0 0.14,0.0547 23.643668,23.643632 0 0 0 0.313,0.1223 23.643668,23.643632 45 0 0 0.02,0.01 23.643668,23.643632 0 0 0 0.353,0.12816 23.643668,23.643632 45 0 0 0.377,0.13215 23.643668,23.643632 0 0 0 0.12,0.0408 23.643668,23.643632 45 0 0 0.142,0.0467 23.643668,23.643632 0 0 0 0.332,0.10678 23.643668,23.643632 45 0 0 0.02,0.01 23.643668,23.643632 0 0 0 0.361,0.10679 23.643668,23.643632 45 0 0 0.456,0.13015 23.643668,23.643632 45 0 0 0.35,0.0895 23.643668,23.643632 0 0 0 0.178,0.0447 23.643668,23.643632 45 0 0 0.08,0.0209 23.643668,23.643632 0 0 0 0.405,0.0955 23.643668,23.643632 0 0 0 0.368,0.0795 23.643668,23.643632 45 0 0 0.418,0.0815 23.643668,23.643632 0 0 0 0.07,0.0139 23.643668,23.643632 45 0 0 0.343,0.0607 23.643668,23.643632 0 0 0 0.165,0.0268 23.643668,23.643632 45 0 0 0.128,0.0199 23.643668,23.643632 0 0 0 0.383,0.0587 23.643668,23.643632 0 0 0 0.464,0.0616 23.643668,23.643632 0 0 0 0.412,0.0447 23.643668,23.643632 45 0 0 0.248,0.0229 23.643668,23.643632 0 0 0 0.247,0.0229 23.643668,23.643632 45 0 0 0.161,0.0119 23.643668,23.643632 0 0 0 0.255,0.0179 23.643668,23.643632 45 0 0 0.1,0.01 23.643668,23.643632 0 0 0 0.473,0.0229 23.643668,23.643632 0 0 0 0.475,0.0139 23.643668,23.643632 0 0 0 0.376,0.01 23.643668,23.643632 45 0 0 0.101,0 23.643668,23.643632 0 0 0 0.04,0 23.643668,23.643632 45 0 0 0.912,-0.0209 23.643668,23.643632 0 0 0 0.37,-0.0199 23.643668,23.643632 0 0 0 0.105,0 23.643668,23.643632 45 0 0 0.03,0 23.643668,23.643632 45 0 0 0.619,-0.0467 23.643668,23.643632 45 0 0 0.328,-0.0328 23.643668,23.643632 45 0 0 0.169,-0.0179 23.643668,23.643632 0 0 0 0.684,-0.0855 23.643668,23.643632 0 0 0 0.05,-0.01 23.643668,23.643632 45 0 0 0.04,0 23.643668,23.643632 0 0 0 0.43,-0.0696 23.643668,23.643632 45 0 0 0.206,-0.0328 23.643668,23.643632 0 0 0 0.265,-0.0447 23.643668,23.643632 45 0 0 0.967,-0.20204 23.643668,23.643632 0 0 0 0.12,-0.0288 23.643668,23.643632 45 0 0 0.343,-0.0815 23.643668,23.643632 45 0 0 0.459,-0.11843 23.643668,23.643632 0 0 0 0.419,-0.11842 23.643668,23.643632 45 0 0 0.721,-0.22143 23.643668,23.643632 0 0 0 0.188,-0.0607 23.643668,23.643632 45 0 0 1.338,-0.49328 23.643668,23.643632 0 0 0 0.28,-0.11653 23.643668,23.643632 0 0 0 0.161,-0.0656 23.643668,23.643632 45 0 0 0.468,-0.20582 23.643668,23.643632 0 0 0 0.396,-0.18454 23.643668,23.643632 45 0 0 0.743,-0.36889 23.643668,23.643632 0 0 0 0.108,-0.0567 23.643668,23.643632 45 0 0 1.96,-1.1536 23.643668,23.643632 0 0 0 0.08,-0.0547 23.643668,23.643632 45 0 0 1.166,-0.82339 23.643668,23.643632 0 0 0 0.376,-0.28746 23.643668,23.643632 45 0 0 0.317,-0.25434 23.643668,23.643632 0 0 0 0.06,-0.0448 23.643668,23.643632 45 0 0 0.588,-0.49914 23.643668,23.643632 0 0 0 0.133,-0.11454 23.643668,23.643632 45 0 0 0.03,-0.0268 23.643668,23.643632 0 0 0 0.325,-0.29332 23.643668,23.643632 45 0 0 0.371,-0.35149 23.643668,23.643632 0 0 0 0.314,-0.30873 l 0.03,-0.0249 158.405,-158.40412 13.531,-13.53187 54.695,-54.6948 10.995,-10.99568 43.246,-43.24473 10.995,-10.99568 41.037,-41.03666 10.995,-10.99568 49.901,-49.89994 29.334,-29.33612 22.696,-22.69821 54.239,-54.23842 54.663,-54.66179 v 234.62748 a 23.643668,23.643632 0 0 0 23.574,23.644 23.643668,23.643632 0 0 0 0.07,0 23.643668,23.643632 0 0 0 23.644,-23.644 V 128.34065 a 23.643668,23.643632 45 0 0 0,-0.27383 23.643668,23.643632 0 0 0 0,-0.20195 23.643668,23.643632 45 0 0 0,-0.0487 23.643668,23.643632 0 0 0 -23.639,-23.25562 23.643668,23.643632 0 0 0 -0.07,0 23.643668,23.643632 0 0 0 -17.896,8.27495 l -14.555,14.55729 -79.222,79.22046 -54.241,54.24041 -22.696,22.69632 -29.336,29.33791 -49.787,49.7854 a 23.643668,23.643632 45 0 0 -0.113,0.11076 v 0 l -18.864,18.86276 -10.728,10.7296 -108.932,-108.93332 -171.963,-171.96313 a 23.643632,23.643668 45 0 0 -1.373,-1.26626 23.643668,23.643632 0 0 0 -0.02,-0.0219 23.643632,23.643668 45 0 0 -0.709,-0.58058 23.643668,23.643632 0 0 0 -0.03,-0.0219 23.643632,23.643668 45 0 0 -0.352,-0.26807 23.643668,23.643632 0 0 0 -0.03,-0.0219 23.643632,23.643668 45 0 0 -0.355,-0.26219 23.643668,23.643632 0 0 0 -0.03,-0.0179 23.643632,23.643668 45 0 0 -0.361,-0.25634 23.643668,23.643632 0 0 0 -0.03,-0.0189 23.643632,23.643668 45 0 0 -0.368,-0.24659 23.643668,23.643632 0 0 0 -0.03,-0.0199 23.643632,23.643668 45 0 0 -0.37,-0.23884 23.643668,23.643632 0 0 0 -0.03,-0.0189 23.643632,23.643668 45 0 0 -0.375,-0.23306 23.643668,23.643632 0 0 0 -0.03,-0.0179 23.643632,23.643668 45 0 0 -0.379,-0.22531 23.643668,23.643632 0 0 0 -0.03,-0.0179 23.643632,23.643668 45 0 0 -0.383,-0.21557 23.643668,23.643632 0 0 0 -0.03,-0.0179 23.643632,23.643668 45 0 0 -0.811,-0.42726 23.643668,23.643632 0 0 0 -0.03,-0.0159 23.643632,23.643668 45 0 0 -0.963,-0.45052 23.643668,23.643632 0 0 0 -0.301,-0.13204 23.643632,23.643668 45 0 0 -0.44,-0.18455 23.643668,23.643632 0 0 0 -0.03,-0.0139 23.643632,23.643668 45 0 0 -0.412,-0.16118 23.643668,23.643632 0 0 0 -0.03,-0.0119 23.643632,23.643668 45 0 0 -0.18,-0.0656 23.643668,23.643632 0 0 0 -0.236,-0.0855 23.643632,23.643668 45 0 0 -1.907,-0.5942 23.643668,23.643632 0 0 0 -0.365,-0.0955 23.643632,23.643668 45 0 0 -1.877,-0.38847 23.643668,23.643632 0 0 0 -0.02,0 23.643632,23.643668 45 0 0 -0.439,-0.0696 23.643668,23.643632 0 0 0 -0.03,0 23.643632,23.643668 45 0 0 -0.157,-0.0219 23.643668,23.643632 0 0 0 -0.314,-0.0408 23.643632,23.643668 45 0 0 -0.911,-0.0935 23.643668,23.643632 0 0 0 -0.03,0 23.643632,23.643668 45 0 0 -0.441,-0.0308 23.643668,23.643632 0 0 0 -0.03,0 23.643632,23.643668 45 0 0 -0.139,-0.01 23.643668,23.643632 0 0 0 -0.335,-0.0159 23.643632,23.643668 45 0 0 -0.443,-0.0159 23.643668,23.643632 0 0 0 -0.03,0 23.643632,23.643668 45 0 0 -0.442,-0.01 23.643668,23.643632 0 0 0 -0.07,0 23.643668,23.643632 0 0 0 -0.07,0 z m 23.715,80.72554 131.603,131.6024 108.931,108.92935 -43.245,43.24473 -65.688,65.6866 -13.532,13.53584 -118.069,118.06457 v -54.95313 -76.70754 -73.5847 -70.57076 -73.5848 -76.70754 z m 571.401,514.50104 a 23.643684,23.643647 0 0 0 -23.576,23.644 23.643684,23.643647 0 0 0 23.642,23.64399 23.643684,23.643647 0 0 0 0.07,0 23.643684,23.643647 0 0 0 23.576,-23.64399 23.643684,23.643647 0 0 0 -23.644,-23.644 23.643684,23.643647 0 0 0 -0.07,0 z" />
  </g>
</svg>
