<?xml version="1.0" encoding="UTF-8" standalone="no"?>
<svg
   xmlns:dc="http://purl.org/dc/elements/1.1/"
   xmlns:cc="http://creativecommons.org/ns#"
   xmlns:rdf="http://www.w3.org/1999/02/22-rdf-syntax-ns#"
   xmlns:svg="http://www.w3.org/2000/svg"
   xmlns="http://www.w3.org/2000/svg"
   xmlns:sodipodi="http://sodipodi.sourceforge.net/DTD/sodipodi-0.dtd"
   xmlns:inkscape="http://www.inkscape.org/namespaces/inkscape"
   height="1000"
   width="1000"
   sodipodi:docname="ehwaz.svg"
   version="1.1"
   id="svg1621"
   viewBox="0 0 1000 1000"
   inkscape:version="1.0.1 (3bc2e813f5, 2020-09-07)">
  <sodipodi:namedview
     id="base"
     pagecolor="#ffffff"
     bordercolor="#666666"
     borderopacity="1.0"
     inkscape:pageopacity="0.0"
     inkscape:pageshadow="2"
     inkscape:zoom="0.125"
     inkscape:cx="1635.3632"
     inkscape:cy="-1828.9972"
     inkscape:document-units="px"
     inkscape:current-layer="layer1"
     showgrid="false"
     showguides="true"
     inkscape:window-width="1278"
     inkscape:window-height="1438"
     inkscape:window-x="1280"
     inkscape:window-y="0"
     inkscape:window-maximized="1"
     showborder="true"
     inkscape:showpageshadow="false"
     inkscape:document-rotation="0"
     inkscape:snap-bbox="true"
     inkscape:bbox-paths="true"
     inkscape:bbox-nodes="true"
     inkscape:snap-bbox-midpoints="true"
     inkscape:snap-bbox-edge-midpoints="true">
    <sodipodi:guide
       id="guide_baseline"
       inkscape:label="baseline"
       position="0,253"
       orientation="0,1" />
    <sodipodi:guide
       id="guide_ascender"
       inkscape:label="ascender"
       position="0,945"
       orientation="0,1" />
    <sodipodi:guide
       id="guide_caps"
       inkscape:label="caps"
       position="0,896"
       orientation="0,1" />
    <sodipodi:guide
       id="guide_xheight"
       inkscape:label="xheight"
       position="0,729"
       orientation="0,1" />
    <sodipodi:guide
       id="guide_descender"
       inkscape:label="descender"
       position="0,28"
       orientation="0,1" />
  </sodipodi:namedview>
  <defs
     id="defs4">
    <rect
       x="3274.7769"
       y="1324.0826"
       width="2332.5872"
       height="352.08273"
       id="rect882" />
    <rect
       x="3274.7769"
       y="1324.0826"
       width="2332.5872"
       height="352.08273"
       id="rect1554" />
    <rect
       x="-3.4305727"
       y="1447.3522"
       width="10815.264"
       height="562.93915"
       id="rect864" />
    <rect
       x="-3.4305727"
       y="1447.3522"
       width="10815.264"
       height="562.93915"
       id="rect1557" />
  </defs>
  <metadata
     id="metadata7">
    <rdf:RDF>
      <cc:Work
         rdf:about="">
        <dc:format>image/svg+xml</dc:format>
        <dc:type
           rdf:resource="http://purl.org/dc/dcmitype/StillImage" />
        <dc:title />
      </cc:Work>
    </rdf:RDF>
  </metadata>
  <g
     id="layer1"
     inkscape:groupmode="layer"
     inkscape:label="Layer 1">
    <text
       xml:space="preserve"
       id="text862"
       style="font-style:normal;font-weight:normal;font-size:40px;line-height:1.25;font-family:sans-serif;letter-spacing:0px;word-spacing:0px;white-space:pre;shape-inside:url(#rect864);opacity:0.995;fill:#000000;fill-opacity:1;stroke:none;"
       transform="translate(1187.1808,3.7676)" />
    <text
       xml:space="preserve"
       id="text880"
       style="font-style:normal;font-weight:normal;font-size:40px;line-height:1.25;font-family:sans-serif;letter-spacing:0px;word-spacing:0px;white-space:pre;shape-inside:url(#rect882);opacity:0.995;fill:#000000;fill-opacity:1;stroke:none;"
       transform="translate(1187.1808,3.7676)" />
    <path
       id="path1337"
       style="opacity:1;fill:#000000;fill-opacity:1;stroke:none;stroke-width:40;stroke-linecap:square;stroke-linejoin:miter;stroke-miterlimit:4;stroke-dasharray:none;stroke-opacity:1;paint-order:markers stroke fill"
       d="m 123.56871,104.59052 a 23.643668,23.665478 0 0 0 -23.5081,21.90982 23.643668,23.665478 0 0 0 -0.027,0.40588 23.643668,23.665478 0 0 0 -0.033,0.81563 23.643668,23.665478 0 0 0 0,0.33985 23.643668,23.643668 0 0 0 0,0.0676 23.643668,23.665478 0 0 0 0,0.12627 23.643668,23.643668 0 0 0 0,0.28159 v 111.856 76.77933 73.65271 70.63489 73.65471 76.77743 112.13948 a 23.643668,23.665478 0 0 0 23.6421,23.66537 23.643668,23.665478 0 0 0 0.07,0 23.643668,23.665478 0 0 0 23.5741,-23.66537 V 611.89225 535.11482 461.46011 390.82532 317.1726 240.39318 185.36439 l 108.7487,108.74877 a 23.643668,23.643668 0 0 0 0.268,0.2621 23.643668,23.643668 0 0 0 33.121,-0.21357 23.643668,23.643668 0 0 0 0.049,-0.0487 23.643668,23.643668 0 0 0 1.2293,-1.32839 l 107.4651,-107.46702 v 35.88256 19.06858 54.51812 22.18942 48.37944 25.20536 48.37935 22.19141 54.51613 19.06868 76.70743 16.26055 a 23.643668,23.643632 0 0 0 23.5741,23.6439 23.643668,23.643632 0 0 0 0.068,0 23.643668,23.643632 0 0 0 0.072,0 23.643668,23.643632 0 0 0 23.5779,-23.6439 V 534.7166 515.64792 461.13179 438.94038 390.56103 365.35567 316.97623 294.78681 240.26869 128.48657 a 23.643668,23.643668 0 0 0 0,-0.25444 23.643668,23.643632 0 0 0 0,-0.15342 23.643668,23.643668 0 0 0 0,-0.0855 23.643668,23.643632 0 0 0 0,-0.22919 23.643668,23.643668 0 0 0 -0.025,-0.72436 23.643668,23.643632 0 0 0 0,-0.0696 23.643668,23.643668 0 0 0 -0.053,-0.74374 23.643668,23.643632 0 0 0 -0.016,-0.18256 23.643668,23.643668 0 0 0 -0.012,-0.11077 23.643668,23.643632 0 0 0 -0.018,-0.18832 23.643668,23.643668 0 0 0 -0.072,-0.5943 23.643668,23.643632 0 0 0 -0.1069,-0.72435 23.643668,23.643668 0 0 0 -0.037,-0.22133 23.643668,23.643632 0 0 0 -0.01,-0.0547 23.643668,23.643668 0 0 0 -0.062,-0.34761 23.643668,23.643632 0 0 0 -0.016,-0.0716 23.643668,23.643668 0 0 0 -0.1514,-0.72635 23.643668,23.643632 0 0 0 -0.041,-0.17678 23.643668,23.643668 0 0 0 -0.02,-0.0815 23.643668,23.643632 0 0 0 -0.078,-0.3146 23.643668,23.643668 0 0 0 -0.057,-0.21745 23.643668,23.643632 0 0 0 0,-0.0179 23.643668,23.643668 0 0 0 -0.1029,-0.37674 23.643668,23.643632 0 0 0 -0.051,-0.17669 23.643668,23.643668 0 0 0 -0.065,-0.21557 23.643668,23.643632 0 0 0 -0.01,-0.0229 23.643668,23.643668 0 0 0 -0.1127,-0.36511 23.643668,23.643632 0 0 0 -0.012,-0.0328 23.643668,23.643668 0 0 0 -0.2505,-0.73997 23.643668,23.643632 0 0 0 -0.062,-0.17082 23.643668,23.643668 0 0 0 -0.012,-0.0308 23.643668,23.643632 0 0 0 -0.132,-0.35159 23.643668,23.643668 0 0 0 -0.082,-0.2097 23.643668,23.643632 0 0 0 -0.068,-0.16894 23.643668,23.643668 0 0 0 -0.086,-0.20781 23.643668,23.643632 0 0 0 -0.072,-0.16893 23.643668,23.643668 0 0 0 -0.089,-0.20592 23.643668,23.643632 0 0 0 -0.074,-0.16695 23.643668,23.643668 0 0 0 -0.093,-0.20592 23.643668,23.643632 0 0 0 -0.019,-0.0427 23.643668,23.643668 0 0 0 -0.1534,-0.32624 23.643668,23.643632 0 0 0 -0.079,-0.16505 23.643668,23.643668 0 0 0 -0.043,-0.0875 23.643668,23.643632 0 0 0 -0.1398,-0.27572 23.643668,23.643668 0 0 0 -0.1029,-0.20006 23.643668,23.643632 0 0 0 -0.027,-0.0507 23.643668,23.643668 0 0 0 -0.5671,-1.01956 23.643668,23.643632 0 0 0 -0.012,-0.0199 23.643668,23.643668 0 0 0 -0.1981,-0.32822 23.643668,23.643632 0 0 0 -0.097,-0.1573 23.643668,23.643668 0 0 0 -0.1186,-0.18832 23.643668,23.643632 0 0 0 -0.023,-0.0348 23.643668,23.643668 0 0 0 -0.4273,-0.64481 23.643668,23.643632 0 0 0 -0.031,-0.0428 23.643668,23.643668 0 0 0 -0.2039,-0.29123 23.643668,23.643632 0 0 0 -0.1068,-0.14955 23.643668,23.643668 0 0 0 -0.1321,-0.18066 23.643668,23.643632 0 0 0 -0.021,-0.0288 23.643668,23.643668 0 0 0 -0.2233,-0.2971 23.643668,23.643632 0 0 0 -0.037,-0.0467 23.643668,23.643668 0 0 0 -0.2155,-0.27383 23.643668,23.643632 0 0 0 -0.1146,-0.14368 23.643668,23.643668 0 0 0 -0.1418,-0.1748 23.643668,23.643632 0 0 0 -0.3806,-0.45052 23.643668,23.643668 0 0 0 -0.1476,-0.16894 23.643668,23.643632 0 0 0 -0.1224,-0.13791 23.643668,23.643668 0 0 0 -0.1495,-0.16505 23.643668,23.643632 0 0 0 -0.031,-0.0328 23.643668,23.643668 0 0 0 -0.2467,-0.26608 23.643668,23.643632 0 0 0 -0.01,-0.01 23.643668,23.643668 0 0 0 -0.2777,-0.28935 23.643668,23.643632 0 0 0 -0.1281,-0.13015 23.643668,23.643668 0 0 0 -0.049,-0.0467 23.643668,23.643668 0 0 0 -0.1106,-0.11066 23.643668,23.643632 0 0 0 -0.2078,-0.20195 23.643668,23.643668 0 0 0 -0.085,-0.0815 23.643668,23.643668 0 0 0 -0.2933,-0.27582 23.643668,23.643632 0 0 0 -0.8292,-0.73022 23.643668,23.643668 0 0 0 -0.091,-0.0756 23.643668,23.643632 0 0 0 -0.2233,-0.18256 23.643668,23.643668 0 0 0 -0.093,-0.0736 23.643668,23.643632 0 0 0 -0.2272,-0.18056 23.643668,23.643668 0 0 0 -0.093,-0.0716 23.643668,23.643632 0 0 0 -0.2292,-0.1748 23.643668,23.643668 0 0 0 -0.095,-0.0716 23.643668,23.643632 0 0 0 -0.5652,-0.40777 23.643668,23.643668 0 0 0 -0.097,-0.0676 23.643668,23.643632 0 0 0 -0.2389,-0.16317 23.643668,23.643668 0 0 0 -0.01,-0.01 23.643668,23.643632 0 0 0 -0.3302,-0.21746 23.643668,23.643668 0 0 0 -0.099,-0.0636 23.643668,23.643632 0 0 0 -0.9418,-0.5768 23.643668,23.643668 0 0 0 -0.4584,-0.25832 23.643668,23.643632 0 0 0 -0.2543,-0.13792 23.643668,23.643668 0 0 0 -0.1049,-0.0567 23.643668,23.643632 0 0 0 -0.1,-0.0507 23.643668,23.643668 0 0 0 -0.9963,-0.49129 23.643668,23.643632 0 0 0 -0.2641,-0.12041 23.643668,23.643668 0 0 0 -0.01,0 23.643668,23.643632 0 0 0 -0.367,-0.16118 23.643668,23.643668 0 0 0 -0.1088,-0.0467 23.643668,23.643632 0 0 0 -0.2679,-0.11067 23.643668,23.643668 0 0 0 -0.1088,-0.0447 23.643668,23.643632 0 0 0 -0.27,-0.10679 23.643668,23.643668 0 0 0 -0.1106,-0.0428 23.643668,23.643632 0 0 0 -0.2719,-0.10102 23.643668,23.643668 0 0 0 -0.1108,-0.0408 23.643668,23.643632 0 0 0 -0.2718,-0.0975 23.643668,23.643668 0 0 0 -0.1127,-0.0388 23.643668,23.643632 0 0 0 -0.2738,-0.0915 23.643668,23.643668 0 0 0 -0.1125,-0.0368 23.643668,23.643632 0 0 0 -0.2759,-0.0875 23.643668,23.643668 0 0 0 -0.1126,-0.0348 23.643668,23.643632 0 0 0 -0.2777,-0.0835 23.643668,23.643668 0 0 0 -0.1126,-0.0328 23.643668,23.643632 0 0 0 -0.2797,-0.0776 23.643668,23.643668 0 0 0 -0.1145,-0.0308 23.643668,23.643632 0 0 0 -0.2797,-0.0716 23.643668,23.643668 0 0 0 -0.1146,-0.0288 23.643668,23.643632 0 0 0 -0.2816,-0.0676 23.643668,23.643668 0 0 0 -0.1146,-0.0268 23.643668,23.643632 0 0 0 -0.2835,-0.0636 23.643668,23.643668 0 0 0 -0.031,-0.01 23.643668,23.643632 0 0 0 -0.767,-0.15342 23.643668,23.643668 0 0 0 -0.1166,-0.0219 23.643668,23.643632 0 0 0 -0.2854,-0.0487 23.643668,23.643668 0 0 0 -0.02,0 23.643668,23.643632 0 0 0 -0.7884,-0.11653 23.643668,23.643668 0 0 0 -0.01,0 23.643668,23.643632 0 0 0 -0.6506,-0.0736 23.643668,23.643668 0 0 0 -1.8955,-0.11454 23.643668,23.643632 0 0 0 -0.053,0 23.643668,23.643668 0 0 0 -0.8272,0 23.643668,23.643632 0 0 0 -0.086,0 23.643668,23.643668 0 0 0 -0.7729,0.0268 23.643668,23.643632 0 0 0 -0.021,0 23.643668,23.643668 0 0 0 -0.3146,0.0189 23.643668,23.643632 0 0 0 -0.2078,0.0139 23.643668,23.643668 0 0 0 -0.068,0.01 23.643668,23.643632 0 0 0 -0.336,0.0288 23.643668,23.643668 0 0 0 -0.1864,0.0199 23.643668,23.643632 0 0 0 -0.1632,0.0159 23.643668,23.643668 0 0 0 -0.1418,0.0159 23.643668,23.643632 0 0 0 -1.1496,0.16118 23.643668,23.643668 0 0 0 -0.043,0.01 23.643668,23.643632 0 0 0 -0.3806,0.0656 23.643668,23.643668 0 0 0 -0.1126,0.0219 23.643668,23.643632 0 0 0 -0.2428,0.0487 23.643668,23.643668 0 0 0 -0.061,0.0119 23.643668,23.643632 0 0 0 -12.3007,6.72909 l -132.117,132.11696 -131.5325,-131.53051 a 23.643668,23.665478 0 0 0 -17.5305,-7.78555 23.643668,23.665478 0 0 0 -0.068,0 z m 298.2037,595.2402 a 23.643668,23.643632 0 0 0 -23.6071,23.64211 23.643668,23.643632 0 0 0 23.576,23.64399 23.643668,23.643632 0 0 0 0.068,0 23.643668,23.643632 0 0 0 23.644,-23.64399 23.643668,23.643632 0 0 0 -23.5741,-23.64211 23.643668,23.643632 0 0 0 -0.07,0 23.643668,23.643632 0 0 0 -0.037,0 z" />
  </g>
</svg>
