<?xml version="1.0" encoding="UTF-8" standalone="no"?>
<svg
   xmlns:dc="http://purl.org/dc/elements/1.1/"
   xmlns:cc="http://creativecommons.org/ns#"
   xmlns:rdf="http://www.w3.org/1999/02/22-rdf-syntax-ns#"
   xmlns:svg="http://www.w3.org/2000/svg"
   xmlns="http://www.w3.org/2000/svg"
   xmlns:sodipodi="http://sodipodi.sourceforge.net/DTD/sodipodi-0.dtd"
   xmlns:inkscape="http://www.inkscape.org/namespaces/inkscape"
   height="1000"
   width="1000"
   sodipodi:docname="gebo.svg"
   version="1.1"
   id="svg1621"
   viewBox="0 0 1000 1000"
   inkscape:version="1.0.1 (3bc2e813f5, 2020-09-07)">
  <sodipodi:namedview
     id="base"
     pagecolor="#ffffff"
     bordercolor="#666666"
     borderopacity="1.0"
     inkscape:pageopacity="0.0"
     inkscape:pageshadow="2"
     inkscape:zoom="0.044194174"
     inkscape:cx="4955.6932"
     inkscape:cy="-3153.2533"
     inkscape:document-units="px"
     inkscape:current-layer="layer1"
     showgrid="false"
     showguides="true"
     inkscape:window-width="1278"
     inkscape:window-height="1438"
     inkscape:window-x="1280"
     inkscape:window-y="0"
     inkscape:window-maximized="1"
     showborder="true"
     inkscape:showpageshadow="false"
     inkscape:document-rotation="0"
     inkscape:snap-bbox="true"
     inkscape:bbox-paths="true"
     inkscape:bbox-nodes="true"
     inkscape:snap-bbox-midpoints="true"
     inkscape:snap-bbox-edge-midpoints="true">
    <sodipodi:guide
       id="guide_baseline"
       inkscape:label="baseline"
       position="0,253"
       orientation="0,1" />
    <sodipodi:guide
       id="guide_ascender"
       inkscape:label="ascender"
       position="0,945"
       orientation="0,1" />
    <sodipodi:guide
       id="guide_caps"
       inkscape:label="caps"
       position="0,896"
       orientation="0,1" />
    <sodipodi:guide
       id="guide_xheight"
       inkscape:label="xheight"
       position="0,729"
       orientation="0,1" />
    <sodipodi:guide
       id="guide_descender"
       inkscape:label="descender"
       position="0,28"
       orientation="0,1" />
  </sodipodi:namedview>
  <defs
     id="defs4">
    <rect
       x="3274.7769"
       y="1324.0826"
       width="2332.5872"
       height="352.08273"
       id="rect882" />
    <rect
       x="3274.7769"
       y="1324.0826"
       width="2332.5872"
       height="352.08273"
       id="rect1554" />
    <rect
       x="-3.4305727"
       y="1447.3522"
       width="10815.264"
       height="562.93915"
       id="rect864" />
    <rect
       x="-3.4305727"
       y="1447.3522"
       width="10815.264"
       height="562.93915"
       id="rect1557" />
  </defs>
  <metadata
     id="metadata7">
    <rdf:RDF>
      <cc:Work
         rdf:about="">
        <dc:format>image/svg+xml</dc:format>
        <dc:type
           rdf:resource="http://purl.org/dc/dcmitype/StillImage" />
        <dc:title />
      </cc:Work>
    </rdf:RDF>
  </metadata>
  <g
     id="layer1"
     inkscape:groupmode="layer"
     inkscape:label="Layer 1">
    <text
       xml:space="preserve"
       id="text862"
       style="font-style:normal;font-weight:normal;font-size:40px;line-height:1.25;font-family:sans-serif;letter-spacing:0px;word-spacing:0px;white-space:pre;shape-inside:url(#rect864);opacity:0.995;fill:#000000;fill-opacity:1;stroke:none;"
       transform="translate(1187.1808,3.7676)" />
    <text
       xml:space="preserve"
       id="text880"
       style="font-style:normal;font-weight:normal;font-size:40px;line-height:1.25;font-family:sans-serif;letter-spacing:0px;word-spacing:0px;white-space:pre;shape-inside:url(#rect882);opacity:0.995;fill:#000000;fill-opacity:1;stroke:none;"
       transform="translate(1187.1808,3.7676)" />
    <path
       id="path2224"
       style="opacity:1;fill:#000000;fill-opacity:1;stroke:none;stroke-width:40;stroke-linecap:square;stroke-linejoin:miter;stroke-miterlimit:4;stroke-dasharray:none;stroke-opacity:1;paint-order:markers stroke fill"
       d="m 285.91393,104.00026 a 23.643632,23.643668 60 0 0 -11.8094,3.13237 23.643632,23.643668 60 0 0 -0.057,0.0348 23.643632,23.643668 60 0 0 -8.6556,32.29956 l 33.9833,58.85848 22.0361,38.16639 38.3527,66.43034 70.6581,122.38753 -70.6581,122.38753 -38.3527,66.42846 -22.0361,38.16828 -33.9833,58.85857 a 23.643668,23.643632 30 0 0 8.5954,32.26457 23.643668,23.643632 30 0 0 0.061,0.0348 23.643668,23.643632 30 0 0 32.2957,-8.65557 l 33.9832,-58.85848 22.036,-38.16828 12.2327,-21.18735 26.1201,-45.24111 4.2899,-7.42819 7.9428,-13.76115 36.7934,-63.72712 7.9856,-13.82906 27.3008,-47.286 36.7933,-63.72712 33.8648,-58.66041 4.486,-7.77004 33.8668,-58.6604 22.036,-38.16629 0.1166,-0.19807 33.8667,-58.66041 a 23.643668,23.643632 30 0 0 -8.6556,-32.29956 23.643668,23.643632 30 0 0 -0.059,-0.0348 23.643668,23.643632 30 0 0 -11.8074,-3.13248 23.643668,23.643632 30 0 0 -20.4299,11.82294 l -33.9833,58.85848 -22.036,38.16639 -38.3528,66.43044 -57.0077,98.74353 -57.0117,-98.74353 -38.3528,-66.43044 -22.036,-38.16639 -33.9832,-58.85848 a 23.643632,23.643668 60 0 0 -20.43,-11.82294 z m 343.4856,595.33137 a 23.643668,23.643632 0 0 0 -23.5761,23.64211 23.643668,23.643632 0 0 0 23.644,23.64399 23.643668,23.643632 0 0 0 0.068,0 23.643668,23.643632 0 0 0 23.576,-23.64399 23.643668,23.643632 0 0 0 -23.644,-23.64211 23.643668,23.643632 0 0 0 -0.068,0 z" />
  </g>
</svg>
