<?xml version="1.0" encoding="UTF-8" standalone="no"?>
<svg
   xmlns:dc="http://purl.org/dc/elements/1.1/"
   xmlns:cc="http://creativecommons.org/ns#"
   xmlns:rdf="http://www.w3.org/1999/02/22-rdf-syntax-ns#"
   xmlns:svg="http://www.w3.org/2000/svg"
   xmlns="http://www.w3.org/2000/svg"
   xmlns:sodipodi="http://sodipodi.sourceforge.net/DTD/sodipodi-0.dtd"
   xmlns:inkscape="http://www.inkscape.org/namespaces/inkscape"
   height="1000"
   width="1000"
   sodipodi:docname="iwaz.svg"
   version="1.1"
   id="svg1621"
   viewBox="0 0 1000 1000"
   inkscape:version="1.0.1 (3bc2e813f5, 2020-09-07)">
  <sodipodi:namedview
     id="base"
     pagecolor="#ffffff"
     bordercolor="#666666"
     borderopacity="1.0"
     inkscape:pageopacity="0.0"
     inkscape:pageshadow="2"
     inkscape:zoom="0.35355339"
     inkscape:cx="280.66498"
     inkscape:cy="-96.329826"
     inkscape:document-units="px"
     inkscape:current-layer="layer1"
     showgrid="false"
     showguides="true"
     inkscape:window-width="1278"
     inkscape:window-height="1438"
     inkscape:window-x="1280"
     inkscape:window-y="0"
     inkscape:window-maximized="1"
     showborder="true"
     inkscape:showpageshadow="false"
     inkscape:document-rotation="0"
     inkscape:snap-bbox="true"
     inkscape:bbox-paths="true"
     inkscape:bbox-nodes="true"
     inkscape:snap-bbox-midpoints="true"
     inkscape:snap-bbox-edge-midpoints="true">
    <sodipodi:guide
       id="guide_baseline"
       inkscape:label="baseline"
       position="0,253"
       orientation="0,1" />
    <sodipodi:guide
       id="guide_ascender"
       inkscape:label="ascender"
       position="0,945"
       orientation="0,1" />
    <sodipodi:guide
       id="guide_caps"
       inkscape:label="caps"
       position="0,896"
       orientation="0,1" />
    <sodipodi:guide
       id="guide_xheight"
       inkscape:label="xheight"
       position="0,729"
       orientation="0,1" />
    <sodipodi:guide
       id="guide_descender"
       inkscape:label="descender"
       position="0,28"
       orientation="0,1" />
  </sodipodi:namedview>
  <defs
     id="defs4">
    <rect
       x="3274.7769"
       y="1324.0826"
       width="2332.5872"
       height="352.08273"
       id="rect882" />
    <rect
       x="3274.7769"
       y="1324.0826"
       width="2332.5872"
       height="352.08273"
       id="rect1554" />
    <rect
       x="-3.4305727"
       y="1447.3522"
       width="10815.264"
       height="562.93915"
       id="rect864" />
    <rect
       x="-3.4305727"
       y="1447.3522"
       width="10815.264"
       height="562.93915"
       id="rect1557" />
  </defs>
  <metadata
     id="metadata7">
    <rdf:RDF>
      <cc:Work
         rdf:about="">
        <dc:format>image/svg+xml</dc:format>
        <dc:type
           rdf:resource="http://purl.org/dc/dcmitype/StillImage" />
        <dc:title />
      </cc:Work>
    </rdf:RDF>
  </metadata>
  <g
     id="layer1"
     inkscape:groupmode="layer"
     inkscape:label="Layer 1">
    <text
       xml:space="preserve"
       id="text862"
       style="font-style:normal;font-weight:normal;font-size:40px;line-height:1.25;font-family:sans-serif;letter-spacing:0px;word-spacing:0px;white-space:pre;shape-inside:url(#rect864);opacity:0.995;fill:#000000;fill-opacity:1;stroke:none;"
       transform="translate(1187.1808,3.7676)" />
    <text
       xml:space="preserve"
       id="text880"
       style="font-style:normal;font-weight:normal;font-size:40px;line-height:1.25;font-family:sans-serif;letter-spacing:0px;word-spacing:0px;white-space:pre;shape-inside:url(#rect882);opacity:0.995;fill:#000000;fill-opacity:1;stroke:none;"
       transform="translate(1187.1808,3.7676)" />
    <path
       id="path1679"
       style="opacity:1;fill:#000000;fill-opacity:1;stroke:none;stroke-width:35.0001;stroke-linecap:square;paint-order:markers stroke fill"
       d="m 382.69827,103.89221 a 23.643668,23.665478 0 0 0 -23.5761,23.66736 v 112.13759 76.77933 73.65271 70.63489 73.65471 76.77743 55.07732 L 250.37337,557.52676 a 23.643668,23.643668 0 0 0 -16.6838,-6.92517 v 0 a 23.643668,23.643668 0 0 0 -16.7498,6.92517 23.643668,23.643668 0 0 0 -0.051,0.0507 23.643668,23.643668 0 0 0 0.051,33.38903 l 149.1096,149.10961 a 23.643668,23.643668 0 0 0 3.2645,2.72073 23.643668,23.643668 0 0 0 0.6777,0.45251 23.643668,23.643668 0 0 0 0.6933,0.42915 23.643668,23.643668 0 0 0 1.4294,0.78461 23.643668,23.643668 0 0 0 0.367,0.18056 23.643668,23.643668 0 0 0 0.3671,0.1748 23.643668,23.643668 0 0 0 0.7457,0.32822 23.643668,23.643668 0 0 0 0.3767,0.15532 23.643668,23.643668 0 0 0 0.3146,0.1224 23.643668,23.665478 0 0 0 0.1223,0.0487 23.643668,23.643668 0 0 0 0.3264,0.12041 23.643668,23.643668 0 0 0 0.767,0.2621 23.643668,23.665478 0 0 0 0.012,0 23.643668,23.643668 0 0 0 0.3806,0.11852 23.643668,23.643668 0 0 0 0.3652,0.10868 23.643668,23.665478 0 0 0 0.055,0.0159 23.643668,23.643668 0 0 0 0.3069,0.0855 23.643668,23.665478 0 0 0 0.1243,0.0328 23.643668,23.643668 0 0 0 0.3282,0.0835 23.643668,23.643668 0 0 0 0.3962,0.0955 23.643668,23.643668 0 0 0 0.398,0.0875 23.643668,23.643668 0 0 0 0.305,0.0616 23.643668,23.665478 0 0 0 0.2097,0.0408 23.643668,23.643668 0 0 0 0.2292,0.0427 23.643668,23.665478 0 0 0 0.081,0.0139 23.643668,23.643668 0 0 0 0.3419,0.0587 23.643668,23.665478 0 0 0 0.072,0.0119 23.643668,23.643668 0 0 0 0.3224,0.0487 23.643668,23.665478 0 0 0 0.09,0.0119 23.643668,23.643668 0 0 0 0.3592,0.0467 23.643668,23.643668 0 0 0 0.4059,0.0467 23.643668,23.643668 0 0 0 0.2991,0.0308 23.643668,23.665478 0 0 0 0.2661,0.0219 23.643668,23.643668 0 0 0 0.1165,0.01 23.643668,23.665478 0 0 0 0.1961,0.0139 23.643668,23.643668 0 0 0 0.2622,0.0159 23.643668,23.665478 0 0 0 0.2388,0.0139 23.643668,23.643668 0 0 0 0.039,0 23.643668,23.665478 0 0 0 0.019,0 23.643668,23.665478 0 0 0 0.3768,0.0159 23.643668,23.665478 0 0 0 0.023,0 23.643668,23.665478 0 0 0 0.3923,0.01 23.643668,23.665478 0 0 0 0.012,0 23.643668,23.643668 0 0 0 0.3341,0 23.643668,23.643668 0 0 0 0.3223,-0.01 23.643668,23.643668 0 0 0 0.064,0 23.643668,23.665478 0 0 0 0.086,0 23.643668,23.643668 0 0 0 0.3223,-0.01 23.643668,23.643668 0 0 0 0.2661,-0.0119 23.643668,23.665478 0 0 0 0.2272,-0.0119 23.643668,23.665478 0 0 0 0.4059,-0.0268 23.643668,23.643668 0 0 0 0.3224,-0.0249 23.643668,23.665478 0 0 0 0.264,-0.0269 23.643668,23.643668 0 0 0 0.1399,-0.0139 23.643668,23.665478 0 0 0 0.086,-0.01 23.643668,23.643668 0 0 0 0.021,0 23.643668,23.665478 0 0 0 0.3845,-0.0467 23.643668,23.643668 0 0 0 0.3185,-0.0428 23.643668,23.665478 0 0 0 0.086,-0.0119 23.643668,23.643668 0 0 0 0.3185,-0.0487 23.643668,23.665478 0 0 0 0.084,-0.0139 23.643668,23.643668 0 0 0 0.3185,-0.0547 23.643668,23.665478 0 0 0 0.084,-0.0159 23.643668,23.665478 0 0 0 0.4019,-0.0756 23.643668,23.643668 0 0 0 0.3147,-0.0636 23.643668,23.665478 0 0 0 0.017,0 23.643668,23.643668 0 0 0 0.3788,-0.0855 23.643668,23.665478 0 0 0 0.086,-0.0199 23.643668,23.643668 0 0 0 0.3127,-0.0756 23.643668,23.643668 0 0 0 0.2835,-0.0716 23.643668,23.643668 0 0 0 0.1107,-0.0288 23.643668,23.665478 0 0 0 0.083,-0.0229 23.643668,23.643668 0 0 0 0.3088,-0.0855 23.643668,23.665478 0 0 0 0.01,0 23.643668,23.643668 0 0 0 0.3826,-0.11455 23.643668,23.665478 0 0 0 0.084,-0.0249 23.643668,23.643668 0 0 0 0.3068,-0.0974 23.643668,23.643668 0 0 0 0.2602,-0.0875 23.643668,23.643668 0 0 0 0.1262,-0.0408 23.643668,23.665478 0 0 0 0.081,-0.0288 23.643668,23.643668 0 0 0 0.3029,-0.10679 23.643668,23.665478 0 0 0 0.012,0 23.643668,23.643668 0 0 0 0.7496,-0.28745 23.643668,23.643668 0 0 0 0.3768,-0.15531 23.643668,23.643668 0 0 0 0.7243,-0.32047 23.643668,23.643668 0 0 0 0.021,-0.01 23.643668,23.665478 0 0 0 0.08,-0.0368 23.643668,23.643668 0 0 0 0.2873,-0.13791 23.643668,23.643668 0 0 0 1.443,-0.76125 23.643668,23.643668 0 0 0 4.9191,-3.74805 23.643668,23.643668 0 0 0 0.049,-0.0487 23.643668,23.643668 0 0 0 6.8398,-14.72633 23.643668,23.643668 0 0 0 0.031,-0.40587 23.643668,23.643668 0 0 0 0.041,-0.79814 23.643668,23.643668 0 0 0 0,-0.0179 23.643668,23.665478 0 0 0 0,-0.0159 23.643668,23.643668 0 0 0 0.01,-0.39226 23.643668,23.643668 0 0 0 0,-0.3845 23.643668,23.643668 0 0 0 0,-0.20204 V 611.20319 534.42576 460.77105 390.13616 316.48345 239.70412 127.56653 a 23.643668,23.665478 0 0 0 -23.644,-23.66736 23.643668,23.665478 0 0 0 -0.068,0 z m 149.0785,149.1116 a 23.643668,23.643632 0 0 0 -23.576,23.644 23.643668,23.643632 0 0 0 23.644,23.64399 23.643668,23.643632 0 0 0 0.068,0 23.643668,23.643632 0 0 0 23.5761,-23.64399 23.643668,23.643632 0 0 0 -23.644,-23.644 23.643668,23.643632 0 0 0 -0.068,0 z" />
  </g>
</svg>
