<?xml version="1.0" encoding="UTF-8" standalone="no"?>
<svg
   xmlns:dc="http://purl.org/dc/elements/1.1/"
   xmlns:cc="http://creativecommons.org/ns#"
   xmlns:rdf="http://www.w3.org/1999/02/22-rdf-syntax-ns#"
   xmlns:svg="http://www.w3.org/2000/svg"
   xmlns="http://www.w3.org/2000/svg"
   xmlns:sodipodi="http://sodipodi.sourceforge.net/DTD/sodipodi-0.dtd"
   xmlns:inkscape="http://www.inkscape.org/namespaces/inkscape"
   height="1000"
   width="1000"
   sodipodi:docname="kauna.svg"
   version="1.1"
   id="svg1621"
   viewBox="0 0 1000 1000"
   inkscape:version="1.0.1 (3bc2e813f5, 2020-09-07)">
  <sodipodi:namedview
     id="base"
     pagecolor="#ffffff"
     bordercolor="#666666"
     borderopacity="1.0"
     inkscape:pageopacity="0.0"
     inkscape:pageshadow="2"
     inkscape:zoom="0.044194174"
     inkscape:cx="3712.2138"
     inkscape:cy="814.50997"
     inkscape:document-units="px"
     inkscape:current-layer="layer1"
     showgrid="false"
     showguides="true"
     inkscape:window-width="1278"
     inkscape:window-height="1438"
     inkscape:window-x="1280"
     inkscape:window-y="0"
     inkscape:window-maximized="1"
     showborder="true"
     inkscape:showpageshadow="false"
     inkscape:document-rotation="0"
     inkscape:snap-bbox="true"
     inkscape:bbox-paths="true"
     inkscape:bbox-nodes="true"
     inkscape:snap-bbox-midpoints="true"
     inkscape:snap-bbox-edge-midpoints="true">
    <sodipodi:guide
       id="guide_baseline"
       inkscape:label="baseline"
       position="0,253"
       orientation="0,1" />
    <sodipodi:guide
       id="guide_ascender"
       inkscape:label="ascender"
       position="0,945"
       orientation="0,1" />
    <sodipodi:guide
       id="guide_caps"
       inkscape:label="caps"
       position="0,896"
       orientation="0,1" />
    <sodipodi:guide
       id="guide_xheight"
       inkscape:label="xheight"
       position="0,729"
       orientation="0,1" />
    <sodipodi:guide
       id="guide_descender"
       inkscape:label="descender"
       position="0,28"
       orientation="0,1" />
  </sodipodi:namedview>
  <defs
     id="defs4">
    <rect
       x="3274.7769"
       y="1324.0826"
       width="2332.5872"
       height="352.08273"
       id="rect882" />
    <rect
       x="3274.7769"
       y="1324.0826"
       width="2332.5872"
       height="352.08273"
       id="rect1554" />
    <rect
       x="-3.4305727"
       y="1447.3522"
       width="10815.264"
       height="562.93915"
       id="rect864" />
    <rect
       x="-3.4305727"
       y="1447.3522"
       width="10815.264"
       height="562.93915"
       id="rect1557" />
  </defs>
  <metadata
     id="metadata7">
    <rdf:RDF>
      <cc:Work
         rdf:about="">
        <dc:format>image/svg+xml</dc:format>
        <dc:type
           rdf:resource="http://purl.org/dc/dcmitype/StillImage" />
        <dc:title />
      </cc:Work>
    </rdf:RDF>
  </metadata>
  <g
     id="layer1"
     inkscape:groupmode="layer"
     inkscape:label="Layer 1">
    <text
       xml:space="preserve"
       id="text862"
       style="font-style:normal;font-weight:normal;font-size:40px;line-height:1.25;font-family:sans-serif;letter-spacing:0px;word-spacing:0px;white-space:pre;shape-inside:url(#rect864);opacity:0.995;fill:#000000;fill-opacity:1;stroke:none;"
       transform="translate(1187.1808,3.7676)" />
    <text
       xml:space="preserve"
       id="text880"
       style="font-style:normal;font-weight:normal;font-size:40px;line-height:1.25;font-family:sans-serif;letter-spacing:0px;word-spacing:0px;white-space:pre;shape-inside:url(#rect882);opacity:0.995;fill:#000000;fill-opacity:1;stroke:none;"
       transform="translate(1187.1808,3.7676)" />
    <path
       id="path1033"
       style="opacity:1;fill:#000000;fill-opacity:1;stroke:none;stroke-width:35.0001;stroke-linecap:square;stroke-miterlimit:4;stroke-dasharray:none;paint-order:markers stroke fill"
       d="m 485.43825,199.70371 a 23.643668,23.643632 45 0 0 -16.4954,6.92328 l -79.2204,79.22245 -54.2404,54.2404 -52.0343,52.03235 -16.4178,16.41774 a 23.643668,23.643632 45 0 0 -0.049,33.38903 23.643668,23.643632 45 0 0 0.049,0.0487 23.643668,23.643632 45 0 0 33.4376,0 l 16.4178,-16.41784 52.0342,-52.03423 54.2404,-54.24041 79.2205,-79.22046 a 23.643668,23.643632 45 0 0 0.049,-33.38903 v 0 a 23.643668,23.643632 45 0 0 -0.047,-0.0487 23.643668,23.643632 45 0 0 -16.9422,-6.92328 z m 0.1535,404.42396 a 23.643668,23.643632 0 0 0 -23.5741,23.644 23.643668,23.643632 0 0 0 23.644,23.64399 23.643668,23.643632 0 0 0 0.068,0 23.643668,23.643632 0 0 0 23.576,-23.64399 23.643668,23.643632 0 0 0 -23.644,-23.644 23.643668,23.643632 0 0 0 -0.068,0 z" />
  </g>
</svg>
