<?xml version="1.0" encoding="UTF-8" standalone="no"?>
<svg
   xmlns:dc="http://purl.org/dc/elements/1.1/"
   xmlns:cc="http://creativecommons.org/ns#"
   xmlns:rdf="http://www.w3.org/1999/02/22-rdf-syntax-ns#"
   xmlns:svg="http://www.w3.org/2000/svg"
   xmlns="http://www.w3.org/2000/svg"
   xmlns:sodipodi="http://sodipodi.sourceforge.net/DTD/sodipodi-0.dtd"
   xmlns:inkscape="http://www.inkscape.org/namespaces/inkscape"
   height="1000"
   width="1000"
   sodipodi:docname="mannaz.svg"
   version="1.1"
   id="svg1621"
   viewBox="0 0 1000 1000"
   inkscape:version="1.0.1 (3bc2e813f5, 2020-09-07)">
  <sodipodi:namedview
     id="base"
     pagecolor="#ffffff"
     bordercolor="#666666"
     borderopacity="1.0"
     inkscape:pageopacity="0.0"
     inkscape:pageshadow="2"
     inkscape:zoom="0.70710678"
     inkscape:cx="278.34888"
     inkscape:cy="244.5524"
     inkscape:document-units="px"
     inkscape:current-layer="layer1"
     showgrid="false"
     showguides="true"
     inkscape:window-width="1278"
     inkscape:window-height="1438"
     inkscape:window-x="1280"
     inkscape:window-y="0"
     inkscape:window-maximized="1"
     showborder="true"
     inkscape:showpageshadow="false"
     inkscape:document-rotation="0"
     inkscape:snap-bbox="true"
     inkscape:bbox-paths="true"
     inkscape:bbox-nodes="true"
     inkscape:snap-bbox-midpoints="true"
     inkscape:snap-bbox-edge-midpoints="true">
    <sodipodi:guide
       id="guide_baseline"
       inkscape:label="baseline"
       position="0,253"
       orientation="0,1" />
    <sodipodi:guide
       id="guide_ascender"
       inkscape:label="ascender"
       position="0,945"
       orientation="0,1" />
    <sodipodi:guide
       id="guide_caps"
       inkscape:label="caps"
       position="0,896"
       orientation="0,1" />
    <sodipodi:guide
       id="guide_xheight"
       inkscape:label="xheight"
       position="0,729"
       orientation="0,1" />
    <sodipodi:guide
       id="guide_descender"
       inkscape:label="descender"
       position="0,28"
       orientation="0,1" />
  </sodipodi:namedview>
  <defs
     id="defs4">
    <rect
       x="3274.7769"
       y="1324.0826"
       width="2332.5872"
       height="352.08273"
       id="rect882" />
    <rect
       x="3274.7769"
       y="1324.0826"
       width="2332.5872"
       height="352.08273"
       id="rect1554" />
    <rect
       x="-3.4305727"
       y="1447.3522"
       width="10815.264"
       height="562.93915"
       id="rect864" />
    <rect
       x="-3.4305727"
       y="1447.3522"
       width="10815.264"
       height="562.93915"
       id="rect1557" />
  </defs>
  <metadata
     id="metadata7">
    <rdf:RDF>
      <cc:Work
         rdf:about="">
        <dc:format>image/svg+xml</dc:format>
        <dc:type
           rdf:resource="http://purl.org/dc/dcmitype/StillImage" />
        <dc:title />
      </cc:Work>
    </rdf:RDF>
  </metadata>
  <g
     id="layer1"
     inkscape:groupmode="layer"
     inkscape:label="Layer 1">
    <text
       xml:space="preserve"
       id="text862"
       style="font-style:normal;font-weight:normal;font-size:40px;line-height:1.25;font-family:sans-serif;letter-spacing:0px;word-spacing:0px;white-space:pre;shape-inside:url(#rect864);opacity:0.995;fill:#000000;fill-opacity:1;stroke:none;"
       transform="translate(1187.1808,3.7676)" />
    <text
       xml:space="preserve"
       id="text880"
       style="font-style:normal;font-weight:normal;font-size:40px;line-height:1.25;font-family:sans-serif;letter-spacing:0px;word-spacing:0px;white-space:pre;shape-inside:url(#rect882);opacity:0.995;fill:#000000;fill-opacity:1;stroke:none;"
       transform="translate(1187.1808,3.7676)" />
    <path
       id="path1421"
       style="opacity:1;fill:#000000;fill-opacity:1;stroke:none;stroke-width:40;stroke-linecap:square;stroke-linejoin:miter;stroke-miterlimit:4;stroke-dasharray:none;stroke-opacity:1;paint-order:markers stroke fill"
       d="m 223.6232,104.59051 a 23.643668,23.665478 0 0 0 -23.5721,23.47118 23.643668,23.643668 0 0 0 0,0.0676 23.643668,23.665478 0 0 0 0,0.12627 23.643668,23.643668 0 0 0 0,0.28159 v 111.856 76.77932 73.65272 34.17364 a 23.643668,23.643668 0 0 0 0,3.10722 v 33.35403 73.65471 76.77743 112.13948 a 23.643668,23.665478 0 0 0 23.642,23.66537 23.643668,23.665478 0 0 0 0.07,0 23.643668,23.665478 0 0 0 23.5741,-23.66537 V 611.89224 535.11481 461.4601 436.29948 L 372.7038,310.9329 498.2179,436.44505 v 2.49552 22.19141 54.51613 19.06857 76.70754 16.26045 a 23.643668,23.643632 0 0 0 23.5741,23.64399 23.643668,23.643632 0 0 0 0.068,0 23.643668,23.643632 0 0 0 0.072,0 23.643668,23.643632 0 0 0 23.578,-23.64399 V 534.71668 515.64811 461.13198 438.94057 390.56122 365.35576 316.97642 294.787 240.26888 128.48666 a 23.643668,23.643668 0 0 0 0,-0.25434 23.643668,23.643632 0 0 0 0,-0.15343 23.643668,23.643668 0 0 0 0,-0.0855 23.643668,23.643632 0 0 0 0,-0.32235 23.643668,23.643668 0 0 0 0,-0.0487 23.643668,23.643632 0 0 0 -0.012,-0.35935 23.643668,23.643668 0 0 0 -0.01,-0.22332 23.643668,23.643632 0 0 0 0,-0.0636 23.643668,23.643668 0 0 0 -0.053,-0.74962 23.643668,23.643632 0 0 0 -0.016,-0.18255 23.643668,23.643668 0 0 0 -0.012,-0.11067 23.643668,23.643632 0 0 0 -0.018,-0.18842 23.643668,23.643668 0 0 0 -0.074,-0.61369 23.643668,23.643632 0 0 0 -0.043,-0.30286 23.643668,23.643632 0 0 0 -0.062,-0.39813 23.643668,23.643668 0 0 0 -0.037,-0.22143 23.643668,23.643632 0 0 0 -0.01,-0.0547 23.643668,23.643668 0 0 0 -0.062,-0.34761 23.643668,23.643632 0 0 0 -0.035,-0.17867 23.643668,23.643668 0 0 0 -0.045,-0.21945 23.643668,23.643632 0 0 0 -0.039,-0.18056 23.643668,23.643668 0 0 0 -0.049,-0.21945 23.643668,23.643632 0 0 0 -0.016,-0.0636 23.643668,23.643668 0 0 0 -0.078,-0.3321 23.643668,23.643632 0 0 0 -0.045,-0.17868 23.643668,23.643668 0 0 0 -0.1631,-0.60981 23.643668,23.643632 0 0 0 -0.051,-0.17669 23.643668,23.643668 0 0 0 -0.065,-0.21557 23.643668,23.643632 0 0 0 -0.01,-0.0229 23.643668,23.643668 0 0 0 -0.1126,-0.36511 23.643668,23.643632 0 0 0 -0.014,-0.0388 23.643668,23.643668 0 0 0 -0.1147,-0.34959 23.643668,23.643632 0 0 0 0,-0.01 23.643668,23.643668 0 0 0 -0.132,-0.37863 23.643668,23.643632 0 0 0 -0.062,-0.17281 23.643668,23.643668 0 0 0 -0.033,-0.0855 23.643668,23.643632 0 0 0 -0.1108,-0.29521 23.643668,23.643668 0 0 0 -0.082,-0.2098 23.643668,23.643632 0 0 0 -0.068,-0.16894 23.643668,23.643668 0 0 0 -0.085,-0.20781 23.643668,23.643632 0 0 0 -0.072,-0.16893 23.643668,23.643668 0 0 0 -0.09,-0.20582 23.643668,23.643632 0 0 0 -0.074,-0.16705 23.643668,23.643668 0 0 0 -0.01,-0.0119 23.643668,23.643632 0 0 0 -0.1631,-0.35924 23.643668,23.643668 0 0 0 -0.097,-0.20394 23.643668,23.643632 0 0 0 -0.08,-0.16505 23.643668,23.643668 0 0 0 -0.043,-0.0875 23.643668,23.643632 0 0 0 -0.1399,-0.27582 23.643668,23.643668 0 0 0 -0.1029,-0.19996 23.643668,23.643632 0 0 0 -0.027,-0.0507 23.643668,23.643668 0 0 0 -0.567,-1.01956 23.643668,23.643632 0 0 0 -0.012,-0.0199 23.643668,23.643668 0 0 0 -0.198,-0.32822 23.643668,23.643632 0 0 0 -0.097,-0.1573 23.643668,23.643668 0 0 0 -0.1185,-0.18842 23.643668,23.643632 0 0 0 -0.023,-0.0348 23.643668,23.643668 0 0 0 -0.4272,-0.64471 23.643668,23.643632 0 0 0 -0.031,-0.0428 23.643668,23.643668 0 0 0 -0.2039,-0.29133 23.643668,23.643632 0 0 0 -0.1068,-0.14955 23.643668,23.643668 0 0 0 -0.1321,-0.18056 23.643668,23.643632 0 0 0 -0.021,-0.0288 23.643668,23.643668 0 0 0 -0.2234,-0.2971 23.643668,23.643632 0 0 0 -0.037,-0.0467 23.643668,23.643668 0 0 0 -0.2156,-0.27383 23.643668,23.643632 0 0 0 -0.1145,-0.14368 23.643668,23.643668 0 0 0 -0.1418,-0.1748 23.643668,23.643632 0 0 0 -0.3806,-0.45062 23.643668,23.643668 0 0 0 -0.1476,-0.16893 23.643668,23.643632 0 0 0 -0.1224,-0.13782 23.643668,23.643668 0 0 0 -0.031,-0.0328 23.643668,23.643632 0 0 0 -0.2428,-0.26806 23.643668,23.643668 0 0 0 -0.1534,-0.16307 23.643668,23.643632 0 0 0 -0.01,-0.01 23.643668,23.643668 0 0 0 -0.2777,-0.28945 23.643668,23.643632 0 0 0 -0.1282,-0.13005 23.643668,23.643668 0 0 0 -0.049,-0.0467 23.643668,23.643668 0 0 0 -0.1107,-0.11066 23.643668,23.643632 0 0 0 -0.2079,-0.20205 23.643668,23.643668 0 0 0 -0.085,-0.0815 23.643668,23.643668 0 0 0 -0.2932,-0.27572 23.643668,23.643632 0 0 0 -0.8292,-0.73022 23.643668,23.643668 0 0 0 -0.092,-0.0756 23.643668,23.643632 0 0 0 -0.2233,-0.18256 23.643668,23.643668 0 0 0 -0.094,-0.0736 23.643668,23.643632 0 0 0 -0.2272,-0.18056 23.643668,23.643668 0 0 0 -0.094,-0.0716 23.643668,23.643632 0 0 0 -0.2292,-0.1748 23.643668,23.643668 0 0 0 -0.095,-0.0716 23.643668,23.643632 0 0 0 -0.5652,-0.40777 23.643668,23.643668 0 0 0 -0.097,-0.0676 23.643668,23.643632 0 0 0 -0.239,-0.16317 23.643668,23.643668 0 0 0 -0.01,-0.01 23.643668,23.643632 0 0 0 -0.3301,-0.21756 23.643668,23.643668 0 0 0 -0.099,-0.0646 23.643668,23.643632 0 0 0 -0.9419,-0.5767 23.643668,23.643668 0 0 0 -0.4583,-0.25832 23.643668,23.643632 0 0 0 -0.2544,-0.13791 23.643668,23.643668 0 0 0 -0.1049,-0.0567 23.643668,23.643632 0 0 0 -0.099,-0.0507 23.643668,23.643668 0 0 0 -0.2622,-0.13593 23.643668,23.643632 0 0 0 -0.2602,-0.13015 23.643668,23.643668 0 0 0 -0.4739,-0.22521 23.643668,23.643632 0 0 0 -0.2641,-0.12041 23.643668,23.643668 0 0 0 -0.01,0 23.643668,23.643632 0 0 0 -0.3671,-0.16118 23.643668,23.643668 0 0 0 -0.1088,-0.0467 23.643668,23.643632 0 0 0 -0.268,-0.11067 23.643668,23.643668 0 0 0 -0.1088,-0.0448 23.643668,23.643632 0 0 0 -0.2698,-0.10688 23.643668,23.643668 0 0 0 -0.1108,-0.0428 23.643668,23.643632 0 0 0 -0.6544,-0.23883 23.643668,23.643668 0 0 0 -0.018,-0.01 23.643668,23.643632 0 0 0 -0.3689,-0.12428 23.643668,23.643668 0 0 0 -0.1127,-0.0368 23.643668,23.643632 0 0 0 -0.2758,-0.0875 23.643668,23.643668 0 0 0 -0.1127,-0.0348 23.643668,23.643632 0 0 0 -0.2777,-0.0835 23.643668,23.643668 0 0 0 -0.1125,-0.0328 23.643668,23.643632 0 0 0 -0.2797,-0.0775 23.643668,23.643668 0 0 0 -0.1146,-0.0308 23.643668,23.643632 0 0 0 -0.2797,-0.0716 23.643668,23.643668 0 0 0 -0.1145,-0.0288 23.643668,23.643632 0 0 0 -0.2816,-0.0676 23.643668,23.643668 0 0 0 -0.1145,-0.0268 23.643668,23.643632 0 0 0 -0.2836,-0.0636 23.643668,23.643668 0 0 0 -0.031,-0.01 23.643668,23.643632 0 0 0 -0.7672,-0.15342 23.643668,23.643668 0 0 0 -0.1165,-0.0219 23.643668,23.643632 0 0 0 -0.2855,-0.0487 23.643668,23.643668 0 0 0 -0.02,0 23.643668,23.643632 0 0 0 -0.7884,-0.11653 23.643668,23.643668 0 0 0 -0.01,0 23.643668,23.643632 0 0 0 -0.6505,-0.0736 23.643668,23.643668 0 0 0 -1.8954,-0.11455 23.643668,23.643632 0 0 0 -0.053,0 23.643668,23.643668 0 0 0 -0.8253,0 23.643668,23.643632 0 0 0 -0.1379,0 23.643668,23.643668 0 0 0 -0.1359,0 23.643668,23.643632 0 0 0 -0.2972,0.01 23.643668,23.643668 0 0 0 -0.2486,0.0119 23.643668,23.643632 0 0 0 -0.062,0 23.643668,23.643668 0 0 0 -0.3146,0.0189 23.643668,23.643632 0 0 0 -0.2078,0.0139 23.643668,23.643668 0 0 0 -0.068,0.01 23.643668,23.643632 0 0 0 -0.3359,0.0288 23.643668,23.643668 0 0 0 -0.1865,0.0199 23.643668,23.643632 0 0 0 -0.1631,0.0159 23.643668,23.643668 0 0 0 -0.1418,0.0159 23.643668,23.643632 0 0 0 -1.1496,0.16118 23.643668,23.643668 0 0 0 -0.043,0.01 23.643668,23.643632 0 0 0 -0.3806,0.0656 23.643668,23.643668 0 0 0 -0.1127,0.0219 23.643668,23.643632 0 0 0 -0.2427,0.0487 23.643668,23.643668 0 0 0 -0.068,0.0119 23.643668,23.643632 0 0 0 -12.2929,6.72909 L 372.7542,243.90229 241.2218,112.37178 a 23.643668,23.665478 0 0 0 -17.5306,-7.78555 23.643668,23.665478 0 0 0 -0.068,0 z m 274.5927,80.72753 v 35.88256 19.06858 54.51811 22.18942 48.37935 4.2123 l -92.1251,-92.12322 z m -250.8807,0.0467 92.03,92.02995 -92.03,92.03195 v -52.25368 -76.77942 z m 274.4917,515.04483 a 23.643668,23.643632 0 0 0 -23.6071,23.64399 23.643668,23.643632 0 0 0 23.576,23.644 23.643668,23.643632 0 0 0 0.068,0 23.643668,23.643632 0 0 0 23.644,-23.644 23.643668,23.643632 0 0 0 -23.5741,-23.64399 23.643668,23.643632 0 0 0 -0.07,0 23.643668,23.643632 0 0 0 -0.037,0 z" />
  </g>
</svg>
