<?xml version="1.0" encoding="UTF-8" standalone="no"?>
<svg
   xmlns:dc="http://purl.org/dc/elements/1.1/"
   xmlns:cc="http://creativecommons.org/ns#"
   xmlns:rdf="http://www.w3.org/1999/02/22-rdf-syntax-ns#"
   xmlns:svg="http://www.w3.org/2000/svg"
   xmlns="http://www.w3.org/2000/svg"
   xmlns:sodipodi="http://sodipodi.sourceforge.net/DTD/sodipodi-0.dtd"
   xmlns:inkscape="http://www.inkscape.org/namespaces/inkscape"
   height="1000"
   width="1000"
   sodipodi:docname="othalan.svg"
   version="1.1"
   id="svg1621"
   viewBox="0 0 1000 1000"
   inkscape:version="1.0.1 (3bc2e813f5, 2020-09-07)">
  <sodipodi:namedview
     id="base"
     pagecolor="#ffffff"
     bordercolor="#666666"
     borderopacity="1.0"
     inkscape:pageopacity="0.0"
     inkscape:pageshadow="2"
     inkscape:zoom="0.35355339"
     inkscape:cx="1002.7957"
     inkscape:cy="164.23914"
     inkscape:document-units="px"
     inkscape:current-layer="layer1"
     showgrid="false"
     showguides="true"
     inkscape:window-width="1278"
     inkscape:window-height="1438"
     inkscape:window-x="1280"
     inkscape:window-y="0"
     inkscape:window-maximized="1"
     showborder="true"
     inkscape:showpageshadow="false"
     inkscape:document-rotation="0"
     inkscape:snap-bbox="true"
     inkscape:bbox-paths="true"
     inkscape:bbox-nodes="true"
     inkscape:snap-bbox-midpoints="true"
     inkscape:snap-bbox-edge-midpoints="true">
    <sodipodi:guide
       id="guide_baseline"
       inkscape:label="baseline"
       position="0,253"
       orientation="0,1" />
    <sodipodi:guide
       id="guide_ascender"
       inkscape:label="ascender"
       position="0,945"
       orientation="0,1" />
    <sodipodi:guide
       id="guide_caps"
       inkscape:label="caps"
       position="0,896"
       orientation="0,1" />
    <sodipodi:guide
       id="guide_xheight"
       inkscape:label="xheight"
       position="0,729"
       orientation="0,1" />
    <sodipodi:guide
       id="guide_descender"
       inkscape:label="descender"
       position="0,28"
       orientation="0,1" />
  </sodipodi:namedview>
  <defs
     id="defs4">
    <rect
       x="3274.7769"
       y="1324.0826"
       width="2332.5872"
       height="352.08273"
       id="rect882" />
    <rect
       x="3274.7769"
       y="1324.0826"
       width="2332.5872"
       height="352.08273"
       id="rect1554" />
    <rect
       x="-3.4305727"
       y="1447.3522"
       width="10815.264"
       height="562.93915"
       id="rect864" />
    <rect
       x="-3.4305727"
       y="1447.3522"
       width="10815.264"
       height="562.93915"
       id="rect1557" />
  </defs>
  <metadata
     id="metadata7">
    <rdf:RDF>
      <cc:Work
         rdf:about="">
        <dc:format>image/svg+xml</dc:format>
        <dc:type
           rdf:resource="http://purl.org/dc/dcmitype/StillImage" />
        <dc:title />
      </cc:Work>
    </rdf:RDF>
  </metadata>
  <g
     id="layer1"
     inkscape:groupmode="layer"
     inkscape:label="Layer 1">
    <text
       xml:space="preserve"
       id="text862"
       style="font-style:normal;font-weight:normal;font-size:40px;line-height:1.25;font-family:sans-serif;letter-spacing:0px;word-spacing:0px;white-space:pre;shape-inside:url(#rect864);opacity:0.995;fill:#000000;fill-opacity:1;stroke:none;"
       transform="translate(1187.1808,3.7676)" />
    <text
       xml:space="preserve"
       id="text880"
       style="font-style:normal;font-weight:normal;font-size:40px;line-height:1.25;font-family:sans-serif;letter-spacing:0px;word-spacing:0px;white-space:pre;shape-inside:url(#rect882);opacity:0.995;fill:#000000;fill-opacity:1;stroke:none;"
       transform="translate(1187.1808,3.7676)" />
    <path
       id="path1397"
       style="opacity:1;fill:#000000;fill-opacity:1;stroke:none;stroke-width:35.0001;stroke-linecap:square;stroke-miterlimit:4;stroke-dasharray:none;paint-order:markers stroke fill"
       d="m 372.53097,178.78432 a 23.643668,23.643668 0 0 0 -16.495,6.92527 23.643668,23.643668 0 0 0 -0.05,0.0507 l -149.0614,149.061 a 23.643668,23.643668 0 0 0 -6.9233,16.59255 23.643668,23.643668 0 0 0 0,0.1748 23.643668,23.643668 0 0 0 0,0.1748 23.643668,23.643668 0 0 0 6.9233,16.59443 l 132.3924,132.39278 -132.3924,132.39277 a 23.643668,23.643668 0 0 0 -0.049,33.38704 23.643668,23.643668 0 0 0 0.049,0.0487 23.643668,23.643668 0 0 0 33.4394,0 l 149.059,-149.06098 a 23.643668,23.643668 0 0 0 0.05,-0.0507 23.643668,23.643668 0 0 0 0.567,-0.58645 23.643668,23.643668 0 0 0 0.128,-0.13791 23.643668,23.643668 0 0 0 0.148,-0.16317 23.643668,23.643668 0 0 0 0.01,-0.01 23.643668,23.643668 0 0 0 0.406,-0.46215 l 147.777,-147.77545 a 23.643668,23.643668 0 0 0 0.03,-0.0268 23.643668,23.643668 0 0 0 0.05,-0.0487 23.643668,23.643668 0 0 0 0.06,-0.0587 23.643668,23.643668 0 0 0 0.226,-0.23307 23.643668,23.643668 0 0 0 0.214,-0.22332 23.643668,23.643668 0 0 0 0.01,-0.0159 23.643668,23.643668 0 0 0 0.212,-0.23108 23.643668,23.643668 0 0 0 0.05,-0.0547 23.643668,23.643668 0 0 0 0.07,-0.0736 23.643668,23.643668 0 0 0 0.204,-0.23108 23.643668,23.643668 0 0 0 0.245,-0.28358 23.643668,23.643668 0 0 0 0.02,-0.0249 23.643668,23.643668 0 0 0 0.06,-0.0756 23.643668,23.643668 0 0 0 0.196,-0.23884 23.643668,23.643668 0 0 0 0.06,-0.0756 23.643668,23.643668 0 0 0 0.192,-0.24271 23.643668,23.643668 0 0 0 0.249,-0.32246 23.643668,23.643668 0 0 0 0.198,-0.26598 23.643668,23.643668 0 0 0 0.05,-0.0607 23.643668,23.643668 0 0 0 0.06,-0.0795 23.643668,23.643668 0 0 0 0.179,-0.25246 23.643668,23.643668 0 0 0 0.176,-0.25256 23.643668,23.643668 0 0 0 0.06,-0.0815 23.643668,23.643668 0 0 0 0.06,-0.0815 23.643668,23.643668 0 0 0 0.171,-0.25822 23.643668,23.643668 0 0 0 0.06,-0.0835 23.643668,23.643668 0 0 0 0.167,-0.26021 23.643668,23.643668 0 0 0 0.05,-0.0835 23.643668,23.643668 0 0 0 0.161,-0.2622 23.643668,23.643668 0 0 0 0.05,-0.0855 23.643668,23.643668 0 0 0 0.158,-0.26608 23.643668,23.643668 0 0 0 0.05,-0.0855 23.643668,23.643668 0 0 0 0.153,-0.26796 23.643668,23.643668 0 0 0 0.01,-0.0119 23.643668,23.643668 0 0 0 0.149,-0.26995 23.643668,23.643668 0 0 0 0.04,-0.0756 23.643668,23.643668 0 0 0 0.05,-0.0875 23.643668,23.643668 0 0 0 0.145,-0.27383 23.643668,23.643668 0 0 0 0.05,-0.0875 23.643668,23.643668 0 0 0 0.137,-0.27572 23.643668,23.643668 0 0 0 0.05,-0.0895 23.643668,23.643668 0 0 0 0.05,-0.11266 23.643668,23.643668 0 0 0 0.122,-0.25444 23.643668,23.643668 0 0 0 0.13,-0.28159 23.643668,23.643668 0 0 0 0.04,-0.0895 23.643668,23.643668 0 0 0 0.124,-0.28347 23.643668,23.643668 0 0 0 0.04,-0.0895 23.643668,23.643668 0 0 0 0.119,-0.28557 23.643668,23.643668 0 0 0 0.152,-0.37863 23.643668,23.643668 0 0 0 0.141,-0.37287 23.643668,23.643668 0 0 0 0,-0.01 23.643668,23.643668 0 0 0 0.03,-0.0935 23.643668,23.643668 0 0 0 0.04,-0.1049 23.643668,23.643668 0 0 0 0.1,-0.2796 23.643668,23.643668 0 0 0 0.101,-0.29134 23.643668,23.643668 0 0 0 0.03,-0.0935 23.643668,23.643668 0 0 0 0.09,-0.29521 23.643668,23.643668 0 0 0 0.03,-0.0955 23.643668,23.643668 0 0 0 0.09,-0.29521 23.643668,23.643668 0 0 0 0.08,-0.27771 23.643668,23.643668 0 0 0 0.03,-0.11454 23.643668,23.643668 0 0 0 0.03,-0.0955 23.643668,23.643668 0 0 0 0.08,-0.29909 23.643668,23.643668 0 0 0 0.05,-0.21168 23.643668,23.643668 0 0 0 0.07,-0.27573 23.643668,23.643668 0 0 0 0.07,-0.30097 23.643668,23.643668 0 0 0 0.02,-0.0975 23.643668,23.643668 0 0 0 0.06,-0.30107 23.643668,23.643668 0 0 0 0.02,-0.0974 23.643668,23.643668 0 0 0 0.06,-0.30296 23.643668,23.643668 0 0 0 0.02,-0.0974 23.643668,23.643668 0 0 0 0,-0.0249 23.643668,23.643668 0 0 0 0.06,-0.36899 23.643668,23.643668 0 0 0 0,-0.01 23.643668,23.643668 0 0 0 0,-0.0269 23.643668,23.643668 0 0 0 0.06,-0.37674 23.643668,23.643668 0 0 0 0.06,-0.40389 23.643668,23.643668 0 0 0 0.05,-0.40399 23.643668,23.643668 0 0 0 0.03,-0.30873 23.643668,23.643668 0 0 0 0,-0.0269 23.643668,23.643668 0 0 0 0.03,-0.35149 23.643668,23.643668 0 0 0 0,-0.0268 23.643668,23.643668 0 0 0 0.01,-0.0974 23.643668,23.643668 0 0 0 0.02,-0.30883 23.643668,23.643668 0 0 0 0.01,-0.0994 23.643668,23.643668 0 0 0 0.02,-0.30873 23.643668,23.643668 0 0 0 0.01,-0.32047 23.643668,23.643668 0 0 0 0,-0.0875 23.643668,23.643668 0 0 0 0,-0.0974 23.643668,23.643668 0 0 0 0.01,-0.31072 23.643668,23.643668 0 0 0 0,-0.25246 23.643668,23.643668 0 0 0 0,-0.25245 23.643668,23.643668 0 0 0 -0.01,-0.30884 23.643668,23.643668 0 0 0 0,-0.0994 23.643668,23.643668 0 0 0 0,-0.0935 23.643668,23.643668 0 0 0 -0.01,-0.3146 23.643668,23.643668 0 0 0 -0.02,-0.30874 23.643668,23.643668 0 0 0 -0.01,-0.0994 23.643668,23.643668 0 0 0 -0.02,-0.30684 23.643668,23.643668 0 0 0 -0.01,-0.0994 23.643668,23.643668 0 0 0 0,-0.0487 23.643668,23.643668 0 0 0 -0.03,-0.32823 23.643668,23.643668 0 0 0 0,-0.0288 23.643668,23.643668 0 0 0 -0.03,-0.30684 23.643668,23.643668 0 0 0 -0.05,-0.40588 23.643668,23.643668 0 0 0 -0.05,-0.39226 23.643668,23.643668 0 0 0 0,-0.0119 23.643668,23.643668 0 0 0 -0.06,-0.38649 23.643668,23.643668 0 0 0 0,-0.0119 23.643668,23.643668 0 0 0 -0.07,-0.37287 23.643668,23.643668 0 0 0 0,-0.0249 23.643668,23.643668 0 0 0 -0.02,-0.0974 23.643668,23.643668 0 0 0 -0.06,-0.30485 23.643668,23.643668 0 0 0 -0.02,-0.0955 23.643668,23.643668 0 0 0 -0.06,-0.30297 23.643668,23.643668 0 0 0 -0.02,-0.0974 23.643668,23.643668 0 0 0 -0.07,-0.30098 23.643668,23.643668 0 0 0 -0.06,-0.24669 23.643668,23.643668 0 0 0 -0.06,-0.24082 23.643668,23.643668 0 0 0 -0.08,-0.29909 23.643668,23.643668 0 0 0 -0.03,-0.0955 23.643668,23.643668 0 0 0 -0.03,-0.11455 23.643668,23.643668 0 0 0 -0.08,-0.27771 23.643668,23.643668 0 0 0 -0.09,-0.29521 23.643668,23.643668 0 0 0 -0.03,-0.0954 23.643668,23.643668 0 0 0 -0.09,-0.29322 23.643668,23.643668 0 0 0 -0.03,-0.0935 23.643668,23.643668 0 0 0 -0.101,-0.29322 23.643668,23.643668 0 0 0 -0.09,-0.25047 23.643668,23.643668 0 0 0 -0.08,-0.22531 23.643668,23.643668 0 0 0 -0.145,-0.38261 23.643668,23.643668 0 0 0 -0.152,-0.37674 23.643668,23.643668 0 0 0 -0.119,-0.28547 23.643668,23.643668 0 0 0 -0.04,-0.0915 23.643668,23.643668 0 0 0 -0.125,-0.28357 23.643668,23.643668 0 0 0 -0.04,-0.0895 23.643668,23.643668 0 0 0 -0.13,-0.28159 23.643668,23.643668 0 0 0 -0.122,-0.25435 23.643668,23.643668 0 0 0 -0.05,-0.11265 23.643668,23.643668 0 0 0 -0.05,-0.0895 23.643668,23.643668 0 0 0 -0.137,-0.27572 23.643668,23.643668 0 0 0 -0.05,-0.0875 23.643668,23.643668 0 0 0 -0.145,-0.27383 23.643668,23.643668 0 0 0 -0.05,-0.0875 23.643668,23.643668 0 0 0 -0.148,-0.26996 23.643668,23.643668 0 0 0 -0.05,-0.0875 23.643668,23.643668 0 0 0 -0.153,-0.26806 23.643668,23.643668 0 0 0 -0.05,-0.0855 23.643668,23.643668 0 0 0 -0.06,-0.10291 23.643668,23.643668 0 0 0 -0.148,-0.24659 23.643668,23.643668 0 0 0 -0.161,-0.26409 23.643668,23.643668 0 0 0 -0.05,-0.0835 23.643668,23.643668 0 0 0 -0.167,-0.26031 23.643668,23.643668 0 0 0 -0.06,-0.0835 23.643668,23.643668 0 0 0 -0.171,-0.25633 23.643668,23.643668 0 0 0 -0.06,-0.0815 23.643668,23.643668 0 0 0 -0.08,-0.10878 23.643668,23.643668 0 0 0 -0.157,-0.2272 23.643668,23.643668 0 0 0 -0.179,-0.25047 23.643668,23.643668 0 0 0 -0.06,-0.0795 23.643668,23.643668 0 0 0 -0.184,-0.24858 23.643668,23.643668 0 0 0 -0.06,-0.0795 23.643668,23.643668 0 0 0 -0.03,-0.0328 23.643668,23.643668 0 0 0 -0.223,-0.28934 23.643668,23.643668 0 0 0 -0.192,-0.24082 23.643668,23.643668 0 0 0 -0.06,-0.0776 23.643668,23.643668 0 0 0 -0.197,-0.23893 23.643668,23.643668 0 0 0 -0.06,-0.0756 23.643668,23.643668 0 0 0 -0.02,-0.0249 23.643668,23.643668 0 0 0 -0.245,-0.28347 23.643668,23.643668 0 0 0 -0.204,-0.23108 23.643668,23.643668 0 0 0 -0.07,-0.0736 23.643668,23.643668 0 0 0 -0.207,-0.2272 23.643668,23.643668 0 0 0 -0.07,-0.0716 23.643668,23.643668 0 0 0 -0.214,-0.22531 23.643668,23.643668 0 0 0 -0.07,-0.0696 23.643668,23.643668 0 0 0 -0.01,-0.01 23.643668,23.643668 0 0 0 -0.21,-0.21556 23.643668,23.643668 0 0 0 -0.05,-0.0467 l -0.03,-0.0288 a 23.643668,23.643668 0 0 0 -0.1,-0.0955 l -147.695,-147.69758 a 23.643668,23.643668 0 0 0 -1.239,-1.33994 23.643668,23.643668 0 0 0 -0.05,-0.0507 23.643668,23.643668 0 0 0 -16.892,-6.87476 z m 0.172,57.13007 115.674,115.67405 -115.674,115.67395 -115.672,-115.67395 z m 149.042,390.25315 a 23.643668,23.643632 0 0 0 -23.574,23.644 23.643668,23.643632 0 0 0 23.644,23.64201 23.643668,23.643632 0 0 0 0.07,0 23.643668,23.643632 0 0 0 23.577,-23.64201 23.643668,23.643632 0 0 0 -23.644,-23.644 23.643668,23.643632 0 0 0 -0.07,0 z" />
  </g>
</svg>
