<?xml version="1.0" encoding="UTF-8" standalone="no"?>
<svg
   xmlns:dc="http://purl.org/dc/elements/1.1/"
   xmlns:cc="http://creativecommons.org/ns#"
   xmlns:rdf="http://www.w3.org/1999/02/22-rdf-syntax-ns#"
   xmlns:svg="http://www.w3.org/2000/svg"
   xmlns="http://www.w3.org/2000/svg"
   xmlns:sodipodi="http://sodipodi.sourceforge.net/DTD/sodipodi-0.dtd"
   xmlns:inkscape="http://www.inkscape.org/namespaces/inkscape"
   height="1000"
   width="1000"
   sodipodi:docname="pertho.svg"
   version="1.1"
   id="svg1621"
   viewBox="0 0 1000 1000"
   inkscape:version="1.0.1 (3bc2e813f5, 2020-09-07)">
  <sodipodi:namedview
     id="base"
     pagecolor="#ffffff"
     bordercolor="#666666"
     borderopacity="1.0"
     inkscape:pageopacity="0.0"
     inkscape:pageshadow="2"
     inkscape:zoom="0.35355339"
     inkscape:cx="949.31431"
     inkscape:cy="-698.95581"
     inkscape:document-units="px"
     inkscape:current-layer="layer1"
     showgrid="false"
     showguides="true"
     inkscape:window-width="1278"
     inkscape:window-height="1438"
     inkscape:window-x="1280"
     inkscape:window-y="0"
     inkscape:window-maximized="1"
     showborder="true"
     inkscape:showpageshadow="false"
     inkscape:document-rotation="0"
     inkscape:snap-bbox="true"
     inkscape:bbox-paths="true"
     inkscape:bbox-nodes="true"
     inkscape:snap-bbox-midpoints="true"
     inkscape:snap-bbox-edge-midpoints="true">
    <sodipodi:guide
       id="guide_baseline"
       inkscape:label="baseline"
       position="0,253"
       orientation="0,1" />
    <sodipodi:guide
       id="guide_ascender"
       inkscape:label="ascender"
       position="0,945"
       orientation="0,1" />
    <sodipodi:guide
       id="guide_caps"
       inkscape:label="caps"
       position="0,896"
       orientation="0,1" />
    <sodipodi:guide
       id="guide_xheight"
       inkscape:label="xheight"
       position="0,729"
       orientation="0,1" />
    <sodipodi:guide
       id="guide_descender"
       inkscape:label="descender"
       position="0,28"
       orientation="0,1" />
  </sodipodi:namedview>
  <defs
     id="defs4">
    <rect
       x="3274.7769"
       y="1324.0826"
       width="2332.5872"
       height="352.08273"
       id="rect882" />
    <rect
       x="3274.7769"
       y="1324.0826"
       width="2332.5872"
       height="352.08273"
       id="rect1554" />
    <rect
       x="-3.4305727"
       y="1447.3522"
       width="10815.264"
       height="562.93915"
       id="rect864" />
    <rect
       x="-3.4305727"
       y="1447.3522"
       width="10815.264"
       height="562.93915"
       id="rect1557" />
  </defs>
  <metadata
     id="metadata7">
    <rdf:RDF>
      <cc:Work
         rdf:about="">
        <dc:format>image/svg+xml</dc:format>
        <dc:type
           rdf:resource="http://purl.org/dc/dcmitype/StillImage" />
        <dc:title />
      </cc:Work>
    </rdf:RDF>
  </metadata>
  <g
     id="layer1"
     inkscape:groupmode="layer"
     inkscape:label="Layer 1">
    <text
       xml:space="preserve"
       id="text862"
       style="font-style:normal;font-weight:normal;font-size:40px;line-height:1.25;font-family:sans-serif;letter-spacing:0px;word-spacing:0px;white-space:pre;shape-inside:url(#rect864);opacity:0.995;fill:#000000;fill-opacity:1;stroke:none;"
       transform="translate(1187.1808,3.7676)" />
    <text
       xml:space="preserve"
       id="text880"
       style="font-style:normal;font-weight:normal;font-size:40px;line-height:1.25;font-family:sans-serif;letter-spacing:0px;word-spacing:0px;white-space:pre;shape-inside:url(#rect882);opacity:0.995;fill:#000000;fill-opacity:1;stroke:none;"
       transform="translate(1187.1808,3.7676)" />
    <path
       id="path1271"
       style="opacity:1;fill:#000000;fill-opacity:1;stroke:none;stroke-width:35.0001;stroke-linecap:square;stroke-miterlimit:4;stroke-dasharray:none;paint-order:markers stroke fill"
       d="m 297.03334,103.671 a 23.643668,23.665478 0 0 0 -0.086,0 23.643668,23.665478 0 0 0 -0.4078,0.01 23.643668,23.643668 0 0 0 -0.1108,0 23.643668,23.665478 0 0 0 -0.2097,0.01 23.643668,23.643668 0 0 0 -0.088,0 23.643668,23.665478 0 0 0 -0.4078,0.02 23.643668,23.665478 0 0 0 -0.3204,0.021 23.643668,23.643668 0 0 0 -0.01,0 23.643668,23.643668 0 0 0 -0.3128,0.025 23.643668,23.665478 0 0 0 -0.1281,0.012 23.643668,23.643668 0 0 0 -0.1282,0.012 23.643668,23.665478 0 0 0 -0.3107,0.031 23.643668,23.643668 0 0 0 -0.01,0 23.643668,23.665478 0 0 0 -0.035,0 23.643668,23.665478 0 0 0 -0.3632,0.045 23.643668,23.665478 0 0 0 -0.3242,0.043 23.643668,23.643668 0 0 0 -0.3341,0.051 23.643668,23.665478 0 0 0 -0.097,0.014 23.643668,23.643668 0 0 0 -0.235,0.041 23.643668,23.665478 0 0 0 -0.2039,0.035 23.643668,23.643668 0 0 0 -0.068,0.014 23.643668,23.665478 0 0 0 -0.3534,0.066 23.643668,23.665478 0 0 0 -0.4,0.084 23.643668,23.665478 0 0 0 -0.3283,0.074 23.643668,23.643668 0 0 0 -0.2952,0.07 23.643668,23.665478 0 0 0 -0.1106,0.029 23.643668,23.643668 0 0 0 -0.06,0.014 23.643668,23.665478 0 0 0 -0.3088,0.081 23.643668,23.643668 0 0 0 -0.3923,0.1087 23.643668,23.643668 0 0 0 -0.3418,0.1011 23.643668,23.665478 0 0 0 -0.07,0.02 23.643668,23.643668 0 0 0 -0.2758,0.087 23.643668,23.665478 0 0 0 -0.1204,0.039 23.643668,23.643668 0 0 0 -0.057,0.018 23.643668,23.665478 0 0 0 -0.303,0.1029 23.643668,23.643668 0 0 0 -0.3846,0.134 23.643668,23.643668 0 0 0 -0.7244,0.2757 23.643668,23.665478 0 0 0 -0.068,0.029 23.643668,23.643668 0 0 0 -0.051,0.019 23.643668,23.665478 0 0 0 -0.2952,0.1224 23.643668,23.643668 0 0 0 -1.1147,0.5049 23.643668,23.643668 0 0 0 -6.362,4.5113 23.643668,23.643668 0 0 0 -0.047,0.047 23.643668,23.643668 0 0 0 -6.8398,14.7262 23.643668,23.643668 0 0 0 -0.031,0.4059 23.643668,23.643668 0 0 0 -0.022,0.3496 23.643668,23.665478 0 0 0 -0.01,0.1457 23.643668,23.643668 0 0 0 -0.01,0.2796 23.643668,23.665478 0 0 0 0,0.082 23.643668,23.643668 0 0 0 -0.01,0.2098 23.643668,23.665478 0 0 0 0,0.2641 23.643668,23.643668 0 0 0 0,0.2777 23.643668,23.643668 0 0 0 0,0.2019 v 111.9376 76.7794 73.6527 70.6349 73.6527 76.7793 111.9377 0.2019 a 23.643668,23.643668 0 0 0 0,0.4078 23.643668,23.643668 0 0 0 0.01,0.3049 23.643668,23.665478 0 0 0 0.01,0.2059 23.643668,23.643668 0 0 0 0,0.101 23.643668,23.665478 0 0 0 0.01,0.2039 23.643668,23.643668 0 0 0 0.025,0.4059 23.643668,23.643668 0 0 0 0.031,0.4078 23.643668,23.643668 0 0 0 0.039,0.4058 23.643668,23.643668 0 0 0 0.045,0.4059 23.643668,23.643668 0 0 0 0.053,0.404 23.643668,23.643668 0 0 0 6.7019,13.4872 23.643668,23.643668 0 0 0 0.047,0.047 23.643668,23.643668 0 0 0 5.2959,3.9598 23.643668,23.643668 0 0 0 1.0875,0.5612 23.643668,23.643668 0 0 0 1.4914,0.6584 23.643668,23.643668 0 0 0 1.1458,0.4252 23.643668,23.643668 0 0 0 0.3865,0.1282 23.643668,23.643668 0 0 0 0.3903,0.1224 23.643668,23.643668 0 0 0 0.334,0.099 23.643668,23.665478 0 0 0 0.1515,0.043 23.643668,23.643668 0 0 0 0.2971,0.081 23.643668,23.643668 0 0 0 0.3593,0.093 23.643668,23.665478 0 0 0 0.1457,0.035 23.643668,23.643668 0 0 0 0.235,0.057 23.643668,23.665478 0 0 0 0.2252,0.053 23.643668,23.643668 0 0 0 0.169,0.037 23.643668,23.665478 0 0 0 0.2116,0.043 23.643668,23.643668 0 0 0 0.169,0.035 23.643668,23.665478 0 0 0 0.2719,0.053 23.643668,23.643668 0 0 0 0.1514,0.027 23.643668,23.665478 0 0 0 0.1573,0.027 23.643668,23.643668 0 0 0 0.2506,0.043 23.643668,23.665478 0 0 0 0.047,0.01 23.643668,23.643668 0 0 0 0.3438,0.051 23.643668,23.665478 0 0 0 0.2233,0.031 23.643668,23.643668 0 0 0 0.2038,0.027 23.643668,23.665478 0 0 0 0.1204,0.014 23.643668,23.643668 0 0 0 0.272,0.031 23.643668,23.665478 0 0 0 0.2,0.019 23.643668,23.643668 0 0 0 0.2195,0.022 23.643668,23.665478 0 0 0 0.1068,0.01 23.643668,23.643668 0 0 0 0.301,0.025 23.643668,23.665478 0 0 0 0.1281,0.01 23.643668,23.643668 0 0 0 0.2739,0.018 23.643668,23.665478 0 0 0 0.039,0 23.643668,23.643668 0 0 0 0.2971,0.014 23.643668,23.665478 0 0 0 0.3399,0.012 23.643668,23.643668 0 0 0 0.4758,0.01 23.643668,23.665478 0 0 0 0.1554,0 23.643668,23.665478 0 0 0 0.068,0 23.643668,23.665478 0 0 0 0.1359,0 23.643668,23.665478 0 0 0 0.1943,0 23.643668,23.643668 0 0 0 0.1164,0 23.643668,23.643668 0 0 0 0.2895,-0.01 23.643668,23.643668 0 0 0 0.08,0 23.643668,23.665478 0 0 0 0.1826,-0.01 23.643668,23.643668 0 0 0 0.01,0 23.643668,23.665478 0 0 0 0.3535,-0.02 23.643668,23.665478 0 0 0 0.045,0 23.643668,23.643668 0 0 0 0.2661,-0.02 23.643668,23.643668 0 0 0 0.3631,-0.029 23.643668,23.643668 0 0 0 0.3263,-0.031 23.643668,23.665478 0 0 0 0.2622,-0.029 23.643668,23.665478 0 0 0 0.3029,-0.037 23.643668,23.643668 0 0 0 0.2622,-0.035 23.643668,23.643668 0 0 0 0.06,-0.01 23.643668,23.665478 0 0 0 0.1844,-0.027 23.643668,23.643668 0 0 0 0.2196,-0.033 23.643668,23.665478 0 0 0 0.062,-0.01 23.643668,23.643668 0 0 0 0.2991,-0.053 23.643668,23.643668 0 0 0 0.041,-0.01 23.643668,23.665478 0 0 0 0.2506,-0.047 23.643668,23.665478 0 0 0 0.299,-0.059 23.643668,23.665478 0 0 0 0.033,-0.01 23.643668,23.643668 0 0 0 0.2174,-0.045 23.643668,23.665478 0 0 0 0.066,-0.016 23.643668,23.643668 0 0 0 0.2875,-0.064 23.643668,23.643668 0 0 0 0.045,-0.01 23.643668,23.665478 0 0 0 0.1807,-0.043 23.643668,23.643668 0 0 0 0.2156,-0.053 23.643668,23.665478 0 0 0 0.025,-0.01 23.643668,23.643668 0 0 0 0.3689,-0.097 23.643668,23.643668 0 0 0 0.3924,-0.1088 23.643668,23.643668 0 0 0 0.3262,-0.095 23.643668,23.643668 0 0 0 0.066,-0.019 23.643668,23.665478 0 0 0 0.065,-0.02 23.643668,23.643668 0 0 0 0.2408,-0.078 23.643668,23.643668 0 0 0 0.083,-0.025 23.643668,23.665478 0 0 0 0.1768,-0.059 23.643668,23.643668 0 0 0 0.2097,-0.072 23.643668,23.643668 0 0 0 0.2932,-0.1029 23.643668,23.643668 0 0 0 0.092,-0.031 23.643668,23.665478 0 0 0 0.072,-0.027 23.643668,23.643668 0 0 0 0.3107,-0.1165 23.643668,23.665478 0 0 0 0.1728,-0.066 23.643668,23.643668 0 0 0 0.2059,-0.082 23.643668,23.665478 0 0 0 0.1728,-0.07 23.643668,23.643668 0 0 0 0.204,-0.086 23.643668,23.643668 0 0 0 1.1011,-0.4972 23.643668,23.643668 0 0 0 0.014,-0.01 23.643668,23.665478 0 0 0 0.02,-0.01 23.643668,23.643668 0 0 0 6.3892,-4.5481 L 462.93295,590.7296 a 23.643668,23.643668 0 0 0 0.049,-33.3871 23.643668,23.643668 0 0 0 -0.049,-0.051 23.643668,23.643668 0 0 0 -16.7518,-6.9251 23.643668,23.643668 0 0 0 -16.6837,6.9251 L 320.74664,666.0406 V 610.9618 534.1824 460.5297 389.8948 316.242 239.4627 184.3833 l 108.65161,108.6498 a 23.643668,23.643668 0 0 0 0.07,0.072 l 0.029,0.027 a 23.643668,23.643668 0 0 0 0.047,0.049 23.643668,23.643668 0 0 0 0.087,0.085 23.643668,23.643668 0 0 0 0.5788,0.5496 23.643668,23.643668 0 0 0 0.064,0.059 23.643668,23.643668 0 0 0 0.1981,0.1806 23.643668,23.643668 0 0 0 0.2524,0.2214 23.643668,23.643668 0 0 0 0.02,0.018 23.643668,23.643668 0 0 0 0.2641,0.2252 23.643668,23.643668 0 0 0 0.07,0.059 23.643668,23.643668 0 0 0 0.1689,0.1379 23.643668,23.643668 0 0 0 0.1186,0.097 23.643668,23.643668 0 0 0 0.095,0.076 23.643668,23.643668 0 0 0 0.5496,0.4273 23.643668,23.643668 0 0 0 0.2174,0.1612 23.643668,23.643668 0 0 0 0.5244,0.3728 23.643668,23.643668 0 0 0 0.1223,0.084 23.643668,23.643668 0 0 0 0.1632,0.1107 23.643668,23.643668 0 0 0 0.1767,0.1185 23.643668,23.643668 0 0 0 0.2117,0.1378 23.643668,23.643668 0 0 0 0.077,0.049 23.643668,23.643668 0 0 0 0.2409,0.1535 23.643668,23.643668 0 0 0 0.1399,0.086 23.643668,23.643668 0 0 0 0.2194,0.134 23.643668,23.643668 0 0 0 0.1689,0.097 23.643668,23.643668 0 0 0 0.169,0.099 23.643668,23.643668 0 0 0 0.1224,0.068 23.643668,23.643668 0 0 0 0.2718,0.1534 23.643668,23.643668 0 0 0 0.039,0.021 23.643668,23.643668 0 0 0 0.6447,0.3379 23.643668,23.643668 0 0 0 0.1359,0.07 23.643668,23.643668 0 0 0 0.2583,0.1263 23.643668,23.643668 0 0 0 0.087,0.043 23.643668,23.643668 0 0 0 0.2505,0.1184 23.643668,23.643668 0 0 0 0.1787,0.082 23.643668,23.643668 0 0 0 0.2349,0.1049 23.643668,23.643668 0 0 0 0.027,0.014 23.643668,23.643668 0 0 0 0.7243,0.3048 23.643668,23.643668 0 0 0 0.049,0.018 23.643668,23.643668 0 0 0 0.3127,0.1224 23.643668,23.643668 0 0 0 0.1106,0.043 23.643668,23.643668 0 0 0 0.2836,0.1029 23.643668,23.643668 0 0 0 0.045,0.018 23.643668,23.643668 0 0 0 0.3417,0.1205 23.643668,23.643668 0 0 0 0.055,0.02 23.643668,23.643668 0 0 0 0.336,0.1106 23.643668,23.643668 0 0 0 0.014,0 23.643668,23.643668 0 0 0 0.2718,0.086 23.643668,23.643668 0 0 0 0.27,0.081 23.643668,23.643668 0 0 0 0.1942,0.057 23.643668,23.643668 0 0 0 0.1554,0.045 23.643668,23.643668 0 0 0 0.1631,0.045 23.643668,23.643668 0 0 0 0.1185,0.031 23.643668,23.643668 0 0 0 0.3398,0.089 23.643668,23.643668 0 0 0 0.2874,0.068 23.643668,23.643668 0 0 0 0.093,0.023 23.643668,23.643668 0 0 0 0.1261,0.029 23.643668,23.643668 0 0 0 0.2895,0.065 23.643668,23.643668 0 0 0 0.2776,0.057 23.643668,23.643668 0 0 0 0.1126,0.023 23.643668,23.643668 0 0 0 0.091,0.018 23.643668,23.643668 0 0 0 0.7166,0.1263 23.643668,23.643668 0 0 0 0.2777,0.043 23.643668,23.643668 0 0 0 0.09,0.014 23.643668,23.643668 0 0 0 0.1942,0.027 23.643668,23.643668 0 0 0 0.6137,0.074 23.643668,23.643668 0 0 0 0.1903,0.022 23.643668,23.643668 0 0 0 0.5962,0.053 23.643668,23.643668 0 0 0 0.6738,0.041 23.643668,23.643668 0 0 0 1.0351,0.027 23.643668,23.643668 0 0 0 0.041,0 23.643668,23.643668 0 0 0 0.2,0 23.643668,23.643668 0 0 0 0.4953,-0.01 23.643668,23.643668 0 0 0 0.7826,-0.035 23.643668,23.643668 0 0 0 0.031,0 23.643668,23.643668 0 0 0 0.3749,-0.027 23.643668,23.643668 0 0 0 0.033,0 23.643668,23.643668 0 0 0 1.1826,-0.1243 23.643668,23.643668 0 0 0 0.033,0 23.643668,23.643668 0 0 0 1.1749,-0.1864 23.643668,23.643668 0 0 0 0.033,-0.01 23.643668,23.643668 0 0 0 0.369,-0.072 23.643668,23.643668 0 0 0 0.031,-0.01 23.643668,23.643668 0 0 0 1.1613,-0.2661 23.643668,23.643668 0 0 0 0.031,-0.01 23.643668,23.643668 0 0 0 0.7536,-0.2078 23.643668,23.643668 0 0 0 0.031,-0.01 23.643668,23.643668 0 0 0 0.3593,-0.1088 23.643668,23.643668 0 0 0 0.031,-0.01 23.643668,23.643668 0 0 0 0.3574,-0.1145 23.643668,23.643668 0 0 0 0.031,-0.01 23.643668,23.643668 0 0 0 0.738,-0.2602 23.643668,23.643668 0 0 0 0.031,-0.012 23.643668,23.643668 0 0 0 0.7301,-0.2855 23.643668,23.643668 0 0 0 0.029,-0.012 23.643668,23.643668 0 0 0 0.7185,-0.3088 23.643668,23.643668 0 0 0 0.031,-0.014 23.643668,23.643668 0 0 0 0.3398,-0.1573 23.643668,23.643668 0 0 0 0.029,-0.014 23.643668,23.643668 0 0 0 0.3379,-0.1631 23.643668,23.643668 0 0 0 0.029,-0.014 23.643668,23.643668 0 0 0 0.6971,-0.3593 23.643668,23.643668 0 0 0 0.027,-0.016 23.643668,23.643668 0 0 0 0.3301,-0.1806 23.643668,23.643668 0 0 0 0.027,-0.016 23.643668,23.643668 0 0 0 0.6777,-0.3942 23.643668,23.643668 0 0 0 0.027,-0.018 23.643668,23.643668 0 0 0 0.1962,-0.1205 23.643668,23.643668 0 0 0 0.1514,-0.093 23.643668,23.643668 0 0 0 0.6545,-0.4291 23.643668,23.643668 0 0 0 0.027,-0.018 23.643668,23.643668 0 0 0 0.3088,-0.2137 23.643668,23.643668 0 0 0 0.027,-0.019 23.643668,23.643668 0 0 0 0.303,-0.2174 23.643668,23.643668 0 0 0 0.027,-0.019 23.643668,23.643668 0 0 0 0.9438,-0.7283 23.643668,23.643668 0 0 0 0.025,-0.019 23.643668,23.643668 0 0 0 0.2875,-0.2389 23.643668,23.643668 0 0 0 0.025,-0.022 23.643668,23.643668 0 0 0 0.5903,-0.5145 23.643668,23.643668 0 0 0 0.025,-0.021 23.643668,23.643668 0 0 0 0.2758,-0.2545 23.643668,23.643668 0 0 0 0.023,-0.022 23.643668,23.643668 0 0 0 0.2718,-0.2602 23.643668,23.643668 0 0 0 0.024,-0.022 23.643668,23.643668 0 0 0 0.268,-0.2641 23.643668,23.643668 0 0 0 0.049,-0.049 l 149.0631,-149.0611 a 23.643668,23.643668 0 0 0 0.049,-33.389 23.643668,23.643668 0 0 0 -0.049,-0.051 23.643668,23.643668 0 0 0 -16.7519,-6.9233 23.643668,23.643668 0 0 0 -16.6858,6.9233 L 446.21295,242.9711 313.82014,110.5784 a 23.643668,23.643668 0 0 0 -5.3425,-4.0064 23.643668,23.643668 0 0 0 -0.7224,-0.3806 23.643668,23.643668 0 0 0 -0.3651,-0.1807 23.643668,23.643668 0 0 0 -1.4915,-0.6583 23.643668,23.643668 0 0 0 -0.3787,-0.1476 23.643668,23.643668 0 0 0 -0.3826,-0.1418 23.643668,23.643668 0 0 0 -0.3611,-0.1282 23.643668,23.643668 0 0 0 -0.024,-0.01 23.643668,23.665478 0 0 0 -0.029,-0.01 23.643668,23.643668 0 0 0 -0.3574,-0.1184 23.643668,23.643668 0 0 0 -0.3903,-0.1224 23.643668,23.643668 0 0 0 -0.3184,-0.095 23.643668,23.643668 0 0 0 -0.072,-0.022 23.643668,23.665478 0 0 0 -0.057,-0.016 23.643668,23.643668 0 0 0 -0.336,-0.091 23.643668,23.643668 0 0 0 -0.3612,-0.093 23.643668,23.643668 0 0 0 -0.035,-0.01 23.643668,23.665478 0 0 0 -0.1922,-0.047 23.643668,23.643668 0 0 0 -0.2039,-0.049 23.643668,23.665478 0 0 0 -0.055,-0.012 23.643668,23.643668 0 0 0 -0.3438,-0.076 23.643668,23.665478 0 0 0 -0.1942,-0.041 23.643668,23.643668 0 0 0 -0.093,-0.018 23.643668,23.665478 0 0 0 -0.2233,-0.045 23.643668,23.665478 0 0 0 -0.084,-0.016 23.643668,23.643668 0 0 0 -0.1844,-0.033 23.643668,23.665478 0 0 0 -0.031,-0.01 23.643668,23.643668 0 0 0 -0.3108,-0.053 23.643668,23.665478 0 0 0 -0.2777,-0.043 23.643668,23.665478 0 0 0 -0.3009,-0.043 23.643668,23.643668 0 0 0 -0.2486,-0.033 23.643668,23.643668 0 0 0 -0.061,-0.01 23.643668,23.665478 0 0 0 -0.2,-0.023 23.643668,23.643668 0 0 0 -0.2058,-0.023 23.643668,23.665478 0 0 0 -0.037,0 23.643668,23.643668 0 0 0 -0.369,-0.035 23.643668,23.643668 0 0 0 -0.336,-0.027 23.643668,23.643668 0 0 0 -0.07,-0.01 23.643668,23.665478 0 0 0 -0.074,0 23.643668,23.643668 0 0 0 -0.2524,-0.016 23.643668,23.643668 0 0 0 -0.082,-0.01 23.643668,23.665478 0 0 0 -0.2,-0.01 23.643668,23.643668 0 0 0 -0.014,0 23.643668,23.665478 0 0 0 -0.3186,-0.014 23.643668,23.643668 0 0 0 -0.2816,-0.01 23.643668,23.643668 0 0 0 -0.2719,0 23.643668,23.665478 0 0 0 -0.1805,0 23.643668,23.665478 0 0 0 -0.07,0 z m 298.17071,595.2771 a 23.643668,23.643632 0 0 0 -23.576,23.644 23.643668,23.643632 0 0 0 23.644,23.644 23.643668,23.643632 0 0 0 0.07,0 23.643668,23.643632 0 0 0 23.5741,-23.644 23.643668,23.643632 0 0 0 -23.644,-23.644 23.643668,23.643632 0 0 0 -0.068,0 z" />
  </g>
</svg>
