<?xml version="1.0" encoding="UTF-8" standalone="no"?>
<svg
   xmlns:dc="http://purl.org/dc/elements/1.1/"
   xmlns:cc="http://creativecommons.org/ns#"
   xmlns:rdf="http://www.w3.org/1999/02/22-rdf-syntax-ns#"
   xmlns:svg="http://www.w3.org/2000/svg"
   xmlns="http://www.w3.org/2000/svg"
   xmlns:sodipodi="http://sodipodi.sourceforge.net/DTD/sodipodi-0.dtd"
   xmlns:inkscape="http://www.inkscape.org/namespaces/inkscape"
   height="1000"
   width="1000"
   sodipodi:docname="raido.svg"
   version="1.1"
   id="svg1621"
   viewBox="0 0 1000 1000"
   inkscape:version="1.0.1 (3bc2e813f5, 2020-09-07)">
  <sodipodi:namedview
     id="base"
     pagecolor="#ffffff"
     bordercolor="#666666"
     borderopacity="1.0"
     inkscape:pageopacity="0.0"
     inkscape:pageshadow="2"
     inkscape:zoom="0.03125"
     inkscape:cx="3383.1781"
     inkscape:cy="6777.7819"
     inkscape:document-units="px"
     inkscape:current-layer="layer1"
     showgrid="false"
     showguides="true"
     inkscape:window-width="1278"
     inkscape:window-height="1438"
     inkscape:window-x="1280"
     inkscape:window-y="0"
     inkscape:window-maximized="1"
     showborder="true"
     inkscape:showpageshadow="false"
     inkscape:document-rotation="0"
     inkscape:snap-bbox="true"
     inkscape:bbox-paths="true"
     inkscape:bbox-nodes="true"
     inkscape:snap-bbox-midpoints="true"
     inkscape:snap-bbox-edge-midpoints="true">
    <sodipodi:guide
       id="guide_baseline"
       inkscape:label="baseline"
       position="0,253"
       orientation="0,1" />
    <sodipodi:guide
       id="guide_ascender"
       inkscape:label="ascender"
       position="0,945"
       orientation="0,1" />
    <sodipodi:guide
       id="guide_caps"
       inkscape:label="caps"
       position="0,896"
       orientation="0,1" />
    <sodipodi:guide
       id="guide_xheight"
       inkscape:label="xheight"
       position="0,729"
       orientation="0,1" />
    <sodipodi:guide
       id="guide_descender"
       inkscape:label="descender"
       position="0,28"
       orientation="0,1" />
  </sodipodi:namedview>
  <defs
     id="defs4">
    <rect
       x="3274.7769"
       y="1324.0826"
       width="2332.5872"
       height="352.08273"
       id="rect882" />
    <rect
       x="3274.7769"
       y="1324.0826"
       width="2332.5872"
       height="352.08273"
       id="rect1554" />
    <rect
       x="-3.4305727"
       y="1447.3522"
       width="10815.264"
       height="562.93915"
       id="rect864" />
    <rect
       x="-3.4305727"
       y="1447.3522"
       width="10815.264"
       height="562.93915"
       id="rect1557" />
  </defs>
  <metadata
     id="metadata7">
    <rdf:RDF>
      <cc:Work
         rdf:about="">
        <dc:format>image/svg+xml</dc:format>
        <dc:type
           rdf:resource="http://purl.org/dc/dcmitype/StillImage" />
        <dc:title />
      </cc:Work>
    </rdf:RDF>
  </metadata>
  <g
     id="layer1"
     inkscape:groupmode="layer"
     inkscape:label="Layer 1">
    <text
       xml:space="preserve"
       id="text862"
       style="font-style:normal;font-weight:normal;font-size:40px;line-height:1.25;font-family:sans-serif;letter-spacing:0px;word-spacing:0px;white-space:pre;shape-inside:url(#rect864);opacity:0.995;fill:#000000;fill-opacity:1;stroke:none;"
       transform="translate(1187.1808,3.7676)" />
    <text
       xml:space="preserve"
       id="text880"
       style="font-style:normal;font-weight:normal;font-size:40px;line-height:1.25;font-family:sans-serif;letter-spacing:0px;word-spacing:0px;white-space:pre;shape-inside:url(#rect882);opacity:0.995;fill:#000000;fill-opacity:1;stroke:none;"
       transform="translate(1187.1808,3.7676)" />
    <path
       id="path2183"
       style="opacity:1;fill:#000000;fill-opacity:1;stroke:none;stroke-width:35;stroke-linecap:square;stroke-miterlimit:4;stroke-dasharray:none;paint-order:markers stroke fill"
       d="m 344.14699,98.24441 a 23.643654,23.665464 0 0 0 -0.4079,0.01 23.643654,23.643654 0 0 0 -0.1068,0 23.643654,23.665464 0 0 0 -0.2855,0.01 23.643654,23.665464 0 0 0 -0.014,0 23.643654,23.643654 0 0 0 -0.039,0 23.643654,23.665464 0 0 0 -0.3689,0.0199 23.643654,23.665464 0 0 0 -0.4079,0.0268 23.643654,23.665464 0 0 0 -0.3631,0.0288 23.643654,23.643654 0 0 0 -0.2137,0.0219 23.643654,23.665464 0 0 0 -0.2195,0.0229 23.643654,23.643654 0 0 0 -0.016,0 23.643654,23.665464 0 0 0 -0.3184,0.0368 23.643654,23.643654 0 0 0 -0.404,0.0547 23.643654,23.643654 0 0 0 -0.3108,0.0467 23.643654,23.665464 0 0 0 -0.1223,0.0199 23.643654,23.643654 0 0 0 -0.057,0.01 23.643654,23.665464 0 0 0 -0.3166,0.0547 23.643654,23.643654 0 0 0 -0.3089,0.0567 23.643654,23.665464 0 0 0 -0.091,0.0179 23.643654,23.643654 0 0 0 -0.086,0.0179 23.643654,23.665464 0 0 0 -0.334,0.0676 23.643654,23.643654 0 0 0 -0.3224,0.0716 23.643654,23.665464 0 0 0 -0.082,0.0189 23.643654,23.643654 0 0 0 -0.059,0.0139 23.643654,23.665464 0 0 0 -0.3126,0.0756 23.643654,23.643654 0 0 0 -0.2836,0.0716 23.643654,23.665464 0 0 0 -0.1106,0.0288 23.643654,23.643654 0 0 0 -0.084,0.0229 23.643654,23.665464 0 0 0 -0.3164,0.0875 23.643654,23.643654 0 0 0 -0.3089,0.0915 23.643654,23.665464 0 0 0 -0.1184,0.0368 23.643654,23.643654 0 0 0 -0.039,0.0119 23.643654,23.665464 0 0 0 -0.3068,0.0974 23.643654,23.643654 0 0 0 -0.3865,0.12826 23.643654,23.643654 0 0 0 -0.3845,0.13593 23.643654,23.643654 0 0 0 -0.2971,0.11066 23.643654,23.665464 0 0 0 -0.1088,0.0408 23.643654,23.643654 0 0 0 -0.059,0.0219 23.643654,23.665464 0 0 0 -0.2971,0.11842 23.643654,23.643654 0 0 0 -0.3767,0.15541 23.643654,23.643654 0 0 0 -0.7457,0.33011 23.643654,23.643654 0 0 0 -0.369,0.1748 23.643654,23.643654 0 0 0 -0.3651,0.18057 23.643654,23.643654 0 0 0 -1.0759,0.58067 23.643654,23.643654 0 0 0 -0.7011,0.41761 23.643654,23.643654 0 0 0 -0.6855,0.44277 23.643654,23.643654 0 0 0 -0.9982,0.70487 23.643654,23.643654 0 0 0 -2.5343,2.1829 23.643654,23.643654 0 0 0 -0.049,0.0487 23.643654,23.643654 0 0 0 -6.8398,14.72623 23.643654,23.643654 0 0 0 -0.031,0.40588 23.643654,23.643654 0 0 0 -0.022,0.35149 23.643654,23.665464 0 0 0 -0.01,0.13592 23.643654,23.643654 0 0 0 -0.01,0.30108 23.643654,23.665464 0 0 0 0,0.0547 23.643654,23.643654 0 0 0 -0.01,0.22719 23.643654,23.665464 0 0 0 0,0.25833 23.643654,23.643654 0 0 0 0,0.2796 23.643654,23.643654 0 0 0 0,0.20194 v 111.93763 76.77744 73.6546 35.4048 a 23.643654,23.643654 0 0 0 0,0.40786 v 34.82223 73.65272 76.77744 112.13957 a 23.643654,23.665464 0 0 0 23.644,23.66527 23.643654,23.665464 0 0 0 0.068,0 23.643654,23.665464 0 0 0 23.5741,-23.66527 V 605.54644 528.769 455.11629 429.90705 l 142.1863,-142.18832 a 23.643654,23.643654 0 0 0 0.051,-0.0507 23.643654,23.643654 0 0 0 0.235,-0.24072 23.643654,23.643654 0 0 0 0.027,-0.0269 23.643654,23.643654 0 0 0 0.2545,-0.26807 23.643654,23.643654 0 0 0 0.027,-0.0288 23.643654,23.643654 0 0 0 0.2486,-0.27184 23.643654,23.643654 0 0 0 0.025,-0.0288 23.643654,23.643654 0 0 0 0.2447,-0.27572 23.643654,23.643654 0 0 0 0.025,-0.0288 23.643654,23.643654 0 0 0 0.012,-0.0119 23.643654,23.643654 0 0 0 0.5128,-0.61369 23.643654,23.643654 0 0 0 0.2291,-0.28745 23.643654,23.643654 0 0 0 0.025,-0.0308 23.643654,23.643654 0 0 0 0.2234,-0.29322 23.643654,23.643654 0 0 0 0.024,-0.0308 23.643654,23.643654 0 0 0 0.2195,-0.29521 23.643654,23.643654 0 0 0 0.023,-0.0328 23.643654,23.643654 0 0 0 0.2156,-0.29909 23.643654,23.643654 0 0 0 0.022,-0.0308 23.643654,23.643654 0 0 0 0.2097,-0.30485 23.643654,23.643654 0 0 0 0.022,-0.0308 23.643654,23.643654 0 0 0 0.2039,-0.30685 23.643654,23.643654 0 0 0 0.022,-0.0328 23.643654,23.643654 0 0 0 0.012,-0.0179 23.643654,23.643654 0 0 0 0.2078,-0.32623 23.643654,23.643654 0 0 0 0.1942,-0.3146 23.643654,23.643654 0 0 0 0.02,-0.0328 23.643654,23.643654 0 0 0 0.1884,-0.31659 23.643654,23.643654 0 0 0 0.019,-0.0348 23.643654,23.643654 0 0 0 0.082,-0.14179 23.643654,23.643654 0 0 0 0.1204,-0.21169 23.643654,23.643654 0 0 0 0.1768,-0.32424 23.643654,23.643654 0 0 0 0.017,-0.0348 23.643654,23.643654 0 0 0 0.074,-0.13989 23.643654,23.643654 0 0 0 0.098,-0.18644 23.643654,23.643654 0 0 0 0.1845,-0.36312 23.643654,23.643654 0 0 0 0.017,-0.0348 23.643654,23.643654 0 0 0 0.039,-0.0835 23.643654,23.643654 0 0 0 0.3068,-0.65645 23.643654,23.643654 0 0 0 0.1476,-0.33587 23.643654,23.643654 0 0 0 0.1729,-0.41374 23.643654,23.643654 0 0 0 0.1378,-0.34174 23.643654,23.643654 0 0 0 0.014,-0.0368 23.643654,23.643654 0 0 0 0.1302,-0.34373 23.643654,23.643654 0 0 0 0.014,-0.0368 23.643654,23.643654 0 0 0 0.1243,-0.34761 23.643654,23.643654 0 0 0 0.014,-0.0368 23.643654,23.643654 0 0 0 0.047,-0.13593 23.643654,23.643654 0 0 0 0.084,-0.25056 23.643654,23.643654 0 0 0 0.1125,-0.3496 23.643654,23.643654 0 0 0 0.012,-0.0368 23.643654,23.643654 0 0 0 0.1068,-0.35338 23.643654,23.643654 0 0 0 0.012,-0.0388 23.643654,23.643654 0 0 0 0.2039,-0.74772 23.643654,23.643654 0 0 0 0.1068,-0.43302 23.643654,23.643654 0 0 0 0.084,-0.35934 23.643654,23.643654 0 0 0 0.01,-0.0388 23.643654,23.643654 0 0 0 0.076,-0.36113 23.643654,23.643654 0 0 0 0.01,-0.0388 23.643654,23.643654 0 0 0 0.01,-0.0467 23.643654,23.643654 0 0 0 0.067,-0.35347 23.643654,23.643654 0 0 0 0.064,-0.36312 23.643654,23.643654 0 0 0 0.01,-0.0388 23.643654,23.643654 0 0 0 0.057,-0.36322 23.643654,23.643654 0 0 0 0.01,-0.0388 23.643654,23.643654 0 0 0 0.051,-0.36511 23.643654,23.643654 0 0 0 0.01,-0.0388 23.643654,23.643654 0 0 0 0.045,-0.367 23.643654,23.643654 0 0 0 0,-0.0388 23.643654,23.643654 0 0 0 0.039,-0.36511 23.643654,23.643654 0 0 0 0,-0.0388 23.643654,23.643654 0 0 0 0.061,-0.77486 23.643654,23.643654 0 0 0 0,-0.0388 23.643654,23.643654 0 0 0 0.02,-0.36899 23.643654,23.643654 0 0 0 0,-0.0388 23.643654,23.643654 0 0 0 0.02,-0.77486 23.643654,23.643654 0 0 0 0,-0.0408 23.643654,23.643654 0 0 0 0,-0.367 23.643654,23.643654 0 0 0 0,-0.0388 23.643654,23.643654 0 0 0 0,-0.11653 23.643654,23.643654 0 0 0 -0.01,-0.29123 23.643654,23.643654 0 0 0 -0.012,-0.36899 23.643654,23.643654 0 0 0 0,-0.0388 23.643654,23.643654 0 0 0 -0.02,-0.36899 23.643654,23.643654 0 0 0 0,-0.0388 23.643654,23.643654 0 0 0 -0.01,-0.13791 23.643654,23.643654 0 0 0 -0.019,-0.26797 23.643654,23.643654 0 0 0 -0.031,-0.36709 23.643654,23.643654 0 0 0 0,-0.0388 23.643654,23.643654 0 0 0 -0.039,-0.367 23.643654,23.643654 0 0 0 0,-0.0388 23.643654,23.643654 0 0 0 -0.045,-0.3671 23.643654,23.643654 0 0 0 -0.01,-0.0388 23.643654,23.643654 0 0 0 -0.051,-0.36511 23.643654,23.643654 0 0 0 -0.01,-0.0388 23.643654,23.643654 0 0 0 -0.057,-0.36312 23.643654,23.643654 0 0 0 -0.01,-0.0388 23.643654,23.643654 0 0 0 -0.1398,-0.76323 23.643654,23.643654 0 0 0 -0.01,-0.0388 23.643654,23.643654 0 0 0 -0.075,-0.36113 23.643654,23.643654 0 0 0 -0.01,-0.0368 23.643654,23.643654 0 0 0 -0.1806,-0.75548 23.643654,23.643654 0 0 0 -0.01,-0.0388 23.643654,23.643654 0 0 0 -0.024,-0.0875 23.643654,23.643654 0 0 0 -0.082,-0.30685 23.643654,23.643654 0 0 0 -0.099,-0.35348 23.643654,23.643654 0 0 0 -0.012,-0.0388 23.643654,23.643654 0 0 0 -0.1067,-0.35149 23.643654,23.643654 0 0 0 -0.012,-0.0388 23.643654,23.643654 0 0 0 -0.1125,-0.3495 23.643654,23.643654 0 0 0 -0.012,-0.0368 23.643654,23.643654 0 0 0 -0.1184,-0.3496 23.643654,23.643654 0 0 0 -0.014,-0.0368 23.643654,23.643654 0 0 0 -0.1243,-0.34761 23.643654,23.643654 0 0 0 -0.014,-0.0368 23.643654,23.643654 0 0 0 -0.1302,-0.34373 23.643654,23.643654 0 0 0 -0.014,-0.0368 23.643654,23.643654 0 0 0 -0.2951,-0.71859 23.643654,23.643654 0 0 0 -0.016,-0.0348 23.643654,23.643654 0 0 0 -0.047,-0.10679 23.643654,23.643654 0 0 0 -0.1011,-0.23108 23.643654,23.643654 0 0 0 -0.1709,-0.37097 23.643654,23.643654 0 0 0 -0.016,-0.0348 23.643654,23.643654 0 0 0 -0.1593,-0.3321 23.643654,23.643654 0 0 0 -0.2019,-0.40001 23.643654,23.643654 0 0 0 -0.097,-0.18644 23.643654,23.643654 0 0 0 -0.074,-0.1398 23.643654,23.643654 0 0 0 -0.1942,-0.35735 23.643654,23.643654 0 0 0 -0.02,-0.0348 23.643654,23.643654 0 0 0 -0.1826,-0.32047 23.643654,23.643654 0 0 0 -0.019,-0.0328 23.643654,23.643654 0 0 0 -0.1884,-0.31848 23.643654,23.643654 0 0 0 -0.02,-0.0328 23.643654,23.643654 0 0 0 -0.4136,-0.65635 23.643654,23.643654 0 0 0 -0.022,-0.0328 23.643654,23.643654 0 0 0 -0.2039,-0.30684 23.643654,23.643654 0 0 0 -0.022,-0.0328 23.643654,23.643654 0 0 0 -0.4466,-0.63507 23.643654,23.643654 0 0 0 -0.023,-0.0328 23.643654,23.643654 0 0 0 -0.2194,-0.29521 23.643654,23.643654 0 0 0 -0.024,-0.0308 23.643654,23.643654 0 0 0 -0.023,-0.0308 23.643654,23.643654 0 0 0 -0.4796,-0.6117 23.643654,23.643654 0 0 0 -0.2351,-0.28358 23.643654,23.643654 0 0 0 -0.023,-0.0288 23.643654,23.643654 0 0 0 -0.2408,-0.28159 23.643654,23.643654 0 0 0 -0.025,-0.0288 23.643654,23.643654 0 0 0 -0.2447,-0.27572 23.643654,23.643654 0 0 0 -0.025,-0.0288 23.643654,23.643654 0 0 0 -0.2486,-0.27185 23.643654,23.643654 0 0 0 -0.027,-0.0288 23.643654,23.643654 0 0 0 -0.2545,-0.26608 23.643654,23.643654 0 0 0 -0.027,-0.0288 23.643654,23.643654 0 0 0 -0.235,-0.24083 23.643654,23.643654 0 0 0 -0.051,-0.0507 l -149.1087,-149.1091 a 23.643654,23.643654 0 0 0 -3.2645,-2.72073 23.643654,23.643654 0 0 0 -1.0235,-0.67007 23.643654,23.643654 0 0 0 -0.3496,-0.21168 23.643654,23.643654 0 0 0 -1.0661,-0.59808 23.643654,23.643654 0 0 0 -1.0973,-0.5418 23.643654,23.643654 0 0 0 -1.5011,-0.63318 23.643654,23.643654 0 0 0 -0.3826,-0.14169 23.643654,23.643654 0 0 0 -0.7457,-0.25643 23.643654,23.643654 0 0 0 -0.025,-0.01 23.643654,23.665464 0 0 0 -0.1883,-0.0607 23.643654,23.643654 0 0 0 -0.2021,-0.0616 23.643654,23.665464 0 0 0 -0.1883,-0.0567 23.643654,23.643654 0 0 0 -0.2019,-0.0587 23.643654,23.665464 0 0 0 -0.027,-0.01 23.643654,23.643654 0 0 0 -0.3068,-0.0855 23.643654,23.643654 0 0 0 -0.059,-0.0159 23.643654,23.665464 0 0 0 -0.059,-0.0159 23.643654,23.643654 0 0 0 -0.3379,-0.0855 23.643654,23.643654 0 0 0 -0.3961,-0.0954 23.643654,23.643654 0 0 0 -0.3982,-0.0875 23.643654,23.665464 0 0 0 -0.1942,-0.0408 23.643654,23.643654 0 0 0 -0.093,-0.0179 23.643654,23.665464 0 0 0 -0.2233,-0.0447 23.643654,23.665464 0 0 0 -0.084,-0.0159 23.643654,23.643654 0 0 0 -0.2058,-0.0368 23.643654,23.643654 0 0 0 -0.3981,-0.0676 23.643654,23.665464 0 0 0 -0.01,0 23.643654,23.643654 0 0 0 -0.3553,-0.0547 23.643654,23.643654 0 0 0 -0.041,-0.01 23.643654,23.665464 0 0 0 -0.1981,-0.0268 23.643654,23.643654 0 0 0 -0.055,-0.01 23.643654,23.665464 0 0 0 -0.2486,-0.0308 23.643654,23.643654 0 0 0 -0.3088,-0.0328 23.643654,23.643654 0 0 0 -0.299,-0.0308 23.643654,23.665464 0 0 0 -0.2661,-0.0219 23.643654,23.665464 0 0 0 -0.039,0 23.643654,23.643654 0 0 0 -0.2078,-0.0159 23.643654,23.665464 0 0 0 -0.062,0 23.643654,23.643654 0 0 0 -0.3456,-0.0219 23.643654,23.643654 0 0 0 -0.3476,-0.0179 23.643654,23.643654 0 0 0 -0.059,0 23.643654,23.665464 0 0 0 -0.2001,-0.01 23.643654,23.643654 0 0 0 -0.012,0 23.643654,23.665464 0 0 0 -0.3924,-0.01 23.643654,23.643654 0 0 0 -0.4078,0 z m 23.7974,80.72365 92.0299,92.03194 -92.0299,92.02996 v -52.20317 -76.77743 z m 125.2655,366.48477 a 23.643654,23.643618 0 0 0 -23.5759,23.644 23.643654,23.643618 0 0 0 23.6439,23.64399 23.643654,23.643618 0 0 0 0.068,0 23.643654,23.643618 0 0 0 23.576,-23.64399 23.643654,23.643618 0 0 0 -23.6439,-23.644 23.643654,23.643618 0 0 0 -0.068,0 z" />
  </g>
</svg>
