<?xml version="1.0" encoding="UTF-8" standalone="no"?>
<svg
   xmlns:dc="http://purl.org/dc/elements/1.1/"
   xmlns:cc="http://creativecommons.org/ns#"
   xmlns:rdf="http://www.w3.org/1999/02/22-rdf-syntax-ns#"
   xmlns:svg="http://www.w3.org/2000/svg"
   xmlns="http://www.w3.org/2000/svg"
   xmlns:sodipodi="http://sodipodi.sourceforge.net/DTD/sodipodi-0.dtd"
   xmlns:inkscape="http://www.inkscape.org/namespaces/inkscape"
   height="1000"
   width="1000"
   sodipodi:docname="tiwaz.svg"
   version="1.1"
   id="svg1621"
   viewBox="0 0 1000 1000"
   inkscape:version="1.0.1 (3bc2e813f5, 2020-09-07)">
  <sodipodi:namedview
     id="base"
     pagecolor="#ffffff"
     bordercolor="#666666"
     borderopacity="1.0"
     inkscape:pageopacity="0.0"
     inkscape:pageshadow="2"
     inkscape:zoom="0.16"
     inkscape:cx="1665.7041"
     inkscape:cy="788.89212"
     inkscape:document-units="px"
     inkscape:current-layer="layer1"
     showgrid="false"
     showguides="true"
     inkscape:window-width="1278"
     inkscape:window-height="1438"
     inkscape:window-x="1280"
     inkscape:window-y="0"
     inkscape:window-maximized="1"
     showborder="true"
     inkscape:showpageshadow="false"
     inkscape:document-rotation="0"
     inkscape:snap-bbox="true"
     inkscape:bbox-paths="true"
     inkscape:bbox-nodes="true"
     inkscape:snap-bbox-midpoints="true"
     inkscape:snap-bbox-edge-midpoints="true">
    <sodipodi:guide
       id="guide_baseline"
       inkscape:label="baseline"
       position="0,253"
       orientation="0,1" />
    <sodipodi:guide
       id="guide_ascender"
       inkscape:label="ascender"
       position="0,945"
       orientation="0,1" />
    <sodipodi:guide
       id="guide_caps"
       inkscape:label="caps"
       position="0,896"
       orientation="0,1" />
    <sodipodi:guide
       id="guide_xheight"
       inkscape:label="xheight"
       position="0,729"
       orientation="0,1" />
    <sodipodi:guide
       id="guide_descender"
       inkscape:label="descender"
       position="0,28"
       orientation="0,1" />
  </sodipodi:namedview>
  <defs
     id="defs4">
    <rect
       x="3274.7769"
       y="1324.0826"
       width="2332.5872"
       height="352.08273"
       id="rect882" />
    <rect
       x="3274.7769"
       y="1324.0826"
       width="2332.5872"
       height="352.08273"
       id="rect1554" />
    <rect
       x="-3.4305727"
       y="1447.3522"
       width="10815.264"
       height="562.93915"
       id="rect864" />
    <rect
       x="-3.4305727"
       y="1447.3522"
       width="10815.264"
       height="562.93915"
       id="rect1557" />
  </defs>
  <metadata
     id="metadata7">
    <rdf:RDF>
      <cc:Work
         rdf:about="">
        <dc:format>image/svg+xml</dc:format>
        <dc:type
           rdf:resource="http://purl.org/dc/dcmitype/StillImage" />
        <dc:title />
      </cc:Work>
    </rdf:RDF>
  </metadata>
  <g
     id="layer1"
     inkscape:groupmode="layer"
     inkscape:label="Layer 1">
    <text
       xml:space="preserve"
       id="text862"
       style="font-style:normal;font-weight:normal;font-size:40px;line-height:1.25;font-family:sans-serif;letter-spacing:0px;word-spacing:0px;white-space:pre;shape-inside:url(#rect864);opacity:0.995;fill:#000000;fill-opacity:1;stroke:none;"
       transform="translate(1187.1808,3.7676)" />
    <text
       xml:space="preserve"
       id="text880"
       style="font-style:normal;font-weight:normal;font-size:40px;line-height:1.25;font-family:sans-serif;letter-spacing:0px;word-spacing:0px;white-space:pre;shape-inside:url(#rect882);opacity:0.995;fill:#000000;fill-opacity:1;stroke:none;"
       transform="translate(1187.1808,3.7676)" />
    <path
       id="path1342"
       style="opacity:1;fill:#000000;fill-opacity:1;stroke:none;stroke-width:35.0001;stroke-linecap:square;stroke-miterlimit:4;stroke-dasharray:none;paint-order:markers stroke fill"
       d="m 309.41861,103.575 a 23.643668,23.643668 0 0 0 -0.2447,0 23.643668,23.643668 0 0 0 -0.055,0 23.643668,23.643668 0 0 0 -0.3942,0.012 23.643668,23.643668 0 0 0 -0.2544,0.012 23.643668,23.643668 0 0 0 -0.2738,0.014 23.643668,23.643668 0 0 0 -0.3943,0.027 23.643668,23.643668 0 0 0 -0.2991,0.023 23.643668,23.643668 0 0 0 -0.3107,0.029 23.643668,23.643668 0 0 0 -0.1864,0.019 23.643668,23.643668 0 0 0 -0.029,0 23.643668,23.643668 0 0 0 -0.2835,0.033 23.643668,23.643668 0 0 0 -0.3321,0.043 23.643668,23.643668 0 0 0 -0.1437,0.021 23.643668,23.643668 0 0 0 -0.1457,0.022 23.643668,23.643668 0 0 0 -0.2447,0.037 23.643668,23.643668 0 0 0 -0.062,0.01 23.643668,23.643668 0 0 0 -0.2816,0.049 23.643668,23.643668 0 0 0 -0.3962,0.074 23.643668,23.643668 0 0 0 -0.01,0 23.643668,23.643668 0 0 0 -0.2272,0.045 23.643668,23.643668 0 0 0 -0.2175,0.045 23.643668,23.643668 0 0 0 -0.3418,0.076 23.643668,23.643668 0 0 0 -0.01,0 23.643668,23.643668 0 0 0 -0.2545,0.059 23.643668,23.643668 0 0 0 -0.1728,0.043 23.643668,23.643668 0 0 0 -0.3496,0.089 23.643668,23.643668 0 0 0 -0.023,0.01 23.643668,23.643668 0 0 0 -0.237,0.064 23.643668,23.643668 0 0 0 -0.1922,0.053 23.643668,23.643668 0 0 0 -0.1573,0.047 23.643668,23.643668 0 0 0 -0.3011,0.091 23.643668,23.643668 0 0 0 -0.3223,0.101 23.643668,23.643668 0 0 0 -0.2855,0.095 23.643668,23.643668 0 0 0 -0.068,0.023 23.643668,23.643668 0 0 0 -0.369,0.1301 23.643668,23.643668 0 0 0 -0.3534,0.1321 23.643668,23.643668 0 0 0 -0.049,0.018 23.643668,23.643668 0 0 0 -0.2796,0.1087 23.643668,23.643668 0 0 0 -0.1029,0.041 23.643668,23.643668 0 0 0 -0.3341,0.1379 23.643668,23.643668 0 0 0 -0.035,0.014 23.643668,23.643668 0 0 0 -0.2893,0.1243 23.643668,23.643668 0 0 0 -0.097,0.043 23.643668,23.643668 0 0 0 -0.3321,0.1495 23.643668,23.643668 0 0 0 -0.017,0.01 23.643668,23.643668 0 0 0 -0.3554,0.1689 23.643668,23.643668 0 0 0 -0.016,0.01 23.643668,23.643668 0 0 0 -0.103,0.051 23.643668,23.643668 0 0 0 -0.2563,0.1282 23.643668,23.643668 0 0 0 -0.2874,0.1477 23.643668,23.643668 0 0 0 -0.1205,0.062 23.643668,23.643668 0 0 0 -0.2174,0.1164 23.643668,23.643668 0 0 0 -0.1204,0.066 23.643668,23.643668 0 0 0 -0.2991,0.169 23.643668,23.643668 0 0 0 -0.084,0.047 23.643668,23.643668 0 0 0 -0.09,0.051 23.643668,23.643668 0 0 0 -0.2933,0.1729 23.643668,23.643668 0 0 0 -0.1185,0.072 23.643668,23.643668 0 0 0 -0.2058,0.1262 23.643668,23.643668 0 0 0 -0.1204,0.076 23.643668,23.643668 0 0 0 -0.1689,0.1068 23.643668,23.643668 0 0 0 -0.1011,0.066 23.643668,23.643668 0 0 0 -0.3398,0.2252 23.643668,23.643668 0 0 0 -0.2563,0.1748 23.643668,23.643668 0 0 0 -0.2506,0.1768 23.643668,23.643668 0 0 0 -0.1087,0.078 23.643668,23.643668 0 0 0 -0.1165,0.083 23.643668,23.643668 0 0 0 -0.2642,0.1961 23.643668,23.643668 0 0 0 -0.2816,0.2137 23.643668,23.643668 0 0 0 -0.2368,0.1864 23.643668,23.643668 0 0 0 -0.043,0.035 23.643668,23.643668 0 0 0 -0.2019,0.1631 23.643668,23.643668 0 0 0 -0.1691,0.1379 23.643668,23.643668 0 0 0 -0.07,0.059 23.643668,23.643668 0 0 0 -0.2641,0.2253 23.643668,23.643668 0 0 0 -0.012,0.012 23.643668,23.643668 0 0 0 -0.2971,0.2621 23.643668,23.643668 0 0 0 -0.2972,0.2699 23.643668,23.643668 0 0 0 -0.021,0.019 23.643668,23.643668 0 0 0 -0.2408,0.2272 23.643668,23.643668 0 0 0 -0.1146,0.1108 23.643668,23.643668 0 0 0 -0.1301,0.1262 23.643668,23.643668 0 0 0 -0.085,0.085 23.643668,23.643668 0 0 0 -0.049,0.049 23.643668,23.643668 0 0 0 -0.027,0.027 l -149.0824,149.0824 a 23.643668,23.643668 0 0 0 0,33.4395 23.643668,23.643668 0 0 0 0.047,0.047 23.643668,23.643668 0 0 0 33.389,-0.047 l 108.752,-108.7507 v 148.826 h 47.288 V 184.3013 L 441.96771,293.05 a 23.643668,23.643668 0 0 0 16.6838,6.9233 v 0 a 23.643668,23.643668 0 0 0 16.7498,-6.9233 23.643668,23.643668 0 0 0 0.051,-0.051 23.643668,23.643668 0 0 0 -0.051,-33.389 L 326.34121,110.5509 a 23.643668,23.643668 0 0 0 -0.051,-0.051 23.643668,23.643668 0 0 0 -0.266,-0.2641 23.643668,23.643668 0 0 0 -0.024,-0.022 23.643668,23.643668 0 0 0 -0.2971,-0.2816 23.643668,23.643668 0 0 0 -0.2757,-0.2543 23.643668,23.643668 0 0 0 -0.023,-0.022 23.643668,23.643668 0 0 0 -0.2816,-0.2506 23.643668,23.643668 0 0 0 -0.023,-0.02 23.643668,23.643668 0 0 0 -0.2854,-0.2447 23.643668,23.643668 0 0 0 -0.025,-0.022 23.643668,23.643668 0 0 0 -0.2893,-0.2388 23.643668,23.643668 0 0 0 -0.025,-0.02 23.643668,23.643668 0 0 0 -0.2932,-0.2351 23.643668,23.643668 0 0 0 -0.025,-0.019 23.643668,23.643668 0 0 0 -0.3223,-0.2486 23.643668,23.643668 0 0 0 -0.303,-0.2252 23.643668,23.643668 0 0 0 -0.025,-0.018 23.643668,23.643668 0 0 0 -0.305,-0.2194 23.643668,23.643668 0 0 0 -0.027,-0.02 23.643668,23.643668 0 0 0 -0.3089,-0.2137 23.643668,23.643668 0 0 0 -0.025,-0.018 23.643668,23.643668 0 0 0 -0.3127,-0.2078 23.643668,23.643668 0 0 0 -0.027,-0.018 23.643668,23.643668 0 0 0 -0.3166,-0.2038 23.643668,23.643668 0 0 0 -0.027,-0.018 23.643668,23.643668 0 0 0 -0.3186,-0.1962 23.643668,23.643668 0 0 0 -0.029,-0.018 23.643668,23.643668 0 0 0 -0.3224,-0.1923 23.643668,23.643668 0 0 0 -0.027,-0.016 23.643668,23.643668 0 0 0 -0.3263,-0.1864 23.643668,23.643668 0 0 0 -0.029,-0.016 23.643668,23.643668 0 0 0 -0.3282,-0.1806 23.643668,23.643668 0 0 0 -0.029,-0.016 23.643668,23.643668 0 0 0 -0.035,-0.018 23.643668,23.643668 0 0 0 -0.3262,-0.1709 23.643668,23.643668 0 0 0 -0.334,-0.171 23.643668,23.643668 0 0 0 -0.029,-0.014 23.643668,23.643668 0 0 0 -0.338,-0.163 23.643668,23.643668 0 0 0 -0.029,-0.014 23.643668,23.643668 0 0 0 -0.3418,-0.1573 23.643668,23.643668 0 0 0 -0.029,-0.014 23.643668,23.643668 0 0 0 -0.3437,-0.1516 23.643668,23.643668 0 0 0 -0.029,-0.012 23.643668,23.643668 0 0 0 -0.3457,-0.1455 23.643668,23.643668 0 0 0 -0.031,-0.012 23.643668,23.643668 0 0 0 -0.7282,-0.2855 23.643668,23.643668 0 0 0 -0.031,-0.012 23.643668,23.643668 0 0 0 -0.3534,-0.1283 23.643668,23.643668 0 0 0 -0.029,-0.01 23.643668,23.643668 0 0 0 -0.3553,-0.1223 23.643668,23.643668 0 0 0 -0.031,-0.01 23.643668,23.643668 0 0 0 -0.3573,-0.1145 23.643668,23.643668 0 0 0 -0.031,-0.01 23.643668,23.643668 0 0 0 -0.3593,-0.1088 23.643668,23.643668 0 0 0 -0.031,-0.01 23.643668,23.643668 0 0 0 -0.3612,-0.1029 23.643668,23.643668 0 0 0 -0.031,-0.01 23.643668,23.643668 0 0 0 -0.3631,-0.097 23.643668,23.643668 0 0 0 -0.031,-0.01 23.643668,23.643668 0 0 0 -0.7923,-0.1884 23.643668,23.643668 0 0 0 -0.369,-0.078 23.643668,23.643668 0 0 0 -0.031,-0.01 23.643668,23.643668 0 0 0 -0.369,-0.072 23.643668,23.643668 0 0 0 -0.031,-0.01 23.643668,23.643668 0 0 0 -0.043,-0.01 23.643668,23.643668 0 0 0 -0.7302,-0.1223 23.643668,23.643668 0 0 0 -0.031,0 23.643668,23.643668 0 0 0 -0.3729,-0.053 23.643668,23.643668 0 0 0 -0.031,0 23.643668,23.643668 0 0 0 -0.8098,-0.091 23.643668,23.643668 0 0 0 -0.3748,-0.033 23.643668,23.643668 0 0 0 -0.031,0 23.643668,23.643668 0 0 0 -0.3749,-0.027 23.643668,23.643668 0 0 0 -0.033,0 23.643668,23.643668 0 0 0 -0.012,0 23.643668,23.643668 0 0 0 -0.8021,-0.035 23.643668,23.643668 0 0 0 -0.3767,-0.01 23.643668,23.643668 0 0 0 -0.3263,0 23.643668,23.643668 0 0 0 -0.082,0 z m -23.4886,229.5515 v 23.2208 73.58468 76.70754 112.03467 a 23.642717,23.643632 0 0 0 23.644,23.644 23.642717,23.643632 0 0 0 0.066,0 23.642717,23.643632 0 0 0 23.574,-23.644 V 506.63952 429.93198 356.3473 333.1265 Z m 23.607,366.19747 a 23.643668,23.643632 0 0 0 -23.607,23.6421 23.643668,23.643632 0 0 0 23.576,23.644 23.643668,23.643632 0 0 0 0.068,0 23.643668,23.643632 0 0 0 23.644,-23.644 23.643668,23.643632 0 0 0 -23.5741,-23.6421 23.643668,23.643632 0 0 0 -0.07,0 23.643668,23.643632 0 0 0 -0.037,0 z" />
  </g>
</svg>
