<?xml version="1.0" encoding="UTF-8" standalone="no"?>
<svg
   xmlns:dc="http://purl.org/dc/elements/1.1/"
   xmlns:cc="http://creativecommons.org/ns#"
   xmlns:rdf="http://www.w3.org/1999/02/22-rdf-syntax-ns#"
   xmlns:svg="http://www.w3.org/2000/svg"
   xmlns="http://www.w3.org/2000/svg"
   xmlns:sodipodi="http://sodipodi.sourceforge.net/DTD/sodipodi-0.dtd"
   xmlns:inkscape="http://www.inkscape.org/namespaces/inkscape"
   height="1000"
   width="1000"
   sodipodi:docname="uruz.svg"
   version="1.1"
   id="svg1621"
   viewBox="0 0 1000 1000"
   inkscape:version="1.0.1 (3bc2e813f5, 2020-09-07)">
  <sodipodi:namedview
     id="base"
     pagecolor="#ffffff"
     bordercolor="#666666"
     borderopacity="1.0"
     inkscape:pageopacity="0.0"
     inkscape:pageshadow="2"
     inkscape:zoom="0.125"
     inkscape:cx="3834.8773"
     inkscape:cy="70.060206"
     inkscape:document-units="px"
     inkscape:current-layer="layer1"
     showgrid="false"
     showguides="true"
     inkscape:window-width="2558"
     inkscape:window-height="1438"
     inkscape:window-x="0"
     inkscape:window-y="0"
     inkscape:window-maximized="1"
     showborder="true"
     inkscape:showpageshadow="false"
     inkscape:document-rotation="0"
     inkscape:snap-bbox="true"
     inkscape:bbox-paths="true"
     inkscape:bbox-nodes="true"
     inkscape:snap-bbox-midpoints="true"
     inkscape:snap-bbox-edge-midpoints="true">
    <sodipodi:guide
       id="guide_baseline"
       inkscape:label="baseline"
       position="0,253"
       orientation="0,1" />
    <sodipodi:guide
       id="guide_ascender"
       inkscape:label="ascender"
       position="0,945"
       orientation="0,1" />
    <sodipodi:guide
       id="guide_caps"
       inkscape:label="caps"
       position="0,896"
       orientation="0,1" />
    <sodipodi:guide
       id="guide_xheight"
       inkscape:label="xheight"
       position="0,729"
       orientation="0,1" />
    <sodipodi:guide
       id="guide_descender"
       inkscape:label="descender"
       position="0,28"
       orientation="0,1" />
  </sodipodi:namedview>
  <defs
     id="defs4">
    <rect
       x="3274.7769"
       y="1324.0826"
       width="2332.5872"
       height="352.08273"
       id="rect882" />
    <rect
       x="3274.7769"
       y="1324.0826"
       width="2332.5872"
       height="352.08273"
       id="rect1554" />
    <rect
       x="-3.4305727"
       y="1447.3522"
       width="10815.264"
       height="562.93915"
       id="rect864" />
    <rect
       x="-3.4305727"
       y="1447.3522"
       width="10815.264"
       height="562.93915"
       id="rect1557" />
  </defs>
  <metadata
     id="metadata7">
    <rdf:RDF>
      <cc:Work
         rdf:about="">
        <dc:format>image/svg+xml</dc:format>
        <dc:type
           rdf:resource="http://purl.org/dc/dcmitype/StillImage" />
        <dc:title />
      </cc:Work>
    </rdf:RDF>
  </metadata>
  <g
     id="layer1"
     inkscape:groupmode="layer"
     inkscape:label="Layer 1">
    <text
       xml:space="preserve"
       id="text862"
       style="font-style:normal;font-weight:normal;font-size:40px;line-height:1.25;font-family:sans-serif;letter-spacing:0px;word-spacing:0px;white-space:pre;shape-inside:url(#rect864);opacity:0.995;fill:#000000;fill-opacity:1;stroke:none;"
       transform="translate(1187.1808,3.7676)" />
    <text
       xml:space="preserve"
       id="text880"
       style="font-style:normal;font-weight:normal;font-size:40px;line-height:1.25;font-family:sans-serif;letter-spacing:0px;word-spacing:0px;white-space:pre;shape-inside:url(#rect882);opacity:0.995;fill:#000000;fill-opacity:1;stroke:none;"
       transform="translate(1187.1808,3.7676)" />
    <path
       id="path2106"
       style="opacity:1;fill:#000000;fill-opacity:1;stroke:none;stroke-width:35;stroke-linecap:square;stroke-miterlimit:4;stroke-dasharray:none;paint-order:markers stroke fill"
       d="m 249.59577,104 a 23.643618,23.643654 45 0 0 -0.1185,0 23.643654,23.665464 0 0 0 -0.2894,0.01 23.643654,23.665464 0 0 0 -0.4058,0.0139 23.643654,23.665464 0 0 0 -0.4079,0.0219 23.643654,23.665464 0 0 0 -0.4059,0.0268 23.643654,23.665464 0 0 0 -0.4,0.0348 23.643654,23.665464 0 0 0 -0.2952,0.0288 23.643618,23.643654 45 0 0 -0.4059,0.0467 23.643618,23.643654 45 0 0 -0.4039,0.0547 23.643618,23.643654 45 0 0 -0.404,0.0597 23.643618,23.643654 45 0 0 -0.402,0.0676 23.643618,23.643654 45 0 0 -0.2912,0.0547 23.643654,23.665464 0 0 0 -0.2176,0.0408 23.643618,23.643654 45 0 0 -0.018,0 23.643654,23.665464 0 0 0 -0.3593,0.0756 23.643618,23.643654 45 0 0 -0.029,0.01 23.643654,23.665464 0 0 0 -0.2836,0.0636 23.643618,23.643654 45 0 0 -0.3961,0.0955 23.643618,23.643654 45 0 0 -0.3341,0.0855 23.643654,23.665464 0 0 0 -0.1126,0.0308 23.643618,23.643654 45 0 0 -0.202,0.0547 23.643654,23.665464 0 0 0 -0.1806,0.0507 23.643618,23.643654 45 0 0 -0.072,0.0219 23.643654,23.665464 0 0 0 -0.2757,0.0835 23.643618,23.643654 45 0 0 -0.3904,0.1223 23.643618,23.643654 45 0 0 -0.3166,0.1049 23.643654,23.665464 0 0 0 -0.1514,0.0527 23.643618,23.643654 45 0 0 -0.088,0.0308 23.643654,23.665464 0 0 0 -0.2933,0.1049 23.643618,23.643654 45 0 0 -0.3029,0.11256 23.643654,23.665464 0 0 0 -0.061,0.0229 23.643618,23.643654 45 0 0 -0.051,0.0189 23.643654,23.665464 0 0 0 -0.27,0.10689 23.643618,23.643654 45 0 0 -0.3767,0.15531 23.643618,23.643654 45 0 0 -0.3749,0.16317 23.643618,23.643654 45 0 0 -0.3709,0.16694 23.643618,23.643654 45 0 0 -0.7341,0.35547 23.643618,23.643654 45 0 0 -1.0758,0.58058 23.643618,23.643654 45 0 0 -0.3516,0.20592 23.643618,23.643654 45 0 0 -4.6161,3.59075 23.643618,23.643654 45 0 0 -0.047,0.0467 v 0 a 23.643618,23.643654 45 0 0 -6.5971,13.05808 23.643618,23.643654 45 0 0 -0.1942,1.61963 23.643618,23.643654 45 0 0 -0.027,0.35735 23.643654,23.665464 0 0 0 -0.01,0.0955 23.643618,23.643654 45 0 0 -0.021,0.36123 23.643618,23.643654 45 0 0 -0.018,0.40777 23.643618,23.643654 45 0 0 -0.01,0.40786 23.643618,23.643654 45 0 0 0,0.32822 23.643654,23.665464 0 0 0 0,0.0567 v 112.13947 76.77744 73.65471 70.63488 73.65272 76.77744 112.13947 a 23.643654,23.665464 0 0 0 23.644,23.66538 23.643654,23.665464 0 0 0 0.068,0 23.643654,23.665464 0 0 0 23.576,-23.66538 V 611.30269 534.52525 460.87254 390.23775 316.58304 239.8056 184.7263 l 38.8578,38.85763 54.2404,54.24041 52.0342,52.03234 9.4926,9.49258 v 73.29735 112.03468 a 23.643654,23.643618 0 0 0 6.9019,16.69347 v 0 a 23.643654,23.643618 0 0 0 16.744,6.95052 23.643654,23.643618 0 0 0 0.066,0 v 0 a 23.643654,23.643618 0 0 0 23.5761,-23.64211 V 412.6485 335.94096 329.713 a 23.643618,23.643654 45 0 0 -6.9253,-16.87224 l -16.4171,-16.41984 -52.0323,-52.03234 -54.2404,-54.24041 -79.2205,-79.22045 a 23.643618,23.643654 45 0 0 -4.6355,-3.60239 23.643618,23.643654 45 0 0 -1.4294,-0.78461 23.643618,23.643654 45 0 0 -0.7341,-0.35537 23.643618,23.643654 45 0 0 -0.7457,-0.32822 23.643618,23.643654 45 0 0 -0.3767,-0.15531 23.643618,23.643654 45 0 0 -0.3631,-0.14179 23.643618,23.643654 45 0 0 -0.018,-0.01 23.643654,23.665464 0 0 0 -0.016,-0.01 23.643618,23.643654 45 0 0 -0.3671,-0.13593 23.643618,23.643654 45 0 0 -0.7515,-0.25832 23.643618,23.643654 45 0 0 -0.02,-0.01 23.643654,23.665464 0 0 0 -0.2195,-0.0696 23.643618,23.643654 45 0 0 -0.1689,-0.0527 23.643654,23.665464 0 0 0 -0.07,-0.0219 23.643618,23.643654 45 0 0 -0.3224,-0.0935 23.643618,23.643654 45 0 0 -0.336,-0.0935 23.643618,23.643654 45 0 0 -0.057,-0.0159 23.643654,23.665464 0 0 0 -0.065,-0.0159 23.643618,23.643654 45 0 0 -0.2972,-0.0776 23.643618,23.643654 45 0 0 -0.033,-0.01 23.643654,23.665464 0 0 0 -0.2233,-0.0547 23.643618,23.643654 45 0 0 -0.1728,-0.0408 23.643654,23.665464 0 0 0 -0.2253,-0.0507 23.643618,23.643654 45 0 0 -0.1728,-0.0368 23.643618,23.643654 45 0 0 -0.4,-0.0815 23.643618,23.643654 45 0 0 -0.336,-0.0617 23.643618,23.643654 45 0 0 -0.065,-0.0119 23.643654,23.665464 0 0 0 -0.2272,-0.0388 23.643618,23.643654 45 0 0 -0.041,-0.01 23.643654,23.665464 0 0 0 -0.2797,-0.0447 23.643654,23.665464 0 0 0 -0.083,-0.0139 23.643618,23.643654 45 0 0 -0.1748,-0.0249 23.643654,23.665464 0 0 0 -0.2272,-0.0308 23.643618,23.643654 45 0 0 -0.047,-0.01 23.643654,23.665464 0 0 0 -0.2213,-0.0268 23.643618,23.643654 45 0 0 -0.3147,-0.0348 23.643654,23.665464 0 0 0 -0.2291,-0.0229 23.643618,23.643654 45 0 0 -0.018,0 23.643654,23.665464 0 0 0 -0.2661,-0.0229 23.643618,23.643654 45 0 0 -0.299,-0.0229 23.643618,23.643654 45 0 0 -0.3593,-0.0229 23.643618,23.643654 45 0 0 -0.047,0 23.643654,23.665464 0 0 0 -0.2311,-0.0119 23.643618,23.643654 45 0 0 -0.068,0 23.643654,23.665464 0 0 0 -0.2176,-0.01 23.643618,23.643654 45 0 0 -0.2038,-0.01 23.643654,23.665464 0 0 0 -0.3263,0 23.643654,23.665464 0 0 0 -0.2214,0 23.643618,23.643654 45 0 0 -0.1087,0 23.643618,23.643654 45 0 0 -0.078,0 z m 202.0314,595.79751 a 23.643654,23.643618 0 0 0 -23.5761,23.644 23.643654,23.643618 0 0 0 23.644,23.64399 23.643654,23.643618 0 0 0 0.068,0 23.643654,23.643618 0 0 0 23.5761,-23.64399 23.643654,23.643618 0 0 0 -23.644,-23.644 23.643654,23.643618 0 0 0 -0.068,0 z" />
  </g>
</svg>
