<?xml version="1.0" encoding="UTF-8" standalone="no"?>
<svg
   xmlns:dc="http://purl.org/dc/elements/1.1/"
   xmlns:cc="http://creativecommons.org/ns#"
   xmlns:rdf="http://www.w3.org/1999/02/22-rdf-syntax-ns#"
   xmlns:svg="http://www.w3.org/2000/svg"
   xmlns="http://www.w3.org/2000/svg"
   xmlns:sodipodi="http://sodipodi.sourceforge.net/DTD/sodipodi-0.dtd"
   xmlns:inkscape="http://www.inkscape.org/namespaces/inkscape"
   height="1000"
   width="1000"
   sodipodi:docname="wynn.svg"
   version="1.1"
   id="svg1621"
   viewBox="0 0 1000 1000"
   inkscape:version="1.0.1 (3bc2e813f5, 2020-09-07)">
  <sodipodi:namedview
     id="base"
     pagecolor="#ffffff"
     bordercolor="#666666"
     borderopacity="1.0"
     inkscape:pageopacity="0.0"
     inkscape:pageshadow="2"
     inkscape:zoom="0.25"
     inkscape:cx="355.45118"
     inkscape:cy="47.06256"
     inkscape:document-units="px"
     inkscape:current-layer="layer1"
     showgrid="false"
     showguides="true"
     inkscape:window-width="1278"
     inkscape:window-height="1438"
     inkscape:window-x="1280"
     inkscape:window-y="0"
     inkscape:window-maximized="1"
     showborder="true"
     inkscape:showpageshadow="false"
     inkscape:document-rotation="0"
     inkscape:snap-bbox="true"
     inkscape:bbox-paths="true"
     inkscape:bbox-nodes="true"
     inkscape:snap-bbox-midpoints="true"
     inkscape:snap-bbox-edge-midpoints="true">
    <sodipodi:guide
       id="guide_baseline"
       inkscape:label="baseline"
       position="0,253"
       orientation="0,1" />
    <sodipodi:guide
       id="guide_ascender"
       inkscape:label="ascender"
       position="0,945"
       orientation="0,1" />
    <sodipodi:guide
       id="guide_caps"
       inkscape:label="caps"
       position="0,896"
       orientation="0,1" />
    <sodipodi:guide
       id="guide_xheight"
       inkscape:label="xheight"
       position="0,729"
       orientation="0,1" />
    <sodipodi:guide
       id="guide_descender"
       inkscape:label="descender"
       position="0,28"
       orientation="0,1" />
  </sodipodi:namedview>
  <defs
     id="defs4">
    <rect
       x="3274.7769"
       y="1324.0826"
       width="2332.5872"
       height="352.08273"
       id="rect882" />
    <rect
       x="3274.7769"
       y="1324.0826"
       width="2332.5872"
       height="352.08273"
       id="rect1554" />
    <rect
       x="-3.4305727"
       y="1447.3522"
       width="10815.264"
       height="562.93915"
       id="rect864" />
    <rect
       x="-3.4305727"
       y="1447.3522"
       width="10815.264"
       height="562.93915"
       id="rect1557" />
  </defs>
  <metadata
     id="metadata7">
    <rdf:RDF>
      <cc:Work
         rdf:about="">
        <dc:format>image/svg+xml</dc:format>
        <dc:type
           rdf:resource="http://purl.org/dc/dcmitype/StillImage" />
        <dc:title />
      </cc:Work>
    </rdf:RDF>
  </metadata>
  <g
     id="layer1"
     inkscape:groupmode="layer"
     inkscape:label="Layer 1">
    <text
       xml:space="preserve"
       id="text862"
       style="font-style:normal;font-weight:normal;font-size:40px;line-height:1.25;font-family:sans-serif;letter-spacing:0px;word-spacing:0px;white-space:pre;shape-inside:url(#rect864);opacity:0.995;fill:#000000;fill-opacity:1;stroke:none;"
       transform="translate(1187.1808,3.7676)" />
    <text
       xml:space="preserve"
       id="text880"
       style="font-style:normal;font-weight:normal;font-size:40px;line-height:1.25;font-family:sans-serif;letter-spacing:0px;word-spacing:0px;white-space:pre;shape-inside:url(#rect882);opacity:0.995;fill:#000000;fill-opacity:1;stroke:none;"
       transform="translate(1187.1808,3.7676)" />
    <path
       id="path2212"
       style="opacity:1;fill:#000000;fill-opacity:1;stroke:none;stroke-width:35.0001;stroke-linecap:square;stroke-miterlimit:4;stroke-dasharray:none;paint-order:markers stroke fill"
       d="m 288.8469,103.89883 a 23.643668,23.665478 0 0 0 -0.7301,0.0179 23.643668,23.643668 0 0 0 -0.2661,0.0119 23.643668,23.665478 0 0 0 -0.2272,0.0119 23.643668,23.665478 0 0 0 -0.4059,0.0268 23.643668,23.665478 0 0 0 -0.3632,0.0288 23.643668,23.643668 0 0 0 -0.2136,0.0219 23.643668,23.665478 0 0 0 -0.2233,0.0229 23.643668,23.643668 0 0 0 -0.012,0 23.643668,23.665478 0 0 0 -0.3205,0.0368 23.643668,23.643668 0 0 0 -0.404,0.0547 23.643668,23.643668 0 0 0 -0.3223,0.0487 23.643668,23.643668 0 0 0 -0.08,0.0119 23.643668,23.665478 0 0 0 -0.027,0 23.643668,23.643668 0 0 0 -0.3748,0.0636 23.643668,23.665478 0 0 0 -0.07,0.0139 23.643668,23.643668 0 0 0 -0.041,0.01 23.643668,23.665478 0 0 0 -0.3748,0.0696 23.643668,23.665478 0 0 0 -0.3146,0.0646 23.643668,23.643668 0 0 0 -0.3961,0.0895 23.643668,23.643668 0 0 0 -0.086,0.0189 23.643668,23.665478 0 0 0 -0.3108,0.0756 23.643668,23.643668 0 0 0 -0.2971,0.0756 23.643668,23.665478 0 0 0 -0.099,0.0249 23.643668,23.643668 0 0 0 -0.083,0.0229 23.643668,23.665478 0 0 0 -0.3165,0.0875 23.643668,23.643668 0 0 0 -0.3826,0.11455 23.643668,23.643668 0 0 0 -0.083,0.0249 23.643668,23.665478 0 0 0 -0.3069,0.0974 23.643668,23.643668 0 0 0 -0.2602,0.0875 23.643668,23.665478 0 0 0 -0.1263,0.0408 23.643668,23.643668 0 0 0 -0.082,0.0288 23.643668,23.665478 0 0 0 -0.3146,0.11076 23.643668,23.643668 0 0 0 -0.7496,0.28736 23.643668,23.643668 0 0 0 -0.3767,0.15541 23.643668,23.643668 0 0 0 -0.6856,0.30297 23.643668,23.665478 0 0 0 -0.1301,0.0606 23.643668,23.643668 0 0 0 -0.01,0 23.643668,23.665478 0 0 0 -0.2894,0.13781 23.643668,23.643668 0 0 0 -1.4429,0.76134 23.643668,23.643668 0 0 0 -4.9192,3.74805 23.643668,23.643668 0 0 0 -0.047,0.0487 23.643668,23.643668 0 0 0 -6.7057,13.50859 23.643668,23.643668 0 0 0 -0.053,0.40598 23.643668,23.643668 0 0 0 -0.084,0.81175 23.643668,23.643668 0 0 0 -0.027,0.367 23.643668,23.665478 0 0 0 -0.01,0.0795 23.643668,23.643668 0 0 0 -0.021,0.367 23.643668,23.643668 0 0 0 -0.018,0.39036 23.643668,23.665478 0 0 0 0,0.0328 23.643668,23.643668 0 0 0 -0.01,0.32822 23.643668,23.665478 0 0 0 0,0.2097 23.643668,23.643668 0 0 0 0,0.0467 23.643668,23.665478 0 0 0 0,0.1923 v 112.13948 76.77743 73.65471 70.63489 73.65271 76.77933 112.13758 a 23.643668,23.665478 0 0 0 23.6439,23.66737 23.643668,23.665478 0 0 0 0.068,0 23.643668,23.665478 0 0 0 23.5759,-23.66737 V 611.19503 534.4157 460.76299 390.1281 316.47339 239.69596 184.61476 l 108.7488,108.75067 a 23.643668,23.643668 0 0 0 16.6858,6.92527 23.643668,23.643668 0 0 0 16.7518,-6.92527 23.643668,23.643668 0 0 0 0.049,-0.0507 23.643668,23.643668 0 0 0 -0.049,-33.38903 L 305.7183,110.81625 a 23.643668,23.643668 0 0 0 -3.9424,-3.17324 23.643668,23.643668 0 0 0 -0.6932,-0.42915 23.643668,23.643668 0 0 0 -1.0681,-0.59817 23.643668,23.643668 0 0 0 -0.3612,-0.18644 23.643668,23.643668 0 0 0 -0.3651,-0.18056 23.643668,23.643668 0 0 0 -0.369,-0.1748 23.643668,23.643668 0 0 0 -0.7457,-0.32823 23.643668,23.643668 0 0 0 -0.3768,-0.15531 23.643668,23.665478 0 0 0 -0.1845,-0.0736 23.643668,23.643668 0 0 0 -0.1961,-0.0756 23.643668,23.665478 0 0 0 -0.057,-0.0219 23.643668,23.643668 0 0 0 -0.3262,-0.12041 23.643668,23.643668 0 0 0 -0.7671,-0.2622 23.643668,23.665478 0 0 0 -0.01,0 23.643668,23.643668 0 0 0 -0.3806,-0.11842 23.643668,23.643668 0 0 0 -0.3651,-0.10878 23.643668,23.643668 0 0 0 -0.027,-0.01 23.643668,23.665478 0 0 0 -0.027,-0.01 23.643668,23.643668 0 0 0 -0.3068,-0.0855 23.643668,23.643668 0 0 0 -0.059,-0.0159 23.643668,23.665478 0 0 0 -0.066,-0.0179 23.643668,23.643668 0 0 0 -0.3282,-0.0835 23.643668,23.643668 0 0 0 -0.3962,-0.0955 23.643668,23.643668 0 0 0 -0.3981,-0.0875 23.643668,23.643668 0 0 0 -0.3165,-0.0636 23.643668,23.643668 0 0 0 -0.084,-0.0179 23.643668,23.665478 0 0 0 -0.1942,-0.0368 23.643668,23.643668 0 0 0 -0.2059,-0.0368 23.643668,23.665478 0 0 0 -0.012,0 23.643668,23.643668 0 0 0 -0.369,-0.0617 23.643668,23.643668 0 0 0 -0.022,0 23.643668,23.665478 0 0 0 -0.019,0 23.643668,23.643668 0 0 0 -0.367,-0.0567 23.643668,23.643668 0 0 0 -0.018,0 23.643668,23.665478 0 0 0 -0.018,0 23.643668,23.643668 0 0 0 -0.3865,-0.0507 23.643668,23.643668 0 0 0 -0.4059,-0.0467 23.643668,23.643668 0 0 0 -0.299,-0.0308 23.643668,23.665478 0 0 0 -0.2738,-0.0229 23.643668,23.665478 0 0 0 -0.031,0 23.643668,23.643668 0 0 0 -0.2078,-0.0159 23.643668,23.665478 0 0 0 -0.066,0 23.643668,23.643668 0 0 0 -0.3398,-0.0219 23.643668,23.643668 0 0 0 -0.3515,-0.0179 23.643668,23.643668 0 0 0 -0.057,0 23.643668,23.665478 0 0 0 -0.198,-0.01 23.643668,23.643668 0 0 0 -0.018,0 23.643668,23.665478 0 0 0 -0.3845,-0.01 23.643668,23.665478 0 0 0 -0.01,0 23.643668,23.643668 0 0 0 -0.4079,0 z m 74.6393,223.66735 a 23.643668,23.643632 0 0 0 -23.574,23.644 23.643668,23.643632 0 0 0 23.644,23.64399 23.643668,23.643632 0 0 0 0.068,0 23.643668,23.643632 0 0 0 23.5761,-23.64399 23.643668,23.643632 0 0 0 -23.644,-23.644 23.643668,23.643632 0 0 0 -0.068,0 z" />
  </g>
</svg>
